<svg width="198" height="180" viewBox="0 0 198 180" fill="none" xmlns="http://www.w3.org/2000/svg">
<path d="M17.1795 68.4897C17.268 69.2874 17.5362 71.2542 17.693 73.0172C17.7504 73.6626 17.7158 74.5496 17.8264 74.9833C17.9529 75.4791 20.3328 75.3272 23.2602 75.2166C24.2464 75.1793 24.1967 74.8848 24.1075 74.6159C23.6803 73.328 23.6148 69.6802 23.3038 67.7544C23.1801 66.989 20.0593 67.6853 18.4116 67.9079C18.2092 67.9535 18.0322 67.9535 17.8304 67.9977C17.6287 68.0419 17.4075 68.1304 16.7773 68.2216" stroke="#FFFDF4" stroke-width="2.2" stroke-linecap="round"/>
<path d="M17.4473 80.1536C17.4915 80.777 17.5813 83.0843 17.7804 85.8113C17.9607 88.281 23.6975 86.4092 25.2406 86.3663C25.9197 86.3474 25.1776 83.1246 25.1568 79.9069C25.1497 78.8075 24.7379 78.8129 24.4456 78.8572C22.2871 79.0811 19.0614 79.2581 18.0318 79.4605C17.8066 79.4833 17.6296 79.4833 17.4473 79.4833" stroke="#FFFDF4" stroke-width="2.2" stroke-linecap="round"/>
<path d="M16.6432 91.2812C16.6432 93.008 16.5547 96.4187 16.4206 96.9523C16.333 97.301 16.375 97.8399 17.0387 98.1134C20.3613 99.4827 21.5098 98.6094 23.1843 98.5665C23.582 98.5563 23.3037 97.5878 23.124 92.4852C23.0878 91.4577 22.8586 91.3724 22.6347 91.349C22.4108 91.3255 22.1453 91.3697 21.2122 91.3925C20.2791 91.4153 18.6864 91.4153 17.0454 91.4153" stroke="#FFFDF4" stroke-width="2.2" stroke-linecap="round"/>
<path d="M17.5815 103.079C17.5815 105.879 17.6258 109.333 17.7149 109.779C17.8041 110.225 19.8406 110.453 22.8571 110.342C23.888 110.305 23.8827 110.011 23.8385 109.808C23.2349 107.046 23.4376 102.497 23.081 102.654C22.9014 102.721 22.7244 102.765 21.8369 102.788C20.9493 102.811 19.3566 102.811 17.7156 102.811" stroke="#FFFDF4" stroke-width="2.2" stroke-linecap="round"/>
<path d="M27.6367 68.0875C27.681 68.6654 27.9478 70.002 28.1723 71.2334C28.4343 72.6699 28.3955 73.7586 28.5296 75.1663C28.5933 75.8351 32.3023 74.925 34.314 75.1475C34.606 75.1798 35.0024 75.1931 35.2075 74.7065C35.3684 71.9782 35.2786 70.2004 34.0398 68.3235C32.801 67.6853 30.3234 67.6853 27.7708 67.6853" stroke="#FFFDF4" stroke-width="2.2" stroke-linecap="round"/>
<path d="M28.709 79.8855C28.709 80.0625 28.709 82.3215 29.1736 85.6062C29.5631 88.3605 32.5917 86.9455 33.9772 87.347C34.509 87.5011 34.9633 87.5273 35.2764 87.4389C36.9845 86.956 35.4553 82.5266 35.3474 79.7393C34.7502 79.2151 33.8975 79.3036 29.7977 79.305C28.9343 79.2607 28.7573 79.1722 28.4409 78.947" stroke="#FFFDF4" stroke-width="2.2" stroke-linecap="round"/>
<path d="M28.5752 90.879C28.5752 91.3215 28.5752 93.6288 28.6858 96.7572C28.7231 97.8115 29.0176 97.7621 29.8173 97.7393C31.9886 97.7165 33.6228 97.7607 34.0907 97.8278C34.3374 97.8506 34.6029 97.8506 34.8764 97.8506" stroke="#FFFDF4" stroke-width="2.2" stroke-linecap="round"/>
<path d="M34.8761 97.8506C34.8761 97.7621 34.8761 95.4159 34.4337 91.9301C32.0178 90.7007 30.9948 90.6109 29.8787 90.5888C29.4263 90.5667 29.205 90.5224 28.709 90.3428" stroke="#FFFDF4" stroke-width="2.2" stroke-linecap="round"/>
<path d="M28.4409 102.945C28.4409 102.989 28.4409 103.034 28.4409 104.185C28.4409 105.336 28.4409 107.592 28.463 108.865C28.4852 110.138 28.5294 110.359 28.575 110.721" stroke="#FFFDF4" stroke-width="2.2" stroke-linecap="round"/>
<path d="M28.5752 110.721C29.7764 110.721 31.2083 110.81 33.1925 110.877C33.6671 110.899 33.9325 110.944 34.3569 110.966C34.7812 110.989 35.3563 110.989 35.9489 110.989" stroke="#FFFDF4" stroke-width="2.2" stroke-linecap="round"/>
<path d="M35.9489 110.989C35.8605 109.927 35.7264 108.761 35.5923 107.557C35.5467 106.442 35.5025 105.673 35.4133 104.852C35.3684 104.251 35.3242 103.278 35.1445 102.275" stroke="#FFFDF4" stroke-width="2.2" stroke-linecap="round"/>
<path d="M35.1447 102.275C34.7908 102.275 34.343 102.275 33.8081 102.297C33.5386 102.319 33.2731 102.363 32.5834 102.386C31.8936 102.409 30.7875 102.409 29.6479 102.409" stroke="#FFFDF4" stroke-width="2.2" stroke-linecap="round"/>
<path d="M38.6304 68.2216C38.6304 68.5755 38.6304 69.0676 38.6525 69.6916C38.7189 70.3157 38.7644 72.0063 38.8087 74.1729C38.8529 74.9679 38.9414 75.1448 38.6304 75.059" stroke="#FFFDF4" stroke-width="2.2" stroke-linecap="round"/>
<path d="M38.6304 75.0591C39.3838 75.0591 41.2608 75.1475 42.1356 75.4378C42.3373 75.5055 42.5586 75.5497 43.1813 75.5725C43.804 75.5953 44.8216 75.5953 45.87 75.3272" stroke="#FFFDF4" stroke-width="2.2" stroke-linecap="round"/>
<path d="M45.8698 75.3272C45.8698 73.1151 45.8698 69.8961 45.8035 66.8119C45.7818 65.8051 45.6044 65.9398 44.6733 66.0081C42.0167 66.0765 40.0178 66.1208 39.5056 66.1878C39.2147 66.2106 38.8608 66.2106 38.4961 66.2106" stroke="#FFFDF4" stroke-width="2.2" stroke-linecap="round"/>
<path d="M39.4346 80.1536C39.4346 80.2421 39.4346 80.3306 39.4346 81.5044C39.4346 82.6781 39.4346 84.9345 39.7027 87.5274" stroke="#FFFDF4" stroke-width="2.2" stroke-linecap="round"/>
<path d="M39.7026 87.5274C40.7645 87.5274 41.5769 87.5274 42.134 87.5495C42.7352 87.6158 43.9392 87.6614 45.2135 87.5729C45.603 87.4845 45.4702 87.3075 45.1994 87.1252" stroke="#FFFDF4" stroke-width="2.2" stroke-linecap="round"/>
<path d="M45.1998 87.1252C45.3325 83.5295 45.5135 78.8559 45.2246 79.1682C45.0241 79.3036 44.7144 79.3921 43.8691 79.4377C43.0238 79.4833 41.6523 79.4833 40.2393 79.4833" stroke="#FFFDF4" stroke-width="2.2" stroke-linecap="round"/>
<path d="M38.8984 91.2812C38.8984 91.3697 38.8984 93.7602 39.6506 97.313C43.7222 98.5652 44.7036 98.655 45.2633 98.5886C45.3806 98.5223 45.1594 98.3895 44.6633 98.2528" stroke="#FFFDF4" stroke-width="2.2" stroke-linecap="round"/>
<path d="M44.6633 98.2528C44.7518 97.3679 44.8858 94.9212 44.8872 91.9489C44.8 90.9675 44.5346 91.056 43.5572 91.1016C42.5799 91.1472 40.8987 91.1472 39.1665 91.1472" stroke="#FFFDF4" stroke-width="2.2" stroke-linecap="round"/>
<path d="M39.4346 103.615C39.4346 104.5 39.4346 106.947 39.6558 109.964C39.7325 111.01 40.3194 110.989 40.6358 110.967C40.9522 110.945 41.1292 110.901 42.0831 110.878C43.037 110.855 44.7624 110.855 46.5402 110.721" stroke="#FFFDF4" stroke-width="2.2" stroke-linecap="round"/>
<path d="M46.5402 110.721C46.5402 110.633 46.5402 110.544 46.5402 109.193C46.5402 107.843 46.5402 105.232 45.3677 103.888C44.1953 102.543 41.8505 102.543 39.4346 102.543" stroke="#FFFDF4" stroke-width="2.2" stroke-linecap="round"/>
<path d="M50.2944 68.4897C50.3387 68.8893 50.6055 69.8706 50.7188 72.0117C50.8307 73.225 50.9192 74.1152 51.0982 75.1449C51.1431 75.3701 51.1873 75.5471 51.2329 75.8635" stroke="#FFFDF4" stroke-width="2.2" stroke-linecap="round"/>
<path d="M51.2329 75.8634C52.1647 76.0404 53.9545 76.4882 54.716 76.5559C54.8956 76.578 55.0726 76.6223 55.3407 76.6451C55.6089 76.6679 55.9628 76.6679 56.3275 76.3997" stroke="#FFFDF4" stroke-width="2.2" stroke-linecap="round"/>
<path d="M56.3271 76.3997C56.3271 75.956 56.4156 74.6193 55.9524 69.1359C54.4261 68.0875 53.1564 68.1318 52.5116 68.1988C52.0879 68.2216 51.4685 68.2216 50.6963 68.0875" stroke="#FFFDF4" stroke-width="2.2" stroke-linecap="round"/>
<path d="M50.1602 80.5558C52.2422 80.5558 56.1463 80.5116 56.6142 80.4446C56.8609 80.4218 57.1263 80.4218 57.2631 81.5057C57.3998 82.5896 57.3998 84.7575 57.1317 86.723" stroke="#FFFDF4" stroke-width="2.2" stroke-linecap="round"/>
<path d="M57.1316 86.7229C56.0685 86.7229 53.6512 86.8114 52.1765 86.8791C51.8601 86.9013 51.6831 86.9455 51.2601 86.9683C50.8371 86.9911 50.1735 86.9911 49.4897 86.9911" stroke="#FFFDF4" stroke-width="2.2" stroke-linecap="round"/>
<path d="M49.4896 86.9911C49.4896 86.9026 49.4896 85.9279 49.4675 84.4096C49.4454 83.8204 49.4011 83.5992 49.3783 83.1976C49.3555 82.7961 49.3555 82.221 49.0874 81.4943" stroke="#FFFDF4" stroke-width="2.2" stroke-linecap="round"/>
<path d="M50.0259 92.2197C50.0259 92.264 50.0259 92.3082 50.0259 93.3043C50.0259 94.3005 50.0259 96.2471 49.9817 97.1615C49.9375 98.0758 49.849 97.8989 49.7578 97.7165" stroke="#FFFDF4" stroke-width="2.2" stroke-linecap="round"/>
<path d="M49.7578 97.7165C50.6467 97.7165 52.1657 97.805 54.0848 97.8948C54.9784 98.0275 55.8753 98.1187 56.7012 98.1408C57.0404 98.163 57.2173 98.2072 57.5337 98.2528" stroke="#FFFDF4" stroke-width="2.2" stroke-linecap="round"/>
<path d="M57.5339 98.2528C57.5339 97.9873 57.3127 96.5233 56.9775 93.8708C56.8636 92.5455 56.8636 91.2625 56.8636 90.7343C56.8636 90.206 56.8636 90.4715 56.7295 90.745" stroke="#FFFDF4" stroke-width="2.2" stroke-linecap="round"/>
<path d="M56.7294 90.745C56.6852 90.745 56.6409 90.745 55.5342 90.745C54.4275 90.745 52.2596 90.745 51.0543 90.7671C49.849 90.7892 49.6721 90.8335 49.4897 90.879" stroke="#FFFDF4" stroke-width="2.2" stroke-linecap="round"/>
<path d="M49.8921 102.945C49.8921 103.034 49.8921 104.849 49.9585 107.663C50.0248 108.707 50.1575 108.973 50.248 109.198C50.3385 109.423 50.3828 109.6 50.2943 109.783" stroke="#FFFDF4" stroke-width="2.2" stroke-linecap="round"/>
<path d="M50.2944 109.783C52.3845 109.96 55.1584 110.407 56.1679 110.475C56.3704 110.497 56.5473 110.541 56.7712 110.564C56.9951 110.587 57.2606 110.587 57.5341 110.587" stroke="#FFFDF4" stroke-width="2.2" stroke-linecap="round"/>
<path d="M57.534 110.587C57.534 109.437 57.4455 108.225 57.3115 107.176C57.2659 106.525 57.2217 106.076 57.1546 105.21C57.1318 104.565 57.1318 103.503 57.1318 102.409" stroke="#FFFDF4" stroke-width="2.2" stroke-linecap="round"/>
<path d="M57.1318 102.409C56.8664 102.409 55.8005 102.542 54.238 102.743C53.2948 102.811 52.7988 102.9 52.243 103.034C51.8643 103.079 51.2891 103.079 50.5625 102.945" stroke="#FFFDF4" stroke-width="2.2" stroke-linecap="round"/>
<path d="M68.3936 89.0021C70.1632 89.0021 72.8446 88.9579 75.6808 88.8687C77.0592 88.8254 79.367 88.734 82.472 88.7561C84.1703 88.7682 85.0582 88.9565 86.6207 89.0242C86.9821 89.0463 87.2033 89.0906 87.8039 89.1134C88.4045 89.1362 89.3779 89.1362 90.2466 89.0021" stroke="#FFFDF4" stroke-width="2.2" stroke-linecap="round"/>
<path d="M88.5034 86.3207C88.8587 86.7658 89.5733 87.5676 90.1102 88.2178C90.6649 88.8895 91.095 89.3131 91.0956 89.6698C90.6056 90.4742 90.1136 91.1901 89.824 91.5025C89.6671 91.6379 89.4902 91.7264 89.1738 91.8175" stroke="#FFFDF4" stroke-width="2.2" stroke-linecap="round"/>
<path d="M99.564 83.6394C99.698 84.5309 99.9635 85.511 100.211 87.2304C100.543 87.8357 100.903 88.3733 101.149 88.931C101.261 89.1791 101.35 89.356 101.441 89.5384" stroke="#FFFDF4" stroke-width="2.2" stroke-linecap="round"/>
<path d="M101.441 89.5384C101.529 89.5384 102.504 89.4941 104.332 89.3607C105.231 89.2716 106.072 89.1388 106.947 89.0705C107.823 89.0021 108.707 89.0021 109.485 88.734" stroke="#FFFDF4" stroke-width="2.2" stroke-linecap="round"/>
<path d="M109.485 88.734C109.353 87.2646 108.995 85.7443 108.704 84.6496C108.458 83.1071 108.146 81.989 107.945 81.3428C107.876 81.0063 107.876 80.6524 107.876 80.2877" stroke="#FFFDF4" stroke-width="2.2" stroke-linecap="round"/>
<path d="M107.876 80.2877C106.017 80.8186 102.071 81.985 101.087 82.3865C100.862 82.477 100.685 82.5213 100.461 82.5441C100.237 82.5668 99.9717 82.5668 99.6982 82.5668" stroke="#FFFDF4" stroke-width="2.2" stroke-linecap="round"/>
<path d="M124.367 92.4879C124.367 93.0188 124.057 94.2656 123.566 95.8731C123.34 96.7727 123.161 97.5328 122.894 98.3366C122.759 98.6536 122.627 98.7864 122.222 98.9231" stroke="#FFFDF4" stroke-width="2.2" stroke-linecap="round"/>
<path d="M122.222 98.9231C123.959 99.1899 125.833 99.5479 126.911 99.816C127.356 99.8616 128.558 100.039 130.121 100.351C130.711 100.486 130.888 100.575 131.07 100.666" stroke="#FFFDF4" stroke-width="2.2" stroke-linecap="round"/>
<path d="M131.07 100.666C131.159 100.134 131.515 98.4405 131.806 97.0736C132.095 96.2069 132.365 95.4843 132.499 95.0606C132.545 94.8582 132.545 94.6812 132.545 94.4989" stroke="#FFFDF4" stroke-width="2.2" stroke-linecap="round"/>
<path d="M132.545 94.4989C131.743 94.3206 130.762 93.9653 129.067 93.4062C126.871 92.8016 126.069 92.5335 125.152 92.2653C124.906 92.2197 124.64 92.2197 124.367 92.2197" stroke="#FFFDF4" stroke-width="2.2" stroke-linecap="round"/>
<path d="M123.16 78.2767C124.141 79.3921 124.677 80.1054 125.835 81.798C126.857 83.5295 127.671 84.8876 128.073 85.4453C128.253 85.6933 128.386 85.8703 128.656 86.3208" stroke="#FFFDF4" stroke-width="2.2" stroke-linecap="round"/>
<path d="M128.656 86.3207C129.234 85.8314 130.482 84.9398 131.869 84.0228C132.582 83.5107 133.123 83.1045 133.48 82.837C133.66 82.7023 133.837 82.5695 134.019 82.2987" stroke="#FFFDF4" stroke-width="2.2" stroke-linecap="round"/>
<path d="M134.02 82.2987C133.798 81.8107 132.995 80.7382 131.946 79.3103C131.117 78.1011 130.225 76.8529 129.019 75.4217C128.748 75.106 128.571 74.8848 128.121 74.3887" stroke="#FFFDF4" stroke-width="2.2" stroke-linecap="round"/>
<path d="M128.121 74.3887C128.032 74.4772 127.81 74.6998 127.232 75.167C126.831 75.4572 126.211 75.8554 125.583 76.3924C124.954 76.9293 124.335 77.5929 123.428 78.5448" stroke="#FFFDF4" stroke-width="2.2" stroke-linecap="round"/>
<path d="M109.351 64.7358C109.794 65.3123 110.689 66.83 112.138 69.396C112.477 69.9618 112.654 70.2273 112.789 70.4967C112.925 70.7662 113.013 71.0317 112.97 71.4392" stroke="#FFFDF4" stroke-width="2.2" stroke-linecap="round"/>
<path d="M112.971 71.4392C113.192 71.1724 114.083 70.549 117.849 68.1861C118.644 67.6867 118.821 67.5539 119.001 67.4413C119.181 67.3287 119.358 67.2402 119.808 66.7468" stroke="#FFFDF4" stroke-width="2.2" stroke-linecap="round"/>
<path d="M119.808 66.7469C118.873 65.6783 117.357 63.8966 116.347 62.6169C115.968 62.1483 115.653 61.6992 115.385 61.2977C115.251 61.1173 115.118 60.9846 114.847 60.4457" stroke="#FFFDF4" stroke-width="2.2" stroke-linecap="round"/>
<path d="M114.848 60.4457C113.609 61.596 112.75 62.277 112.237 62.5659C111.947 62.7664 111.593 63.0761 111.211 63.3905C110.83 63.7049 110.432 64.0145 109.619 64.4677" stroke="#FFFDF4" stroke-width="2.2" stroke-linecap="round"/>
<path d="M147.426 78.4107C147.647 78.8103 148.362 79.7916 148.988 80.7529C149.68 81.8156 149.794 82.6526 150.24 83.5911C150.374 83.8164 150.507 83.9933 150.62 84.173C150.732 84.3526 150.821 84.5296 150.912 84.5779" stroke="#FFFDF4" stroke-width="2.2" stroke-linecap="round"/>
<path d="M150.912 84.5779C152.021 84.3124 154.435 83.508 155.467 83.1045C155.692 83.0146 155.913 82.9261 156.115 82.8142C156.318 82.7022 156.495 82.5695 156.945 82.4328" stroke="#FFFDF4" stroke-width="2.2" stroke-linecap="round"/>
<path d="M156.945 82.4328C156.9 82.3 156.856 82.1673 156.369 81.4132C155.882 80.6591 154.952 79.2875 154.319 78.2713C153.685 77.2551 153.376 76.6357 152.789 75.7294" stroke="#FFFDF4" stroke-width="2.2" stroke-linecap="round"/>
<path d="M152.789 75.7294C152.39 75.9064 151.585 76.5311 149.825 77.6244C148.456 78.2311 147.964 78.5435 147.652 78.7888C147.473 78.9014 147.252 78.9899 146.89 79.0811" stroke="#FFFDF4" stroke-width="2.2" stroke-linecap="round"/>
<path d="M162.04 60.5797C161.996 61.0248 161.64 62.0035 161.304 63.123C160.789 64.1969 160.08 66.3285 159.738 67.7939C159.716 67.9963 159.672 68.1733 159.358 68.2216" stroke="#FFFDF4" stroke-width="2.2" stroke-linecap="round"/>
<path d="M159.358 68.2216C160.155 68.3101 161.848 68.8423 163.925 69.6018C164.718 69.8746 164.984 69.9189 165.209 69.9859C165.434 70.053 165.611 70.1414 165.526 70.0985" stroke="#FFFDF4" stroke-width="2.2" stroke-linecap="round"/>
<path d="M165.526 70.0985C165.659 69.6092 166.37 68.3637 166.82 67.3093C167.536 65.9451 168.159 64.6983 168.697 63.6888C168.788 63.4863 168.832 63.3094 168.878 62.993" stroke="#FFFDF4" stroke-width="2.2" stroke-linecap="round"/>
<path d="M168.877 62.993C167.673 62.5921 166.604 62.3226 165.597 62.145C164.366 61.7863 163.474 61.6536 162.716 61.4304C162.399 61.3399 162.222 61.2957 161.906 60.9819" stroke="#FFFDF4" stroke-width="2.2" stroke-linecap="round"/>
<path d="M105.731 114.609C105.064 116.66 104.348 118.178 103.901 119.498C103.81 119.791 103.766 120.012 103.743 120.214C103.72 120.417 103.72 120.594 103.72 120.642" stroke="#FFFDF4" stroke-width="2.2" stroke-linecap="round"/>
<path d="M103.72 120.642C104.746 120.865 105.726 121.133 106.865 121.489C108.724 121.983 109.26 122.071 109.661 122.227C109.885 122.295 110.15 122.339 110.29 122.519" stroke="#FFFDF4" stroke-width="2.2" stroke-linecap="round"/>
<path d="M110.29 122.519C110.334 122.208 110.424 121.495 110.69 120.557C111.314 118.595 112.298 116.623 112.857 116.019C113.014 115.905 113.191 115.861 113.373 115.682" stroke="#FFFDF4" stroke-width="2.2" stroke-linecap="round"/>
<path d="M113.373 115.682C112.751 115.682 110.617 115.328 109.287 115.079C108.732 114.88 107.882 114.61 106.945 114.387C106.538 114.297 106.273 114.252 105.597 114.073" stroke="#FFFDF4" stroke-width="2.2" stroke-linecap="round"/>
<path d="M105.597 98.655C107.109 100.97 108.812 103.208 109.505 104.081C109.706 104.327 109.928 104.637 110.13 104.841C110.332 105.045 110.509 105.133 110.692 105.224" stroke="#FFFDF4" stroke-width="2.2" stroke-linecap="round"/>
<path d="M110.692 105.224C111.09 104.825 112.606 103.932 114.194 103.105C114.533 102.902 114.754 102.725 115.001 102.59C115.248 102.454 115.513 102.366 115.921 102.141" stroke="#FFFDF4" stroke-width="2.2" stroke-linecap="round"/>
<path d="M115.92 102.141C115.564 101.159 115.03 100.269 114.493 99.3515C113.51 97.6776 112.75 96.156 112.348 95.5312C112.168 95.2604 112.035 95.0834 111.898 94.9011" stroke="#FFFDF4" stroke-width="2.2" stroke-linecap="round"/>
<path d="M111.898 94.9011C110.426 96.0165 109.533 96.4643 108.328 97.1105C107.747 97.3572 107.297 97.4926 106.94 97.626C106.761 97.7152 106.584 97.8479 105.999 97.8506" stroke="#FFFDF4" stroke-width="2.2" stroke-linecap="round"/>
<path d="M139.65 89.5384C140.405 90.5613 141.747 92.0803 142.663 93.3104C142.866 93.5591 142.999 93.6918 143.156 93.8487C143.313 94.0055 143.49 94.1825 143.672 94.3648" stroke="#FFFDF4" stroke-width="2.2" stroke-linecap="round"/>
<path d="M143.672 94.3648C144.293 93.8339 145.635 92.579 146.373 91.9321C146.796 91.5092 147.201 91.1485 147.757 90.7483C148.135 90.4809 148.711 90.0827 149.303 89.6724" stroke="#FFFDF4" stroke-width="2.2" stroke-linecap="round"/>
<path d="M139.382 89.2702C139.604 89.0034 140.761 88.2031 141.77 87.3068C142.465 86.7243 142.955 86.3221 143.379 86.0546C143.581 85.9199 143.758 85.7872 144.209 85.5163" stroke="#FFFDF4" stroke-width="2.2" stroke-linecap="round"/>
<path d="M144.209 85.5163C144.474 85.7818 144.832 86.1398 145.278 86.5855C145.724 87.0313 146.394 87.6132 147.242 88.3264C147.646 88.6857 148 89.0396 148.365 89.4043" stroke="#FFFDF4" stroke-width="2.2" stroke-linecap="round"/>
<path d="M128.255 62.1885C128.967 62.277 130.48 62.6336 132.315 63.0808C133.615 63.2611 134.331 63.3053 134.732 63.3724C134.956 63.3951 135.221 63.3951 135.495 63.3951" stroke="#FFFDF4" stroke-width="2.2" stroke-linecap="round"/>
<path d="M135.494 63.3952C135.759 61.7126 136.475 58.1263 136.588 57.3648C136.655 57.0082 136.745 56.6046 136.834 56.181C136.879 55.9785 136.923 55.8016 136.968 55.4852" stroke="#FFFDF4" stroke-width="2.2" stroke-linecap="round"/>
<path d="M136.969 55.4851C136.704 55.4851 135.24 55.4409 132.875 55.2854C131.837 55.1741 131.129 54.9971 130.388 54.906C129.648 54.8148 128.896 54.8148 128.121 54.8148" stroke="#FFFDF4" stroke-width="2.2" stroke-linecap="round"/>
<path d="M128.121 54.8148C128.121 54.9033 127.855 56.0992 127.431 57.9527C127.272 58.6558 127.228 58.8771 127.205 59.2122C127.182 59.5474 127.182 59.9898 127.048 60.4457" stroke="#FFFDF4" stroke-width="2.2" stroke-linecap="round"/>
<path d="M142.332 62.3226C142.332 62.5881 142.332 64.0963 142.354 66.3071C142.421 67.4118 142.466 68.2162 142.532 69.087C142.599 69.4269 142.732 69.5596 142.868 69.6963" stroke="#FFFDF4" stroke-width="2.2" stroke-linecap="round"/>
<path d="M142.868 69.6963C143.797 69.6963 144.726 69.6963 145.912 69.6963C147.099 69.6963 148.515 69.6963 149.839 69.5623" stroke="#FFFDF4" stroke-width="2.2" stroke-linecap="round"/>
<path d="M149.839 60.9819V69.5623" stroke="#FFFDF4" stroke-width="2.2" stroke-linecap="round"/>
<path d="M149.84 61.116C148.594 61.2045 145.834 61.3841 143.857 61.6509C143.497 61.7408 143.187 61.8292 142.785 61.8748C142.382 61.9204 141.895 61.9204 141.394 61.9204" stroke="#FFFDF4" stroke-width="2.2" stroke-linecap="round"/>
<path d="M172.095 94.3648L173.569 100.532" stroke="#FFFDF4" stroke-width="2.2" stroke-linecap="round"/>
<path d="M172.095 93.6945C173.516 93.1609 175.666 92.6219 177.673 92.1105C178.169 91.9529 178.479 91.8202 178.727 91.7297C178.975 91.6392 179.152 91.595 179.603 91.1472" stroke="#FFFDF4" stroke-width="2.2" stroke-linecap="round"/>
<path d="M179.603 91.1472C180.046 92.5683 180.852 94.7188 181.099 95.7015C181.39 96.7754 181.568 97.5355 181.614 97.9149C181.571 98.0731 181.394 98.1616 181.211 98.2528" stroke="#FFFDF4" stroke-width="2.2" stroke-linecap="round"/>
<path d="M181.211 98.2528C178.22 99.1457 177.149 99.5023 176.032 99.8824C175.762 99.9943 175.54 100.127 175.338 100.24C175.136 100.352 174.959 100.441 174.374 100.532" stroke="#FFFDF4" stroke-width="2.2" stroke-linecap="round"/>
<path d="M163.917 112.598C163.961 115.098 164.228 116.078 164.43 117.441C164.453 118.529 164.497 119.389 164.564 119.856C164.587 120.103 164.587 120.369 164.587 120.642" stroke="#FFFDF4" stroke-width="2.2" stroke-linecap="round"/>
<path d="M164.587 120.642C164.986 120.642 166.764 120.465 168.268 120.263C169.62 120.24 170.663 120.151 171.13 120.017C171.42 119.972 171.819 119.972 172.095 119.704" stroke="#FFFDF4" stroke-width="2.2" stroke-linecap="round"/>
<path d="M172.095 119.704C171.829 118.819 171.604 117.788 171.426 116.806C171.336 116.399 171.247 116.178 171.202 115.356C171.156 114.534 171.156 113.118 171.156 111.66" stroke="#FFFDF4" stroke-width="2.2" stroke-linecap="round"/>
<path d="M171.156 111.66C169.739 111.66 166.603 111.837 165.463 111.972C165.214 112.016 165.038 112.105 164.836 112.172C164.634 112.24 164.413 112.284 164.051 112.33" stroke="#FFFDF4" stroke-width="2.2" stroke-linecap="round"/>
<path d="M162.779 78.5619C162.867 78.739 162.913 79.0958 162.935 79.6532C163.002 80.2548 163.136 80.8397 163.27 81.8619C163.315 82.6185 163.315 83.858 163.315 85.1351" stroke="#FFFDF4" stroke-width="2.2" stroke-linecap="round"/>
<path d="M163.315 85.1351C163.895 85.0009 164.874 84.9124 167.931 84.2658C168.72 84.1075 169.296 84.019 170.168 83.9734C171.04 83.9277 172.191 83.9277 173.376 83.6595" stroke="#FFFDF4" stroke-width="2.2" stroke-linecap="round"/>
<path d="M173.377 83.6595C173.332 82.5917 172.977 80.4507 172.818 79.3695C172.706 78.476 172.662 77.4914 172.595 76.9562C172.572 76.6865 172.572 76.4209 172.572 76.1473" stroke="#FFFDF4" stroke-width="2.2" stroke-linecap="round"/>
<path d="M172.572 76.1473C172.041 76.1473 169.908 76.5457 166.847 77.2379C164.17 78.0682 162.916 78.5606 162.403 78.806C162.155 78.9187 161.934 79.0073 161.572 79.0985" stroke="#FFFDF4" stroke-width="2.2" stroke-linecap="round"/>
<path d="M116.633 109.818C117.164 110.795 118.597 112.852 119.246 113.75C119.447 113.974 119.713 114.239 119.916 114.443C120.119 114.646 120.252 114.779 120.389 114.916" stroke="#FFFDF4" stroke-width="2.2" stroke-linecap="round"/>
<path d="M120.389 114.916C120.654 114.516 121.813 113.357 122.666 112.593C123.422 111.917 124.185 111.253 125.058 110.446C125.261 110.31 125.438 110.266 125.596 110.177C125.753 110.088 125.886 109.955 126.291 109.818" stroke="#FFFDF4" stroke-width="2.2" stroke-linecap="round"/>
<path d="M126.291 109.818C125.89 109.417 124.646 108.439 123.678 107.562C122.804 107.002 121.738 106.29 120.437 105.216C120.167 104.99 119.946 104.857 119.449 104.586" stroke="#FFFDF4" stroke-width="2.2" stroke-linecap="round"/>
<path d="M119.45 104.586C119.05 104.763 118.157 105.388 116.683 106.861C116.233 107.444 115.963 107.849 115.718 108.206C115.605 108.385 115.517 108.562 115.425 108.745" stroke="#FFFDF4" stroke-width="2.2" stroke-linecap="round"/>
<path d="M147.356 114.775C147.356 114.869 147.262 115.153 147.073 115.721C146.977 116.054 146.883 116.477 146.576 117.755C146.268 119.032 145.751 121.149 145.075 123.474" stroke="#FFFDF4" stroke-width="2.2" stroke-linecap="round"/>
<path d="M145.075 123.474C145.923 123.568 148.58 124.136 150.227 124.471C150.962 124.566 151.726 124.756 152.414 124.993C152.726 125.09 152.961 125.137 153.489 125.185" stroke="#FFFDF4" stroke-width="2.2" stroke-linecap="round"/>
<path d="M154.344 125.043C154.344 124.475 154.438 123.525 154.865 122.48C155.294 121.432 155.437 120.53 155.745 119.509C155.864 119.01 156.007 118.579 156.22 118.224C156.339 118.056 156.481 117.915 156.626 117.342" stroke="#FFFDF4" stroke-width="2.2" stroke-linecap="round"/>
<path d="M156.626 117.342C155.726 116.915 154.68 116.346 153.564 115.964C152.58 115.627 151.306 115.488 150.473 115.204C150.258 115.108 150.023 115.014 149.596 114.919C149.168 114.823 148.557 114.729 147.641 114.632" stroke="#FFFDF4" stroke-width="2.2" stroke-linecap="round"/>
</svg>
