<svg width="198" height="180" viewBox="0 0 198 180" fill="none" xmlns="http://www.w3.org/2000/svg">
<path d="M42.6048 71.8459C42.6048 72.8707 43.4794 75.2206 44.9547 77.3608C45.283 77.8369 45.9796 77.8798 46.5715 77.6634C49.265 76.6784 49.0805 72.8883 48.9391 69.942C48.8794 68.6971 46.006 68.7538 43.7245 69.0453C42.8577 69.1561 42.7549 69.9199 42.607 70.5847C42.459 71.2495 42.3132 71.9784 42.5297 72.6454C42.9877 74.0568 44.8045 74.9335 46.4213 75.5961C47.1389 75.8902 47.7464 75.8214 48.2655 75.6027C49.3342 75.1525 50.1097 73.9131 50.6994 72.7381C50.9736 72.1919 50.706 71.5631 50.2665 71.2628C49.827 70.9624 49.0981 70.9624 48.5769 71.2539C48.0556 71.5455 47.7641 72.1285 47.6868 72.7205C47.5344 73.8875 48.4885 75.0793 49.6635 76.0356C50.2063 76.4774 50.8385 76.5547 51.4305 76.2653C52.8273 75.5825 53.352 73.9131 53.5728 72.6652C53.8161 71.2909 53.0648 69.7918 51.817 68.4688C50.6273 67.2076 48.7978 66.8411 47.181 66.6931C46.442 66.6255 45.8559 66.8367 45.3368 67.2033C44.236 67.9809 43.6384 69.4826 43.1967 71.0971C42.6921 72.9413 43.9211 75.0749 45.6107 76.9124C48.2017 79.7303 51.2847 79.3552 52.6805 79.1365C53.374 79.0279 53.9306 78.4806 54.3039 77.9638C55.0159 76.9778 54.9731 75.3885 54.6815 73.6989C54.5344 72.8459 53.8069 72.1551 52.8506 71.7796C51.8943 71.4041 50.5823 71.4041 49.615 71.6957C47.9105 72.2093 47.1722 73.8999 46.7305 75.4415C46.5028 76.2361 46.5803 77.1289 46.9447 77.5795C47.3092 78.03 48.038 78.03 48.6321 77.6656C49.2262 77.3012 49.6635 76.5723 49.8888 75.8324C50.1141 75.0925 50.1141 74.3637 49.8226 73.6238C49.531 72.8839 48.9479 72.1551 48.2102 71.7796C47.4726 71.4041 46.598 71.4041 45.9287 71.7685C45.2595 72.133 44.8222 72.8618 45.2551 74.0545" stroke="#FFFDF4" stroke-width="2" stroke-linecap="round"/>
<path d="M94.2678 49.5157C94.2678 50.5405 95.1424 52.8905 96.6178 55.0306C96.9461 55.5068 97.6426 55.5497 98.2345 55.3332C100.928 54.3483 100.744 50.5582 100.602 47.6118C100.542 46.367 97.6691 46.4236 95.3876 46.7151C94.5208 46.8259 94.418 47.5897 94.2701 48.2545C94.1221 48.9193 93.9763 49.6482 94.1928 50.3152C94.6508 51.7266 96.4676 52.6033 98.0844 53.2659C98.802 53.56 99.4095 53.4912 99.9286 53.2726C100.997 52.8223 101.773 51.583 102.362 50.408C102.637 49.8617 102.369 49.233 101.93 48.9326C101.49 48.6322 100.761 48.6322 100.24 48.9238C99.7187 49.2153 99.4272 49.7984 99.3499 50.3903C99.1975 51.5574 100.152 52.7491 101.327 53.7055C101.869 54.1472 102.502 54.2245 103.094 53.9352C104.49 53.2524 105.015 51.583 105.236 50.3351C105.479 48.9608 104.728 47.4616 103.48 46.1387C102.29 44.8774 100.461 44.5109 98.8441 44.3629C98.1051 44.2953 97.5189 44.5065 96.9999 44.8731C95.8991 45.6507 95.3015 47.1524 94.8597 48.767C94.3552 50.6111 95.5842 52.7447 97.2738 54.5823C99.8648 57.4002 102.948 57.025 104.344 56.8064C105.037 56.6977 105.594 56.1504 105.967 55.6336C106.679 54.6476 106.636 53.0583 106.345 51.3687C106.197 50.5158 105.47 49.8249 104.514 49.4494C103.557 49.0739 102.245 49.0739 101.278 49.3655C99.5736 49.8792 98.8353 51.5697 98.3936 53.1113C98.1659 53.9059 98.2434 54.7987 98.6078 55.2493C98.9722 55.6998 99.7011 55.6998 100.295 55.3354C100.889 54.971 101.327 54.2421 101.552 53.5023C101.777 52.7624 101.777 52.0335 101.486 51.2936C101.194 50.5537 100.611 49.8249 99.8733 49.4494C99.1357 49.0739 98.261 49.0739 97.5918 49.4384C96.9226 49.8028 96.4853 50.5316 96.9182 51.7243" stroke="#FFFDF4" stroke-width="2" stroke-linecap="round"/>
<path d="M145.931 31.6766C145.931 32.7014 146.806 35.0514 148.281 37.1916C148.609 37.6677 149.306 37.7106 149.898 37.4942C152.591 36.5092 152.407 32.7191 152.265 29.7728C152.206 28.5279 149.332 28.5845 147.051 28.8761C146.184 28.9868 146.081 29.7507 145.933 30.4155C145.785 31.0803 145.639 31.8091 145.856 32.4761C146.314 33.8876 148.131 34.7643 149.747 35.4269C150.465 35.721 151.073 35.6522 151.592 35.4335C152.66 34.9833 153.436 33.7439 154.026 32.5689C154.3 32.0226 154.032 31.3939 153.593 31.0935C153.153 30.7932 152.424 30.7932 151.903 31.0847C151.382 31.3763 151.09 31.9593 151.013 32.5512C150.861 33.7183 151.815 34.9101 152.99 35.8664C153.532 36.3081 154.165 36.3854 154.757 36.0961C156.153 35.4133 156.678 33.7439 156.899 32.496C157.142 31.1217 156.391 29.6226 155.143 28.2996C153.953 27.0384 152.124 26.6719 150.507 26.5239C149.768 26.4562 149.182 26.6674 148.663 27.0341C147.562 27.8117 146.965 29.3134 146.523 30.9279C146.018 32.7721 147.247 34.9057 148.937 36.7432C151.528 39.5611 154.611 39.186 156.007 38.9673C156.7 38.8587 157.257 38.3114 157.63 37.7945C158.342 36.8086 158.299 35.2193 158.008 33.5297C157.861 32.6767 157.133 31.9858 156.177 31.6104C155.22 31.2349 153.909 31.2349 152.941 31.5264C151.237 32.0401 150.498 33.7307 150.057 35.2723C149.829 36.0668 149.906 36.9597 150.271 37.4102C150.635 37.8608 151.364 37.8608 151.958 37.4964C152.552 37.1319 152.99 36.4031 153.215 35.6632C153.44 34.9233 153.44 34.1945 153.149 33.4546C152.857 32.7147 152.274 31.9858 151.536 31.6104C150.799 31.2349 149.924 31.2349 149.255 31.5993C148.586 31.9637 148.148 32.6926 148.581 33.8853" stroke="#FFFDF4" stroke-width="2" stroke-linecap="round"/>
<path d="M49.4146 67.9962C48.754 69.8818 48.564 73.826 49.4572 76.4503C49.7586 77.336 51.0167 77.4469 52.0999 77.5887C53.453 77.7658 54.6093 77.3562 55.2232 76.7437C55.5129 76.4547 55.5563 76.0377 55.2771 75.7045C53.6627 73.7787 51.1216 74.1407 50.1306 74.2329C49.6646 74.2762 49.4203 74.8865 49.4628 75.3146C49.5054 75.7428 49.8797 76.1171 50.2596 76.2631C50.6396 76.4092 51.0139 76.3156 51.347 76.0334C51.6802 75.7513 51.9609 75.2835 52.1055 74.7617C52.2502 74.24 52.2502 73.6786 51.9694 73.0618C51.3375 71.6736 50.1745 70.8345 49.4203 70.3156C48.7069 69.8248 47.8126 69.6975 46.9166 69.8846C46.4591 69.9802 46.1141 70.4461 45.8745 70.8728C45.4071 71.7052 45.5385 72.6237 45.8674 73.2844C46.5866 74.729 48.3712 74.6114 49.1722 74.6129C51.1781 74.6164 51.5866 72.1587 51.7766 71.4045C50.9316 69.7967 49.7946 68.4726 49.2303 67.9055C48.8532 67.7126 48.2918 67.7126 47.7133 67.7126" stroke="#FFFDF4" stroke-width="2" stroke-linecap="round"/>
<path d="M101.078 45.666C100.417 47.5516 100.227 51.4958 101.12 54.1201C101.422 55.0058 102.68 55.1168 103.763 55.2586C105.116 55.4357 106.272 55.026 106.886 54.4136C107.176 54.1245 107.219 53.7075 106.94 53.3744C105.326 51.4485 102.785 51.8106 101.794 51.9027C101.328 51.9461 101.083 52.5563 101.126 52.9845C101.168 53.4126 101.543 53.7869 101.923 53.933C102.303 54.079 102.677 53.9854 103.01 53.7033C103.343 53.4211 103.624 52.9533 103.769 52.4316C103.913 51.9098 103.913 51.3484 103.633 50.7317C103.001 49.3434 101.838 48.5044 101.083 47.9855C100.37 47.4947 99.4757 47.3673 98.5796 47.5545C98.1222 47.65 97.7772 48.1159 97.5376 48.5426C97.0702 49.375 97.2016 50.2936 97.5305 50.9543C98.2497 52.3989 100.034 52.2813 100.835 52.2827C102.841 52.2862 103.25 49.8286 103.44 49.0743C102.595 47.4666 101.458 46.1424 100.893 45.5753C100.516 45.3825 99.9549 45.3825 99.3764 45.3825" stroke="#FFFDF4" stroke-width="2" stroke-linecap="round"/>
<path d="M152.741 27.8269C152.08 29.7126 151.89 33.6568 152.783 36.281C153.085 37.1667 154.343 37.2777 155.426 37.4195C156.779 37.5966 157.935 37.187 158.549 36.5745C158.839 36.2855 158.883 35.8685 158.603 35.5353C156.989 33.6095 154.448 33.9715 153.457 34.0637C152.991 34.107 152.746 34.7172 152.789 35.1454C152.832 35.5736 153.206 35.9478 153.586 36.0939C153.966 36.2399 154.34 36.1463 154.673 35.8642C155.006 35.5821 155.287 35.1142 155.432 34.5925C155.576 34.0707 155.576 33.5093 155.296 32.8926C154.664 31.5043 153.501 30.6653 152.746 30.1464C152.033 29.6556 151.139 29.5283 150.243 29.7154C149.785 29.8109 149.44 30.2768 149.201 30.7036C148.733 31.536 148.865 32.4545 149.194 33.1152C149.913 34.5598 151.697 34.4422 152.498 34.4436C154.504 34.4472 154.913 31.9895 155.103 31.2352C154.258 29.6275 153.121 28.3033 152.557 27.7362C152.179 27.5434 151.618 27.5434 151.039 27.5434" stroke="#FFFDF4" stroke-width="2" stroke-linecap="round"/>
<path d="M46.8625 78.7711C46.8625 80.4583 46.5818 83.5887 45.9693 84.1076C44.6932 85.1887 42.4334 85.8542 40.5833 86.3774C38.4434 86.9825 37.1367 88.6897 35.7615 89.8721C34.2864 91.1404 32.9742 92.0923 31.8386 93.4633C30.7062 94.8304 28.6302 95.7785 27.3939 96.1613C25.8033 96.6538 31.4487 96.2605 33.4789 95.597C36.3271 94.6662 37.5961 94.9335 37.8825 94.9335C39.5807 94.9335 32.2426 94.65 30.4662 93.7554C28.8807 92.9569 26.8325 95.2114 25.8812 96.347C25.6981 96.5655 26.1576 96.9127 26.5829 97.1041C28.6373 98.0285 30.8816 97.2983 33.1486 96.6845C35.024 96.1766 37.4883 96.0677 40.3791 97.0077C42.5514 97.7141 42.0421 106.213 41.7132 110.759C41.6506 111.623 41.1915 113.631 41.1447 116.37C41.1202 117.806 40.9079 122.676 40.8144 129.856C40.7793 132.545 40.5337 133.292 40.4372 136.579C40.1707 145.663 40.4344 152.018 40.7165 152.772C40.8651 153.17 41.1858 153.527 41.424 153.485C42.9009 153.23 42.6036 146.869 43.0799 142.301C43.3777 139.445 44.4949 135.878 45.3441 132.107C46.1853 128.372 46.4825 122.571 46.8597 116.571C47.0206 114.011 47.5232 113.274 47.8053 112.566C48.0915 111.848 48.8445 111.382 49.3634 111.144C50.5715 110.59 50.1687 113.829 50.3587 115.437C50.5985 117.466 51.2065 119.682 51.87 127.256C52.2514 131.609 51.9664 139.111 52.06 143.295C52.1684 148.14 52.5335 149.744 52.7207 151.349C52.8012 152.039 53.2821 152.392 53.7089 152.585C54.1356 152.778 54.6035 152.778 54.9848 152.45C56.7815 150.908 56.2197 148.252 56.455 141.861C56.6139 137.548 56.5033 129.686 56.55 125.449C56.6904 120.839 56.8804 119.798 57.0221 114.829C57.0703 110.515 57.0703 102.561 57.0703 94.3664" stroke="#FFFDF4" stroke-width="2" stroke-linecap="round"/>
<path d="M98.5256 56.4409C98.5256 58.1281 98.2449 61.2585 97.6324 61.7774C96.3563 62.8586 94.0965 63.5241 92.2464 64.0472C90.1065 64.6523 88.7998 66.3596 87.4246 67.542C85.9495 68.8102 84.6373 69.7622 83.5016 71.1331C82.3693 72.5002 80.2933 73.4483 79.057 73.8311C77.4664 74.3236 83.1118 73.9304 85.142 73.2669C87.9901 72.336 89.2592 72.6034 89.5455 72.6034C91.2438 72.6034 83.9057 72.3198 82.1293 71.4252C80.5438 70.6268 78.4956 72.8812 77.5442 74.0169C77.3612 74.2353 77.8207 74.5825 78.246 74.7739C80.3003 75.6984 82.5447 74.9682 84.8117 74.3543C86.6871 73.8464 89.1514 73.7376 92.0422 74.6775C94.2145 75.3839 93.7052 83.883 93.3763 88.4283C93.3137 89.2933 92.8546 91.3007 92.8078 94.0398C92.7833 95.4756 92.571 100.346 92.4775 107.525C92.4424 110.215 92.1967 110.962 92.1003 114.248C91.8338 123.333 92.0975 129.688 92.3796 130.442C92.5282 130.839 92.8489 131.196 93.0871 131.155C94.564 130.9 94.2667 124.539 94.743 119.971C95.0408 117.115 96.158 113.548 97.0072 109.777C97.8483 106.042 98.1456 100.241 98.5228 94.2411C98.6837 91.6805 99.1863 90.9434 99.4684 90.236C99.7546 89.5182 100.508 89.0522 101.027 88.814C102.235 88.2595 101.832 91.4992 102.022 93.1069C102.262 95.1361 102.87 97.3517 103.533 104.925C103.915 109.279 103.63 116.781 103.723 120.964C103.831 125.81 104.197 127.414 104.384 129.019C104.464 129.709 104.945 130.062 105.372 130.255C105.799 130.448 106.267 130.448 106.648 130.12C108.445 128.577 107.883 125.922 108.118 119.531C108.277 115.218 108.166 107.355 108.213 103.119C108.353 98.5086 108.543 97.4679 108.685 92.4987C108.733 88.1845 108.733 80.2309 108.733 72.0363" stroke="#FFFDF4" stroke-width="2" stroke-linecap="round"/>
<path d="M150.189 38.6019C150.189 40.289 149.908 43.4194 149.295 43.9383C148.019 45.0195 145.76 45.685 143.909 46.2081C141.77 46.8132 140.463 48.5205 139.088 49.7029C137.613 50.9712 136.3 51.9231 135.165 53.2941C134.032 54.6611 131.956 55.6093 130.72 55.9921C129.129 56.4846 134.775 56.0913 136.805 55.4278C139.653 54.497 140.922 54.7643 141.209 54.7643C142.907 54.7643 135.569 54.4807 133.792 53.5861C132.207 52.7877 130.159 55.0422 129.207 56.1778C129.024 56.3962 129.484 56.7435 129.909 56.9349C131.963 57.8593 134.208 57.1291 136.475 56.5152C138.35 56.0074 140.814 55.8985 143.705 56.8385C145.878 57.5448 145.368 66.0439 145.039 70.5893C144.977 71.4542 144.518 73.4616 144.471 76.2007C144.446 77.6365 144.234 82.5069 144.141 89.6864C144.105 92.3759 143.86 93.123 143.763 96.4094C143.497 105.494 143.761 111.849 144.043 112.603C144.191 113 144.512 113.357 144.75 113.316C146.227 113.061 145.93 106.699 146.406 102.131C146.704 99.2759 147.821 95.709 148.67 91.9378C149.511 88.2024 149.809 82.402 150.186 76.4021C150.347 73.8415 150.849 73.1044 151.131 72.3969C151.418 71.6792 152.171 71.2131 152.69 70.9749C153.898 70.4204 153.495 73.6601 153.685 75.2678C153.925 77.297 154.533 79.5126 155.196 87.0863C155.578 91.4402 155.293 98.9415 155.386 103.125C155.495 107.971 155.86 109.575 156.047 111.18C156.127 111.87 156.608 112.223 157.035 112.416C157.462 112.609 157.93 112.609 158.311 112.281C160.108 110.738 159.546 108.083 159.781 101.692C159.94 97.379 159.829 89.5163 159.876 85.28C160.017 80.6695 160.207 79.6289 160.348 74.6596C160.397 70.3454 160.397 62.3918 160.397 54.1972" stroke="#FFFDF4" stroke-width="2" stroke-linecap="round"/>
<path d="M57.0703 94.3664C57.1639 94.3664 57.2575 94.3664 57.4928 94.2728C57.7281 94.1793 58.1024 93.9921 58.4356 93.7554C58.7688 93.5186 59.0495 93.2379 59.0552 93.5158" stroke="#FFFDF4" stroke-width="2" stroke-linecap="round"/>
<path d="M108.733 72.0363C108.827 72.0363 108.921 72.0363 109.156 71.9427C109.391 71.8491 109.766 71.662 110.099 71.4252C110.432 71.1885 110.713 70.9077 110.718 71.1856" stroke="#FFFDF4" stroke-width="2" stroke-linecap="round"/>
<path d="M160.396 54.1972C160.49 54.1972 160.584 54.1972 160.819 54.1036C161.054 54.0101 161.429 53.8229 161.762 53.5861C162.095 53.3494 162.376 53.0687 162.381 53.3465" stroke="#FFFDF4" stroke-width="2" stroke-linecap="round"/>
<path d="M59.0553 93.5158C61.4116 95.8721 63.4901 97.5762 65.757 97.6754C66.8325 97.7225 67.7462 97.0148 68.5018 96.5441C68.8447 96.3305 68.8832 95.8862 68.791 95.5063C68.3279 93.5966 65.9626 92.5744 64.4485 91.5351C62.762 90.3777 61.0459 89.081 60.1456 87.6136C59.305 86.2435 57.3654 85.2984 55.423 84.2096C53.8607 83.4043 52.3522 82.4629 50.838 81.092C50.4581 80.7588 50.0838 80.4781 49.9817 80.4724" stroke="#FFFDF4" stroke-width="2" stroke-linecap="round"/>
<path d="M110.718 71.1856C113.075 73.5419 115.153 75.2461 117.42 75.3453C118.496 75.3924 119.409 74.6846 120.165 74.2139C120.508 74.0003 120.546 73.5561 120.454 73.1761C119.991 71.2664 117.626 70.2442 116.112 69.205C114.425 68.0475 112.709 66.7509 111.809 65.2835C110.968 63.9134 109.028 62.9683 107.086 61.8795C105.524 61.0742 104.015 60.1328 102.501 58.7618C102.121 58.4287 101.747 58.1479 101.645 58.1423" stroke="#FFFDF4" stroke-width="2" stroke-linecap="round"/>
<path d="M162.381 53.3465C164.738 55.7028 166.816 57.407 169.083 57.5062C170.159 57.5533 171.072 56.8456 171.828 56.3749C172.171 56.1613 172.209 55.717 172.117 55.3371C171.654 53.4273 169.289 52.4051 167.775 51.3659C166.088 50.2084 164.372 48.9118 163.472 47.4444C162.631 46.0743 160.692 45.1292 158.749 44.0404C157.187 43.2351 155.678 42.2937 154.164 40.9228C153.784 40.5896 153.41 40.3089 153.308 40.3032" stroke="#FFFDF4" stroke-width="2" stroke-linecap="round"/>
<path d="M33.5349 92.9917C34.529 92.7309 37.0529 91.5756 39.7419 90.2307C41.0705 89.5663 41.7499 88.9395 42.8024 87.8332C43.9317 86.6463 45.644 85.096 46.8064 84.1446C47.7706 83.3554 48.337 82.9846 48.4429 82.5642C48.5486 82.1445 48.2327 81.7203 48.337 81.5085C48.7973 80.5739 49.6519 83.4524 50.4421 84.5065C51.0236 85.2823 52.2311 85.2983 53.1809 85.6152C53.7817 85.8156 54.3409 86.0901 54.6317 86.1169C55.3051 86.1791 52.3038 84.6756 50.8174 83.6705C49.8273 83.0009 48.9755 81.8277 48.4176 81.3496C47.1943 80.3014 51.3366 83.8759 52.6001 84.8487C53.5763 85.6002 54.548 86.1928 55.6305 86.9569C56.924 87.8699 58.7107 89.1418 59.8178 90.1169C61.0038 91.1615 62.0833 91.8285 62.9012 92.5152C63.6308 93.1278 64.5582 93.7787 65.3508 94.5168C66.1124 95.226 66.774 95.4666 66.8554 95.6246C67.5171 96.9095 64.3559 95.5203 63.7775 95.3899C62.5591 95.1153 62.0391 93.6807 61.3524 92.968C60.6126 92.2001 59.8265 91.5188 58.3267 90.8866C57.4393 90.5126 56.8222 90.2007 56.401 90.147C56.2341 90.1257 56.1884 90.4061 56.2137 90.6179C56.2659 91.0547 56.9723 91.7748 57.8668 92.5911C58.367 93.0475 56.8901 90.9056 53.9427 87.484C51.6867 84.8652 50.6602 84.8273 49.6337 84.6424C47.8893 84.3282 46.9209 85.2983 45.7878 85.6412C44.286 86.0958 43.5483 86.7744 42.574 87.1948C40.9495 87.8957 39.9134 88.3548 39.0956 88.6179C38.2262 88.8976 37.8052 89.9858 37.015 90.802C36.5613 91.2706 36.2753 91.7779 36.1955 92.1722C36.1584 92.3558 36.3765 92.5144 36.6135 92.4907C37.9616 92.3559 39.0094 91.4144 40.7186 90.6242C42.707 89.705 44.9075 88.9364 46.593 88.5942C47.3774 88.435 49.7404 88.4085 52.6128 88.3303C53.5064 88.3059 53.2425 88.0956 53.0039 87.9368C52.1185 87.3474 51.1343 87.0936 49.2718 86.855C48.258 86.7251 46.529 86.8281 46.19 86.8803C43.886 87.2347 49.9648 87.5646 52.1228 87.6705C53.5251 87.7393 54.2888 88.9838 54.9201 89.8538C55.7647 91.0175 56.4492 91.7258 56.5037 91.9368C56.8749 93.3732 52.0952 91.4113 48.7455 91.804C45.887 92.1392 44.4997 92.8842 42.5764 93.5946C41.4993 93.9924 40.5993 94.2023 39.5444 94.5444C38.1822 94.9863 36.593 94.5737 36.0936 94.2584C35.8512 94.1053 35.6463 93.9431 36.0343 93.7843C37.3434 93.2484 38.9035 93.3078 39.8755 93.2556C40.91 93.2001 43.836 92.9395 47.6013 92.8084C49.8949 92.7285 52.0636 91.9929 53.9695 91.7021C54.2946 91.6525 54.4974 91.5188 54.3441 91.3868C52.8892 90.1344 49.3579 90.6211 46.9755 90.8044C45.2654 90.936 44.2342 91.1995 43.3366 91.3054C42.8911 91.3579 45.9869 90.8913 51.2781 89.8641C54.9155 89.1579 56.966 89.6728 57.9774 89.6997C57.772 89.4137 57.3484 89.0944 56.928 88.9103C56.7163 88.8305 56.5077 88.7783 56.2927 88.7246" stroke="#FFFDF4" stroke-width="2" stroke-linecap="round"/>
<path d="M85.198 70.6616C86.1921 70.4008 88.716 69.2455 91.405 67.9006C92.7336 67.2361 93.4129 66.6094 94.4655 65.5031C95.5947 64.3162 97.307 62.7659 98.4694 61.8145C99.4337 61.0252 100 60.6544 100.106 60.234C100.212 59.8144 99.8958 59.3901 100 59.1783C100.46 58.2438 101.315 61.1222 102.105 62.1764C102.687 62.9521 103.894 62.9681 104.844 63.285C105.445 63.4855 106.004 63.7599 106.295 63.7868C106.968 63.849 103.967 62.3455 102.481 61.3403C101.49 60.6708 100.639 59.4976 100.081 59.0195C98.8574 57.9712 103 61.5458 104.263 62.5185C105.239 63.2701 106.211 63.8627 107.294 64.6268C108.587 65.5397 110.374 66.8117 111.481 67.7868C112.667 68.8314 113.746 69.4984 114.564 70.1851C115.294 70.7976 116.221 71.4486 117.014 72.1866C117.775 72.8959 118.437 73.1365 118.518 73.2945C119.18 74.5794 116.019 73.1902 115.441 73.0598C114.222 72.7852 113.702 71.3506 113.015 70.6378C112.276 69.87 111.49 69.1886 109.99 68.5565C109.102 68.1824 108.485 67.8706 108.064 67.8168C107.897 67.7955 107.852 68.076 107.877 68.2878C107.929 68.7246 108.635 69.4446 109.53 70.2609C110.03 70.7174 108.553 68.5754 105.606 65.1538C103.35 62.5351 102.323 62.4972 101.297 62.3123C99.5524 61.998 98.584 62.9681 97.4509 63.3111C95.9491 63.7656 95.2114 64.4442 94.2371 64.8646C92.6125 65.5656 91.5765 66.0246 90.7586 66.2878C89.8893 66.5675 89.4682 67.6556 88.678 68.4719C88.2244 68.9405 87.9384 69.4478 87.8586 69.8421C87.8214 70.0257 88.0396 70.1843 88.2766 70.1606C89.6247 70.0257 90.6725 69.0843 92.3817 68.2941C94.3701 67.3748 96.5706 66.6062 98.2561 66.2641C99.0404 66.1048 101.403 66.0784 104.276 66.0001C105.169 65.9758 104.906 65.7655 104.667 65.6066C103.782 65.0173 102.797 64.7635 100.935 64.5248C99.9211 64.3949 98.1921 64.498 97.8531 64.5501C95.5491 64.9046 101.628 65.2344 103.786 65.3403C105.188 65.4091 105.952 66.6536 106.583 67.5237C107.428 68.6874 108.112 69.3956 108.167 69.6066C108.538 71.0431 103.758 69.0811 100.409 69.4739C97.55 69.809 96.1628 70.5541 94.2395 71.2645C93.1624 71.6623 92.2624 71.8721 91.2075 72.2143C89.8453 72.6561 88.2561 72.2435 87.7567 71.9282C87.5143 71.7752 87.3094 71.613 87.6974 71.4541C89.0065 70.9182 90.5666 70.9776 91.5386 70.9255C92.5731 70.87 95.4991 70.6094 99.2644 70.4782C101.558 70.3983 103.727 69.6627 105.633 69.3719C105.958 69.3223 106.16 69.1886 106.007 69.0566C104.552 67.8043 101.021 68.2909 98.6385 68.4743C96.9285 68.6059 95.8973 68.8694 94.9997 68.9753C94.5542 69.0278 97.65 68.5612 102.941 67.5339C106.579 66.8277 108.629 67.3427 109.641 67.3696C109.435 67.0835 109.012 66.7643 108.591 66.5802C108.379 66.5003 108.171 66.4482 107.956 66.3945" stroke="#FFFDF4" stroke-width="2" stroke-linecap="round"/>
<path d="M136.861 52.8225C137.855 52.5617 140.379 51.4064 143.068 50.0615C144.397 49.397 145.076 48.7703 146.129 47.664C147.258 46.4771 148.97 44.9268 150.133 43.9754C151.097 43.1862 151.663 42.8154 151.769 42.395C151.875 41.9753 151.559 41.551 151.663 41.3393C152.123 40.4047 152.978 43.2832 153.768 44.3373C154.35 45.1131 155.557 45.1291 156.507 45.4459C157.108 45.6464 157.667 45.9208 157.958 45.9477C158.631 46.0099 155.63 44.5064 154.144 43.5012C153.153 42.8317 152.302 41.6585 151.744 41.1804C150.52 40.1321 154.663 43.7067 155.926 44.6794C156.903 45.431 157.874 46.0236 158.957 46.7877C160.25 47.7007 162.037 48.9726 163.144 49.9477C164.33 50.9923 165.409 51.6593 166.227 52.346C166.957 52.9585 167.884 53.6095 168.677 54.3476C169.439 55.0568 170.1 55.2974 170.182 55.4554C170.843 56.7403 167.682 55.3511 167.104 55.2207C165.885 54.9461 165.365 53.5115 164.679 52.7988C163.939 52.0309 163.153 51.3495 161.653 50.7174C160.765 50.3433 160.148 50.0315 159.727 49.9777C159.56 49.9565 159.515 50.2369 159.54 50.4487C159.592 50.8855 160.298 51.6056 161.193 52.4218C161.693 52.8783 160.216 50.7363 157.269 47.3148C155.013 44.696 153.986 44.6581 152.96 44.4732C151.216 44.159 150.247 45.1291 149.114 45.472C147.612 45.9265 146.875 46.6052 145.9 47.0255C144.276 47.7265 143.24 48.1856 142.422 48.4487C141.552 48.7284 141.131 49.8165 140.341 50.6328C139.888 51.1014 139.602 51.6087 139.522 52.003C139.485 52.1866 139.703 52.3452 139.94 52.3215C141.288 52.1867 142.336 51.2452 144.045 50.455C146.033 49.5358 148.234 48.7672 149.919 48.425C150.704 48.2658 153.067 48.2393 155.939 48.1611C156.833 48.1367 156.569 47.9264 156.33 47.7675C155.445 47.1782 154.46 46.9244 152.598 46.6858C151.584 46.5559 149.855 46.6589 149.516 46.711C147.212 47.0655 153.291 47.3954 155.449 47.5012C156.851 47.5701 157.615 48.8146 158.246 49.6846C159.091 50.8483 159.775 51.5566 159.83 51.7675C160.201 53.204 155.421 51.2421 152.072 51.6348C149.213 51.9699 147.826 52.715 145.903 53.4254C144.825 53.8232 143.925 54.0331 142.871 54.3752C141.508 54.817 139.919 54.4045 139.42 54.0892C139.177 53.9361 138.972 53.7739 139.36 53.615C140.67 53.0792 142.23 53.1385 143.202 53.0864C144.236 53.0309 147.162 52.7703 150.927 52.6391C153.221 52.5592 155.39 51.8237 157.296 51.5329C157.621 51.4833 157.824 51.3495 157.67 51.2176C156.215 49.9652 152.684 50.4519 150.302 50.6352C148.592 50.7668 147.56 51.0303 146.663 51.1362C146.217 51.1887 149.313 50.7221 154.604 49.6948C158.242 48.9887 160.292 49.5036 161.304 49.5305C161.098 49.2444 160.675 48.9252 160.254 48.7411C160.042 48.6613 159.834 48.6091 159.619 48.5554" stroke="#FFFDF4" stroke-width="2" stroke-linecap="round"/>
<path d="M53.9221 120.333C53.8177 119.444 53.606 117.232 53.1603 115.44C52.8995 114.391 52.5013 113.855 52.2642 113.748C51.5453 113.424 52.446 115.481 53.0244 118.394C53.256 119.561 53.1318 121.196 53.0797 121.898C53.0275 122.601 52.9232 122.34 52.8434 122.023C52.6738 121.349 52.5534 120.704 52.3693 118.823C51.9218 114.249 52.1315 110.801 52.0524 109.622C51.814 106.066 51.6589 104.07 51.5254 102.557C51.3955 101.086 50.9193 99.4271 50.6048 97.793C50.1307 95.3295 50.0248 94.3666 50.0232 92.9972C50.0223 92.2451 50.3914 91.6768 50.6277 91.4389C51.1522 90.9109 51.4977 92.8811 52.0753 97.277C52.4917 100.445 52.5471 106.359 52.7336 109.525C52.9704 113.547 53.3405 114.795 53.4218 115.538C53.4974 116.227 53.1856 113.91 52.8695 109.459C52.6728 106.691 52.8158 101.886 52.8418 99.1798C52.8817 95.0411 53.4479 93.5764 53.9197 92.4939C53.9914 92.3293 54.235 92.6187 54.3156 92.9087C54.9456 95.1757 55.0283 98.4125 55.3168 101.738C55.5179 104.057 55.4487 108.341 55.4234 110.648C55.3958 113.167 55.1864 113.64 55.1081 114.113C55.0712 114.336 54.8735 114.482 54.7407 114.458C53.9418 114.316 53.8209 112.073 53.2124 107.289C52.8741 104.628 53.2362 103.056 53.4724 102.948C55.1264 102.196 54.3424 106.997 54.6585 108.631C54.7396 109.051 54.7123 109.472 54.7123 109.557C54.7123 110.472 54.3978 107.064 54.1346 104.446C53.6013 99.1417 54.0264 95.4698 54.2105 95.0233C54.5986 94.0821 54.8687 93.4674 55.2101 93.2043C55.3791 93.0739 55.6036 93.0454 55.7371 93.1229C55.8707 93.2003 55.9228 93.4089 55.9497 93.8815C55.9766 94.354 55.9766 95.0841 55.9766 95.8364" stroke="#FFFDF4" stroke-width="2" stroke-linecap="round"/>
<path d="M105.585 98.0025C105.481 97.1143 105.269 94.9018 104.823 93.1096C104.563 92.061 104.164 91.5245 103.927 91.4178C103.208 91.0943 104.109 93.1507 104.687 96.0642C104.919 97.2308 104.795 98.8654 104.743 99.5679C104.691 100.27 104.586 100.01 104.507 99.6928C104.337 99.0192 104.217 98.3739 104.032 96.4925C103.585 91.919 103.795 88.4711 103.716 87.2921C103.477 83.7354 103.322 81.7402 103.188 80.2269C103.059 78.7558 102.582 77.097 102.268 75.4628C101.794 72.9994 101.688 72.0365 101.686 70.6671C101.685 69.915 102.055 69.3467 102.291 69.1088C102.815 68.5808 103.161 70.5509 103.738 74.9468C104.155 78.115 104.21 84.0286 104.397 87.1949C104.634 91.2164 105.004 92.4648 105.085 93.2076C105.161 93.8973 104.849 91.5798 104.533 87.1294C104.336 84.3606 104.479 79.5561 104.505 76.8496C104.545 72.711 105.111 71.2463 105.583 70.1637C105.654 69.9991 105.898 70.2886 105.979 70.5786C106.609 72.8455 106.691 76.0823 106.98 79.4075C107.181 81.7265 107.112 86.0104 107.087 88.3178C107.059 90.837 106.849 91.3095 106.771 91.7829C106.734 92.0063 106.537 92.1519 106.404 92.1282C105.605 91.9855 105.484 89.7433 104.876 84.9587C104.537 82.2977 104.899 80.7256 105.136 80.6181C106.789 79.8658 106.006 84.6671 106.322 86.3012C106.403 86.7204 106.375 87.142 106.375 87.2266C106.375 88.1423 106.061 84.7335 105.798 82.1163C105.264 76.8116 105.689 73.1396 105.874 72.6932C106.262 71.752 106.532 71.1373 106.873 70.8741C107.042 70.7438 107.267 70.7153 107.4 70.7927C107.534 70.8702 107.586 71.0788 107.613 71.5513C107.64 72.0239 107.64 72.754 107.64 73.5063" stroke="#FFFDF4" stroke-width="2" stroke-linecap="round"/>
<path d="M157.248 80.1635C157.144 79.2753 156.932 77.0627 156.486 75.2705C156.226 74.2219 155.827 73.6854 155.59 73.5787C154.871 73.2552 155.772 75.3116 156.351 78.2251C156.582 79.3917 156.458 81.0264 156.406 81.7288C156.354 82.4313 156.249 82.1706 156.17 81.8537C156 81.1801 155.88 80.5348 155.695 78.6534C155.248 74.0799 155.458 70.632 155.379 69.4531C155.14 65.8964 154.985 63.9011 154.852 62.3879C154.722 60.9167 154.245 59.2579 153.931 57.6237C153.457 55.1603 153.351 54.1974 153.349 52.828C153.348 52.0759 153.718 51.5076 153.954 51.2697C154.478 50.7417 154.824 52.7118 155.402 57.1077C155.818 60.2759 155.873 66.1895 156.06 69.3559C156.297 73.3773 156.667 74.6257 156.748 75.3685C156.824 76.0582 156.512 73.7407 156.196 69.2903C155.999 66.5215 156.142 61.717 156.168 59.0105C156.208 54.8719 156.774 53.4072 157.246 52.3246C157.318 52.16 157.561 52.4495 157.642 52.7395C158.272 55.0065 158.355 58.2433 158.643 61.5684C158.844 63.8874 158.775 68.1714 158.75 70.4787C158.722 72.9979 158.513 73.4704 158.434 73.9438C158.397 74.1672 158.2 74.3128 158.067 74.2891C157.268 74.1464 157.147 71.9043 156.539 67.1196C156.2 64.4587 156.562 62.8865 156.799 62.779C158.453 62.0267 157.669 66.828 157.985 68.4621C158.066 68.8813 158.038 69.3029 158.038 69.3875C158.038 70.3032 157.724 66.8944 157.461 64.2772C156.927 58.9725 157.353 55.3005 157.537 54.8541C157.925 53.9129 158.195 53.2982 158.536 53.035C158.705 52.9047 158.93 52.8762 159.063 52.9537C159.197 53.0311 159.249 53.2397 159.276 53.7122C159.303 54.1848 159.303 54.9149 159.303 55.6672" stroke="#FFFDF4" stroke-width="2" stroke-linecap="round"/>
<path d="M54.2382 150.993C54.2382 150.364 54.1339 148.998 54.0541 141.015C54.0349 139.091 53.9221 136.581 53.896 133.079C53.8781 130.662 53.6598 128.766 53.58 127.135C53.5539 126.762 53.5017 126.553 53.4749 125.481C53.448 124.409 53.448 122.479 53.448 120.491" stroke="#FFFDF4" stroke-width="2" stroke-linecap="round"/>
<path d="M105.901 128.662C105.901 128.033 105.797 126.668 105.717 118.684C105.698 116.76 105.585 114.251 105.559 110.748C105.541 108.332 105.323 106.436 105.243 104.805C105.217 104.432 105.165 104.223 105.138 103.151C105.111 102.078 105.111 100.149 105.111 98.1606" stroke="#FFFDF4" stroke-width="2" stroke-linecap="round"/>
<path d="M157.564 110.823C157.564 110.194 157.46 108.829 157.38 100.845C157.361 98.9214 157.248 96.4116 157.222 92.9094C157.204 90.4926 156.986 88.5965 156.906 86.9655C156.88 86.5926 156.828 86.3839 156.801 85.3116C156.774 84.2393 156.774 82.3097 156.774 80.3215" stroke="#FFFDF4" stroke-width="2" stroke-linecap="round"/>
<path d="M55.3444 148.622C55.3444 148.413 55.1879 147.158 54.9509 144.168C54.6073 139.835 54.9224 137.034 55.0014 135.806C55.184 132.966 55.1326 130.767 55.2906 128.597C55.6719 123.365 55.1879 119.494 54.9248 118.784C54.2176 116.877 54.6079 114.435 54.4759 114.223C53.8071 113.15 55.5546 117.222 55.6336 117.069C55.6605 116.707 55.6605 115.768 55.6344 115.181C55.6083 114.593 55.5561 114.384 55.5024 113.695" stroke="#FFFDF4" stroke-width="2" stroke-linecap="round"/>
<path d="M107.007 126.292C107.007 126.083 106.851 124.828 106.614 121.838C106.27 117.505 106.585 114.704 106.665 113.475C106.847 110.636 106.796 108.436 106.954 106.267C107.335 101.035 106.851 97.1633 106.588 96.4537C105.881 94.5466 106.271 92.1045 106.139 91.8927C105.47 90.8193 107.218 94.8923 107.297 94.739C107.324 94.3771 107.324 93.4383 107.297 92.8504C107.271 92.2625 107.219 92.0539 107.166 91.3648" stroke="#FFFDF4" stroke-width="2" stroke-linecap="round"/>
<path d="M158.671 108.453C158.671 108.244 158.514 106.989 158.277 103.999C157.933 99.6658 158.249 96.8652 158.328 95.6364C158.51 92.7966 158.459 90.5973 158.617 88.4282C158.998 83.1956 158.514 79.3243 158.251 78.6147C157.544 76.7075 157.934 74.2654 157.802 74.0536C157.133 72.9803 158.881 77.0532 158.96 76.8999C158.987 76.538 158.987 75.5992 158.961 75.0113C158.934 74.4234 158.882 74.2148 158.829 73.5258" stroke="#FFFDF4" stroke-width="2" stroke-linecap="round"/>
<path d="M41.2789 149.57C41.2789 149.047 41.1746 147.471 41.1469 140.589C41.1399 138.828 41.3832 136.056 41.5934 132.081C41.7774 128.603 42.1197 125.143 42.2532 122.71C42.3345 121.23 42.5938 119.653 42.7274 113.246C42.7597 111.696 42.9115 111.222 42.9905 108.74C43.0612 106.521 43.0174 102.348 42.913 99.9376C42.7856 96.992 42.2287 96.3121 41.8874 95.9969C41.0911 95.2614 40.0162 95.3639 39.7791 95.0225C39.6641 94.8569 39.6985 94.629 39.8028 94.4694C40.2985 93.7109 41.693 93.2067 42.6981 92.546C43.1014 92.281 43.542 92.0451 43.7017 91.7558C44.1797 90.8897 41.8099 91.6737 40.966 92.0419C40.749 92.1366 40.5456 92.2521 40.4642 92.2015C39.8214 91.8021 41.2757 90.6243 41.9869 89.6507C42.9114 88.3852 45.1604 86.7365 46.8585 85.9068C48.3934 85.1568 52.3164 85.0897 54.4184 85.2209C55.5142 85.2893 56.3401 85.9305 57.2117 86.772C57.3974 86.9846 57.5539 87.1411 57.7388 87.326C57.9237 87.5109 58.1323 87.7195 58.6633 88.2505" stroke="#FFFDF4" stroke-width="2" stroke-linecap="round"/>
<path d="M92.942 127.24C92.942 126.717 92.8377 125.141 92.81 118.259C92.803 116.498 93.0463 113.726 93.2565 109.751C93.4405 106.273 93.7828 102.813 93.9163 100.38C93.9976 98.8997 94.2569 97.323 94.3904 90.916C94.4228 89.3656 94.5746 88.8915 94.6536 86.4103C94.7243 84.1908 94.6804 80.0176 94.5761 77.6074C94.4486 74.6619 93.8918 73.982 93.5505 73.6667C92.7542 72.9313 91.6792 73.0338 91.4422 72.6924C91.3271 72.5267 91.3616 72.2989 91.4659 72.1393C91.9616 71.3807 93.3561 70.8765 94.3612 70.2159C94.7645 69.9508 95.2051 69.7149 95.3647 69.4257C95.8428 68.5596 93.473 69.3435 92.6291 69.7118C92.4121 69.8064 92.2087 69.9219 92.1273 69.8714C91.4845 69.4719 92.9388 68.2941 93.65 67.3206C94.5745 66.0551 96.8235 64.4063 98.5216 63.5766C100.057 62.8267 103.98 62.7596 106.081 62.8907C107.177 62.9591 108.003 63.6003 108.875 64.4419C109.061 64.6545 109.217 64.8109 109.402 64.9958C109.587 65.1807 109.795 65.3893 110.326 65.9204" stroke="#FFFDF4" stroke-width="2" stroke-linecap="round"/>
<path d="M144.605 109.401C144.605 108.878 144.501 107.302 144.473 100.42C144.466 98.6588 144.709 95.8869 144.92 91.9122C145.104 88.4336 145.446 84.9742 145.579 82.5412C145.661 81.0606 145.92 79.4839 146.054 73.0769C146.086 71.5265 146.238 71.0524 146.317 68.5712C146.387 66.3517 146.344 62.1785 146.239 59.7684C146.112 56.8228 145.555 56.1429 145.214 55.8276C144.417 55.0922 143.342 55.1947 143.105 54.8533C142.99 54.6876 143.025 54.4598 143.129 54.3002C143.625 53.5417 145.019 53.0374 146.024 52.3768C146.428 52.1118 146.868 51.8758 147.028 51.5866C147.506 50.7205 145.136 51.5044 144.292 51.8727C144.075 51.9674 143.872 52.0829 143.79 52.0323C143.148 51.6328 144.602 50.455 145.313 49.4815C146.238 48.216 148.487 46.5673 150.185 45.7375C151.72 44.9876 155.643 44.9205 157.745 45.0517C158.84 45.12 159.666 45.7613 160.538 46.6028C160.724 46.8154 160.88 46.9718 161.065 47.1567C161.25 47.3417 161.458 47.5503 161.99 48.0813" stroke="#FFFDF4" stroke-width="2" stroke-linecap="round"/>
<path d="M43.3333 94.8882C45.3183 94.8882 48.9153 94.9925 49.075 95.2548C49.6664 96.2269 46.9746 96.0988 44.344 96.0743C43.6139 96.0675 43.3871 95.1568 42.8087 94.6527C42.6808 94.5413 42.7012 94.3129 42.8837 94.0751C43.7347 92.9662 47.5688 93.1497 49.8098 93.6476C50.0843 93.7085 50.2302 94.0411 50.3116 94.2789C50.6164 95.1695 49.813 96.4591 51.1247 103.178C52.111 108.23 51.1848 111.166 50.7383 111.14C49.445 111.065 48.182 111.113 47.8138 111.375C46.9455 111.994 46.7059 113.426 46.6 114.324C46.4887 115.268 45.9695 116.271 45.5736 117.352C45.1573 118.489 45.0212 119.798 44.7565 120.804C44.5247 121.684 44.3891 122.646 44.2555 126.507C44.1235 128.073 44.0714 128.917 43.9924 129.442C43.9655 129.758 43.9655 130.175 43.8075 130.605" stroke="#FFFDF4" stroke-width="2" stroke-linecap="round"/>
<path d="M94.9964 72.558C96.9814 72.558 100.578 72.6623 100.738 72.9247C101.33 73.8968 98.6377 73.7686 96.0071 73.7441C95.277 73.7373 95.0502 72.8267 94.4717 72.3226C94.3439 72.2111 94.3643 71.9828 94.5468 71.7449C95.3978 70.6361 99.2319 70.8196 101.473 71.3174C101.747 71.3784 101.893 71.7109 101.975 71.9488C102.279 72.8394 101.476 74.129 102.788 80.848C103.774 85.9 102.848 88.8362 102.401 88.8101C101.108 88.7346 99.8451 88.7825 99.4769 89.0448C98.6086 89.6634 98.369 91.0962 98.2631 91.9938C98.1518 92.9375 97.6326 93.9409 97.2367 95.0219C96.8204 96.1585 96.6843 97.4684 96.4196 98.4735C96.1878 99.3535 96.0522 100.316 95.9186 104.177C95.7866 105.743 95.7345 106.587 95.6555 107.112C95.6286 107.428 95.6286 107.845 95.4706 108.275" stroke="#FFFDF4" stroke-width="2" stroke-linecap="round"/>
<path d="M146.66 54.719C148.645 54.719 152.242 54.8233 152.401 55.0856C152.993 56.0577 150.301 55.9296 147.67 55.9051C146.94 55.8983 146.713 54.9876 146.135 54.4835C146.007 54.3721 146.027 54.1437 146.21 53.9058C147.061 52.797 150.895 52.9805 153.136 53.4783C153.41 53.5393 153.556 53.8719 153.638 54.1097C153.943 55.0003 153.139 56.2899 154.451 63.009C155.437 68.0609 154.511 70.9971 154.065 70.971C152.771 70.8955 151.508 70.9434 151.14 71.2057C150.272 71.8243 150.032 73.2571 149.926 74.1548C149.815 75.0984 149.296 76.1018 148.9 77.1828C148.483 78.3195 148.347 79.6293 148.083 80.6344C147.851 81.5145 147.715 82.4772 147.582 86.3381C147.45 87.9043 147.398 88.7482 147.319 89.2729C147.292 89.589 147.292 90.0062 147.134 90.4361" stroke="#FFFDF4" stroke-width="2" stroke-linecap="round"/>
<path d="M44.1235 130.605C44.0714 131.181 43.7569 132.653 43.5182 133.762C43.3145 134.709 42.9129 135.448 42.781 136.5C42.2808 138.556 41.9647 139.819 41.8067 140.823C41.7024 140.932 41.4937 140.827 41.2788 140.72" stroke="#FFFDF4" stroke-width="2" stroke-linecap="round"/>
<path d="M95.4707 108.275C95.4186 108.85 95.1041 110.323 94.8654 111.432C94.6617 112.378 94.2601 113.118 94.1282 114.17C93.628 116.226 93.3119 117.489 93.1538 118.492C93.0495 118.602 92.8409 118.497 92.626 118.39" stroke="#FFFDF4" stroke-width="2" stroke-linecap="round"/>
<path d="M147.134 90.4361C147.082 91.0114 146.767 92.4843 146.528 93.593C146.325 94.5394 145.923 95.2785 145.791 96.331C145.291 98.3871 144.975 99.6498 144.817 100.653C144.713 100.762 144.504 100.658 144.289 100.551" stroke="#FFFDF4" stroke-width="2" stroke-linecap="round"/>
<path d="M42.7012 131.87C42.7012 130.504 42.8055 129.136 42.9635 127.113C43.1465 124.772 43.4914 121.51 43.5435 118.353C43.5655 117.021 43.7 116.239 43.7276 113.333C43.7553 110.427 43.7031 105.42 43.7024 102.606C43.7012 98.3646 44.2278 96.791 44.5171 95.9961C44.5657 95.8623 44.8568 96.045 44.9643 98.1328C45.0718 100.22 45.0718 104.288 45.0979 106.593C45.1287 109.315 45.2298 111.726 45.2037 114.859C45.1942 116.011 45.1255 116.271 45.0986 116.562C45.043 117.164 44.9153 114.098 44.8086 107.893C44.7602 105.077 45.1192 102.939 45.2535 101.185C45.3879 99.4319 45.3879 98.128 45.4922 97.4824C45.5965 96.8368 45.8051 96.889 45.9647 97.0984C46.1243 97.3078 46.2286 97.6729 46.2824 100.077C46.3361 102.482 46.3361 106.915 46.3622 109.303C46.3882 111.691 46.4404 111.9 46.5194 111.903C46.7946 111.914 46.9667 107.988 47.2559 102.459C47.4374 98.9896 47.7047 97.5275 47.8106 96.6021C47.9826 95.0992 48.1788 100.625 48.2587 101.968C48.3419 103.369 48.4949 104.838 48.6798 106.834C48.7765 107.878 48.7067 109.655 48.811 110.491C48.9153 111.326 49.1239 111.17 49.3357 111.037C50.1258 110.541 50.8118 110.43 51.1279 110.115C51.9121 109.335 50.7107 107.019 50.525 105.482C50.3216 103.798 49.971 103.005 49.7087 101.272C49.1866 97.8239 49.1303 96.8416 48.6032 95.5765C48.081 94.323 48.8647 99.465 49.2575 101.226C50.0709 104.874 50.0753 106.049 50.0248 109.233C49.9204 109.746 49.7118 109.589 49.6044 109.378C49.4969 109.167 49.4969 108.906 49.4969 108.638" stroke="#FFFDF4" stroke-width="2" stroke-linecap="round"/>
<path d="M94.3643 109.539C94.3643 108.174 94.4686 106.805 94.6266 104.783C94.8096 102.442 95.1545 99.1799 95.2066 96.0231C95.2286 94.6908 95.3631 93.9093 95.3907 91.0029C95.4184 88.0966 95.3662 83.0899 95.3654 80.276C95.3642 76.0345 95.8909 74.4609 96.1801 73.6659C96.2288 73.5321 96.5199 73.7149 96.6274 75.8026C96.7349 77.8903 96.7349 81.9583 96.7609 84.2625C96.7917 86.9849 96.8929 89.3957 96.8668 92.5288C96.8572 93.6804 96.7886 93.9409 96.7617 94.2317C96.7061 94.8335 96.5784 91.7679 96.4717 85.5624C96.4233 82.7469 96.7823 80.6086 96.9166 78.8552C97.0509 77.1017 97.0509 75.7979 97.1552 75.1523C97.2596 74.5067 97.4682 74.5588 97.6278 74.7682C97.7874 74.9777 97.8917 75.3427 97.9454 77.7473C97.9992 80.1519 97.9992 84.5849 98.0253 86.9729C98.0513 89.3609 98.1035 89.5695 98.1825 89.5727C98.4576 89.5837 98.6298 85.658 98.919 80.129C99.1005 76.6595 99.3678 75.1973 99.4737 74.272C99.6457 72.7691 99.8419 78.2949 99.9217 79.6383C100.005 81.0391 100.158 82.5083 100.343 84.5043C100.44 85.548 100.37 87.3253 100.474 88.1606C100.578 88.9958 100.787 88.8394 100.999 88.7066C101.789 88.2113 102.475 88.0997 102.791 87.7852C103.575 87.0049 102.374 84.6892 102.188 83.1515C101.985 81.4678 101.634 80.675 101.372 78.9421C100.85 75.4938 100.793 74.5114 100.266 73.2463C99.744 71.9928 100.528 77.1349 100.921 78.8963C101.734 82.5443 101.738 83.7189 101.688 86.9026C101.584 87.4154 101.375 87.259 101.267 87.048C101.16 86.837 101.16 86.5762 101.16 86.3076" stroke="#FFFDF4" stroke-width="2" stroke-linecap="round"/>
<path d="M146.027 91.7004C146.027 90.3349 146.132 88.9663 146.29 86.9442C146.473 84.6032 146.818 81.3409 146.87 78.184C146.892 76.8517 147.026 76.0702 147.054 73.1639C147.081 70.2575 147.029 65.2508 147.029 62.4369C147.027 58.1954 147.554 56.6218 147.843 55.8268C147.892 55.6931 148.183 55.8758 148.29 57.9635C148.398 60.0513 148.398 64.1192 148.424 66.4234C148.455 69.1458 148.556 71.5566 148.53 74.6897C148.52 75.8413 148.452 76.1018 148.425 76.3926C148.369 76.9944 148.241 73.9288 148.135 67.7233C148.086 64.9078 148.445 62.7695 148.58 61.0161C148.714 59.2626 148.714 57.9588 148.818 57.3132C148.923 56.6676 149.131 56.7198 149.291 56.9292C149.45 57.1386 149.555 57.5036 149.609 59.9082C149.662 62.3128 149.662 66.7458 149.688 69.1338C149.714 71.5218 149.767 71.7304 149.846 71.7336C150.121 71.7446 150.293 67.8189 150.582 62.2899C150.764 58.8204 151.031 57.3582 151.137 56.4329C151.309 54.93 151.505 60.4558 151.585 61.7992C151.668 63.2 151.821 64.6692 152.006 66.6652C152.103 67.7089 152.033 69.4863 152.137 70.3215C152.241 71.1567 152.45 71.0003 152.662 70.8675C153.452 70.3722 154.138 70.2607 154.454 69.9462C155.238 69.1659 154.037 66.8501 153.851 65.3124C153.648 63.6287 153.297 62.8359 153.035 61.103C152.513 57.6547 152.456 56.6724 151.929 55.4072C151.407 54.1537 152.191 59.2958 152.584 61.0572C153.397 64.7052 153.402 65.8798 153.351 69.0635C153.247 69.5763 153.038 69.4199 152.931 69.2089C152.823 68.9979 152.823 68.7371 152.823 68.4685" stroke="#FFFDF4" stroke-width="2" stroke-linecap="round"/>
<path d="M44.1716 70.3287C44.2062 70.7113 44.2764 71.2353 44.2937 71.4109C44.3429 71.9104 44.5898 70.4702 44.626 70.4848C45.3703 70.7869 44.0668 72.315 44.1879 73.2221C44.3526 74.4563 45.3917 74.6597 46.0384 75.1482C46.7793 75.7077 47.2092 76.6156 47.9419 77.626C48.8523 78.8816 48.6788 79.8974 48.7134 80.5096C48.7394 80.9696 50.9701 79.0033 52.2923 78.1742C52.9019 77.792 53.1838 76.798 53.4647 75.7671C53.7973 74.5465 53.4312 73.5445 53.2918 73.2656C53.1524 72.9868 52.9427 72.7405 52.6639 72.5314C52.5235 72.4261 52.3851 72.3223 52.0329 72.2154" stroke="#FFFDF4" stroke-width="2" stroke-linecap="round"/>
<path d="M95.8347 47.9985C95.8693 48.3811 95.9395 48.9052 95.9568 49.0807C96.006 49.5803 96.2529 48.14 96.2891 48.1547C97.0333 48.4567 95.7299 49.9848 95.851 50.892C96.0157 52.1261 97.0548 52.3296 97.7015 52.818C98.4424 53.3776 98.8723 54.2854 99.605 55.2959C100.515 56.5515 100.342 57.5673 100.376 58.1794C100.402 58.6394 102.633 56.6732 103.955 55.8441C104.565 55.4619 104.847 54.4678 105.128 53.4369C105.46 52.2163 105.094 51.2143 104.955 50.9355C104.815 50.6567 104.606 50.4103 104.327 50.2012C104.187 50.0959 104.048 49.9921 103.696 49.8852" stroke="#FFFDF4" stroke-width="2" stroke-linecap="round"/>
<path d="M147.498 30.1594C147.532 30.542 147.603 31.0661 147.62 31.2417C147.669 31.7412 147.916 30.3009 147.952 30.3156C148.696 30.6176 147.393 32.1457 147.514 33.0529C147.679 34.287 148.718 34.4905 149.365 34.9789C150.105 35.5385 150.535 36.4464 151.268 37.4568C152.179 38.7124 152.005 39.7282 152.04 40.3403C152.066 40.8004 154.296 38.8341 155.619 38.005C156.228 37.6228 156.51 36.6287 156.791 35.5979C157.124 34.3772 156.757 33.3752 156.618 33.0964C156.479 32.8176 156.269 32.5713 155.99 32.3622C155.85 32.2568 155.711 32.153 155.359 32.0461" stroke="#FFFDF4" stroke-width="2" stroke-linecap="round"/>
</svg>
