<svg width="198" height="180" viewBox="0 0 198 180" fill="none" xmlns="http://www.w3.org/2000/svg">
<path d="M56.7224 44.5596C58.621 43.8697 60.5144 43.351 66.7277 43.3056C69.2848 43.2869 70.6351 44.2121 71.8918 45.3326C72.1985 45.606 72.1965 46.0225 72.0267 46.4128C70.6455 48.4424 69.608 51.2047 69.0011 53.2408C68.9129 53.8037 68.9129 54.4884 68.9129 55.1939" stroke="#FFFDF4" stroke-width="2" stroke-linecap="round"/>
<path d="M71.2474 56.2314C71.1618 56.2314 71.0762 56.2314 70.7325 56.2314C70.3889 56.2314 69.7897 56.2314 69.3527 56.103C68.9156 55.9746 68.6588 55.7178 68.3943 55.4532" stroke="#FFFDF4" stroke-width="2" stroke-linecap="round"/>
<path d="M68.3943 55.4532C69.1672 55.4532 73.12 56.138 76.5982 56.8344C78.698 57.2548 80.1438 57.9588 81.7027 58.6059C82.6802 59.0117 83.3497 59.6862 83.6518 60.4617C84.7525 63.2867 82.9295 69.0028 81.6261 72.044C80.7066 74.1895 79.9 75.5909 78.8159 77.1912C78.5645 77.5622 78.4268 77.9252 78.5954 78.1872C79.559 79.6844 82.1306 79.7408 83.7348 80.9106C84.5772 81.5248 85.2509 82.2516 85.6827 83.0271C86.1605 83.885 86.0316 85.3588 85.8176 86.8697C85.1757 87.9525 84.4779 88.8214 83.9605 89.6411C83.6998 90.0327 83.4431 90.3751 82.6597 91.2466" stroke="#FFFDF4" stroke-width="2" stroke-linecap="round"/>
<path d="M82.6596 91.2466C83.1732 92.1907 85.243 94.608 86.8472 96.6856C88.273 98.5322 88.7082 99.9719 89.3151 101.873C90.2206 104.71 85.8758 110.155 84.1342 112.423C82.491 114.499 80.9374 116.053 79.0803 116.836C78.4319 116.924 77.576 116.924 76.6941 117.703" stroke="#FFFDF4" stroke-width="2" stroke-linecap="round"/>
<path d="M76.6942 117.703C77.7239 118.815 79.9727 122.444 80.9712 124.397C81.7065 125.835 81.3629 128.067 79.5551 131.135C78.3889 133.115 76.7876 134.987 75.1017 136.372C73.2394 137.5 72.2019 137.76 71.3836 137.889C70.9076 137.934 70.3085 137.934 69.6912 137.674" stroke="#FFFDF4" stroke-width="2" stroke-linecap="round"/>
<path d="M69.6911 137.674C69.9479 138.361 70.9828 140.942 71.0762 144.145C71.1889 148.013 68.3217 149.937 65.6372 152.106C63.4714 153.493 61.744 154.015 60.4925 153.929C59.9258 153.843 59.4978 153.672 59.0569 153.236" stroke="#FFFDF4" stroke-width="2" stroke-linecap="round"/>
<path d="M59.0569 153.236C60.6909 154.44 64.1406 157.2 66.0975 158.55C67.8118 159.732 68.8196 161.184 70.2047 162.01C70.8257 162.38 76.1261 162.314 83.7322 162.272C88.0988 162.055 90.0051 161.97 90.9946 161.84C91.6418 161.796 92.5833 161.796 93.294 161.277" stroke="#FFFDF4" stroke-width="2" stroke-linecap="round"/>
<path d="M93.2939 161.277C93.8101 162.309 94.7594 164.293 95.5362 165.891C95.8612 166.56 96.1419 166.89 96.2741 166.339C96.4064 165.787 96.4064 164.332 96.5776 163.583C96.7488 162.833 97.0912 162.833 97.4387 163.176C98.3202 164.044 98.8238 165.165 99.5137 165.426C100.971 165.976 101.591 163.614 102.152 163.396C103.575 162.842 103.752 165.424 104.356 165.599C105.766 166.008 105.653 163.183 106.558 162.792C107.598 162.342 108.421 164.042 108.939 164.044C109.644 164.048 108.944 162.491 108.856 162.015C108.596 160.609 112.135 163.606 113.734 164.43C117.582 166.412 123.2 164.825 124.844 164.305C127.325 163.52 129.336 162.32 130.94 161.582C132.409 160.906 133.663 160.156 135.39 158.821C138.903 156.104 139.286 153.849 140.194 152.248C140.411 151.857 140.583 151.514 140.799 151.209C141.016 150.905 141.273 150.648 141.278 150.383" stroke="#FFFDF4" stroke-width="2" stroke-linecap="round"/>
<path d="M141.278 150.383C140.419 150.555 138.004 151.244 133.772 151.335C131.809 151.377 130.306 150.56 128.833 149.954C127.056 149.224 127.36 146.674 127.314 143.479C127.617 141.656 128.304 139.417 129.127 136.733C129.344 136.123 129.601 135.61 129.347 134.302" stroke="#FFFDF4" stroke-width="2" stroke-linecap="round"/>
<path d="M129.347 134.302C128.745 134.302 125.995 133.789 122.442 132.965C119.806 132.354 118.204 130.764 116.556 128.648C114.498 126.006 116.632 120.141 117.801 118.011C118.105 117.277 118.45 116.582 119.011 115.935C119.314 115.63 119.656 115.373 120.009 115.109" stroke="#FFFDF4" stroke-width="2" stroke-linecap="round"/>
<path d="M120.009 115.109C119.148 114.852 117.083 113.475 115.819 111.959C114.658 110.566 113.961 109.237 112.88 106.389C111.972 103.994 112.228 99.5828 112.529 96.6986C112.707 94.9872 114.298 93.0725 115.379 91.6836C115.683 91.3373 116.025 90.9094 116.373 90.6461C116.72 90.3829 117.063 90.2973 117.934 90.2091" stroke="#FFFDF4" stroke-width="2" stroke-linecap="round"/>
<path d="M117.934 90.2091C117.25 89.3506 115.175 87.107 113.875 84.5561C113.274 83.3761 113.266 81.6602 113.394 79.9328C114.301 78.2806 115.335 77.0745 116.632 75.7751C116.98 75.5131 117.322 75.3419 117.675 75.1655" stroke="#FFFDF4" stroke-width="2" stroke-linecap="round"/>
<path d="M117.675 75.1655C116.036 73.8712 114.656 72.6652 113.744 71.2801C112.734 69.7459 112.747 66.71 113.22 64.2797C113.796 61.3204 116.627 57.798 118.016 56.2793C118.661 55.5736 119.573 55.3676 120.435 55.238C121.638 55.1939 122.686 55.3651 123.376 55.71C123.723 55.8838 124.066 56.055 124.418 56.4907" stroke="#FFFDF4" stroke-width="2" stroke-linecap="round"/>
<path d="M124.418 56.4908C124.418 55.6296 124.59 54.0786 125.108 51.9167C125.56 50.0341 126.146 48.113 126.923 46.3817C127.629 44.807 128.304 43.185 129.859 42.0126C130.721 41.6236 131.505 41.3616 132.537 41.2319C133.227 41.1878 134.254 41.1878 135.312 41.1878" stroke="#FFFDF4" stroke-width="2" stroke-linecap="round"/>
<path d="M135.312 41.1878C134.539 40.8454 132.47 39.2944 130.908 38.0792C129.542 37.0159 128.143 36.1767 126.801 35.2262C125.57 34.3546 124.253 33.7542 122.61 33.1927C120.91 32.612 119.325 32.3692 116.396 31.9386C109.368 30.9052 107.912 32.4522 106.527 32.9294C104.933 33.4787 103.072 34.439 101.556 35.5633C100.738 36.3376 99.9547 37.0353 99.2648 37.5099C98.9172 37.7278 98.5749 37.899 97.7034 38.8535" stroke="#FFFDF4" stroke-width="2" stroke-linecap="round"/>
<path d="M97.7034 38.8534C96.7567 38.6822 93.32 36.794 90.9221 35.2689C89.168 34.1532 86.9031 33.6712 85.3028 32.9761C83.7383 32.2965 76.4089 32.3691 72.2901 32.6272C70.8421 32.7179 69.5252 33.4066 68.3126 34.138C66.8671 35.01 65.5464 35.4764 63.8631 36.3855C61.4845 37.6701 60.0166 39.0194 58.8443 40.232C58.4552 41.0062 58.0221 41.7039 57.633 42.4781C57.5007 42.9956 57.5007 43.7659 57.5007 44.5596" stroke="#FFFDF4" stroke-width="2" stroke-linecap="round"/>
<path d="M94.3315 36.2597C94.3315 31.5236 94.1603 26.5022 94.0294 22.0111C93.9625 19.7187 93.1228 18.0259 92.6041 16.5526C92.3731 15.8966 92.4303 15.082 92.6002 14.348C93.0474 12.4161 95.9682 13.9537 96.9188 14.1249C99.4257 14.5764 97.6152 20.604 97.789 22.5052C98.0666 25.5426 98.5645 29.5057 98.7836 33.4352C98.8264 34.2677 98.912 34.6101 98.9561 35.1717C99.0002 35.7332 99.0002 36.5035 99.0002 37.2972" stroke="#FFFDF4" stroke-width="2" stroke-linecap="round"/>
<path d="M95.6319 36.8102C96.5885 37.173 97.1496 37.3058 97.5292 37.2404C97.6911 37.2125 97.7453 37.0441 97.7627 36.8949C97.8465 36.1744 96.8928 34.1496 96.3764 31.0092C95.913 28.1916 96.2931 26.2708 96.2272 26.0071C96.194 25.8743 96.1612 25.7434 96.1444 25.905C96.0141 27.1542 95.8976 28.9968 95.5833 31.5435C95.2141 34.5357 95.6636 36.4474 95.8782 36.2828C96.0828 36.126 96.1266 35.6236 96.4879 34.1798C96.7741 33.0359 97.1763 31.0349 97.3954 29.6144C97.7332 27.4238 97.5818 26.4363 97.5158 26.0904C97.2009 24.4374 96.4249 22.2065 96.3595 22.041C95.9973 21.1244 95.7984 25.2716 95.7147 26.2168C95.6752 26.6623 95.6319 27.0281 95.6319 27.1119C95.6319 27.7906 95.1065 23.5527 94.7407 20.9882C94.5657 19.7613 94.4761 18.4416 94.3437 17.714C94.2288 17.0821 94.0795 16.3599 94.1113 15.6154C94.117 15.4807 94.3075 15.4975 94.4404 15.5465C94.7237 15.6512 95.0351 15.9911 95.4143 16.3703C96.3996 17.3556 96.3258 21.0289 96.079 22.2709C95.9298 23.0215 95.7647 20.327 95.7637 18.8406C95.7965 18.4743 95.8619 18.1799 95.8956 17.9628C95.9293 17.7457 95.9293 17.6149 95.731 17.1827" stroke="#FFFDF4" stroke-width="2" stroke-linecap="round"/>
<path d="M94.4425 15.2001C94.5079 15.2001 94.6724 15.2001 94.9361 15.2492C95.6212 15.3767 95.8303 16.2549 96.0766 16.9641C96.186 17.2791 96.3556 17.7676 96.5053 17.9549C96.655 18.1423 96.7859 18.0114 96.8696 17.8786C97.1631 17.4132 96.9544 16.7564 96.8716 15.5352C96.8532 15.2637 96.7244 15.1367 96.6084 15.0202C95.7688 14.7045 94.5773 14.7699 93.9493 14.8859C93.7833 14.9027 93.6197 14.9027 93.4512 14.9027" stroke="#FFFDF4" stroke-width="2" stroke-linecap="round"/>
<path d="M60.6272 39.2416C62.8627 39.2416 67.4756 39.4168 68.407 39.7929C69.7396 40.3311 71.0577 41.0513 71.9234 41.5395C72.8715 42.0742 73.5811 42.7335 74.3334 43.2854C75.2634 44.1491 75.8378 44.6347 76.0382 44.9226C76.0196 44.9916 75.7569 44.904 75.4863 44.8138" stroke="#FFFDF4" stroke-width="2" stroke-linecap="round"/>
<path d="M75.4861 44.8138C76.3219 44.5498 78.962 43.8453 82.4181 43.6636C83.9072 43.5852 85.033 44.2805 86.6025 45.1859C87.8506 45.906 88.5302 47.1541 88.9946 47.9946C89.106 48.2168 89.1936 48.4357 89.3043 48.6579C89.4151 48.8801 89.5465 49.099 89.6818 49.3246" stroke="#FFFDF4" stroke-width="2" stroke-linecap="round"/>
<path d="M89.6819 49.3246C90.2099 49.1932 91.0935 48.7514 91.8676 48.3972C93.031 47.8649 94.32 47.645 96.0394 47.4897C100.671 47.0717 102.28 48.1279 103.409 48.7693C103.83 49.0566 104.229 49.4108 104.627 49.8082C104.805 49.9866 104.936 50.1179 105.204 50.2533" stroke="#FFFDF4" stroke-width="2" stroke-linecap="round"/>
<path d="M105.204 50.2533C105.687 49.7252 106.836 49.0168 108.16 48.8164C111.183 48.3587 112.185 48.6612 113.424 48.5511C113.909 48.5285 114.653 48.5285 115.124 48.5504C115.595 48.5723 115.77 48.6161 115.685 48.3959" stroke="#FFFDF4" stroke-width="2" stroke-linecap="round"/>
<path d="M115.685 48.3959C115.685 48.0456 116.254 46.9458 117.467 45.1806C119.641 42.0161 121.961 41.5872 123.285 41.2556C126.292 40.4808 127.801 40.2592 128.985 40.1929C129.995 40.1703 131.834 40.1703 133.861 39.7723" stroke="#FFFDF4" stroke-width="2" stroke-linecap="round"/>
<path d="M88.09 55.162C88.886 60.1544 88.7984 61.57 88.2472 63.0281C88.0913 63.3849 87.9599 63.6476 87.8047 63.7392C87.6495 63.8307 87.4744 63.7432 87.2939 63.6529" stroke="#FFFDF4" stroke-width="2" stroke-linecap="round"/>
<path d="M87.2939 63.653C87.9958 64.1359 90.027 65.8977 90.7639 67.2311C91.296 68.1937 91.5394 68.9996 91.8697 70.2374C91.9374 70.8118 92.025 71.3014 92.1576 72.0709C92.2027 72.6215 92.2027 73.4971 92.2027 74.3992" stroke="#FFFDF4" stroke-width="2" stroke-linecap="round"/>
<path d="M93.9274 91.381C93.9274 91.8202 93.402 94.5439 93.0212 96.7037C92.6636 98.7325 93.3516 99.9117 93.5287 100.665C93.5706 100.844 93.6169 101.018 93.727 101.043C93.8372 101.067 94.0123 100.936 94.1244 100.759C94.7933 99.702 94.5005 97.1416 94.7008 95.7419C94.9488 94.0097 94.8561 93.0208 94.9662 92.181C95.0065 91.8737 94.9887 91.4341 94.9231 91.1429C94.8574 90.8517 94.7261 90.7203 94.5708 90.6527C94.4156 90.585 94.2405 90.585 94.1065 90.6726C93.4697 91.0886 93.134 91.9966 93.0425 92.9253C93.264 93.7226 93.3516 94.5173 93.5287 95.2258C93.5731 95.4036 93.6169 95.5787 93.662 96.1571" stroke="#FFFDF4" stroke-width="2" stroke-linecap="round"/>
<path d="M98.3054 82.3594C98.3054 82.6672 98.393 83.8984 98.6802 85.2516C99.1158 87.3039 98.6609 90.7973 98.5488 92.3488C98.4655 93.5021 98.3505 94.65 98.2835 95.5124C98.1957 96.6421 98.0852 97.7014 98.0182 99.3127C97.9707 100.453 97.7747 102.73 97.6646 105.736C97.642 110.337 97.7734 113.579 98.0381 113.932C98.1714 114.11 98.3027 114.285 98.4381 114.598" stroke="#FFFDF4" stroke-width="2" stroke-linecap="round"/>
<path d="M102.012 91.719C102.012 91.8342 102.012 91.9494 101.966 93.1951C101.92 94.4408 101.828 96.8136 101.815 98.1742C101.799 99.8121 101.942 100.372 102 100.791C102.021 100.944 102.172 100.934 102.266 100.888C102.666 100.692 103.032 99.7763 104.195 97.9969C104.629 97.3321 104.988 96.4485 105.406 95.3916C105.972 93.9631 105.666 93.0942 105.434 92.466C105.252 91.9744 104.875 91.6506 104.434 91.2551C103.959 90.8303 103.203 90.9511 102.711 91.0321C102.613 91.0483 102.526 91.1131 102.467 91.1829C102.15 91.5578 102.915 93.2436 103.314 94.6587C103.652 95.858 103.316 97.3945 103.199 97.791C103.172 97.8834 103.153 97.9767 103.141 97.9435C102.894 97.2549 103.338 96.2817 103.419 95.851C103.504 95.4023 104.17 93.7574 104.421 92.7211C104.386 92.6272 104.317 92.5581 104.143 92.5225C103.969 92.4869 103.693 92.4869 103.338 92.4171" stroke="#FFFDF4" stroke-width="2" stroke-linecap="round"/>
<path d="M104.76 125.561C104.628 125.823 104.522 126.457 104.364 127.633C104.244 128.526 104.257 129.58 104.507 130.003C104.848 130.578 105.709 131.062 106.187 131.327C106.583 131.546 107.766 131.592 109.195 131.671C109.686 131.698 109.68 131.906 109.641 132.04C109.459 132.658 109.099 133.676 108.979 134.696C108.823 136.025 109.15 136.879 109.336 137.45C109.481 137.897 109.574 138.389 109.838 138.984C110.122 139.623 110.525 139.924 110.948 140.373C111.335 140.783 112.213 141.324 112.879 141.591C113.169 141.644 113.488 141.75 114.603 141.869C115.562 141.909 117.316 141.909 119.124 141.909" stroke="#FFFDF4" stroke-width="2" stroke-linecap="round"/>
<path d="M65.3228 156.594C65.9317 156.675 67.8913 157.001 72.4477 157.044C73.8489 157.057 74.6491 156.677 75.5104 156.349C76.3158 156.043 77.1047 155.41 77.9457 154.877C78.3047 154.649 78.5817 154.385 78.8064 154.282C79.4188 154.001 79.8476 155.648 80.8096 156.223C81.8273 156.832 82.9171 156.756 86.9977 156.819C88.5693 156.843 89.4662 156.554 90.7124 155.84C92.2298 154.97 93.0685 153.772 93.6622 153.382C94.1342 152.871 94.4203 152.42 94.6248 152.155C94.7076 152.011 94.7481 151.849 94.7899 151.682" stroke="#FFFDF4" stroke-width="2" stroke-linecap="round"/>
<path d="M94.7898 151.682C95.1152 151.967 95.9316 152.783 96.7715 153.44C97.8926 154.318 99.4898 155.157 100.475 155.753C101.832 156.573 103.586 156.675 106.687 156.696C107.973 156.705 109.108 156.309 109.889 155.635C110.523 155.088 110.545 154.305 110.669 153.242C110.709 152.994 110.79 152.832 110.873 152.667C110.955 152.503 111.036 152.341 111.12 151.928" stroke="#FFFDF4" stroke-width="2" stroke-linecap="round"/>
<path d="M111.12 151.928C111.486 152.009 113.519 153.065 116.163 154.358C119.895 156.183 121.018 156.795 122.41 157.349C123.72 157.87 124.62 158.106 125.808 158.21C126.339 158.271 126.873 158.394 128.742 158.516C130.326 158.558 133.203 158.558 136.167 158.19" stroke="#FFFDF4" stroke-width="2" stroke-linecap="round"/>
<path d="M66.7961 158.435C67.081 158.435 67.7342 158.678 68.6956 159.007C69.5804 159.31 70.924 159.661 72.1113 159.888C73.8829 160.227 74.9757 159.543 76.1434 159.214C76.7533 159.042 77.3527 159.05 77.7211 158.745C77.8925 158.602 77.8463 158.317 77.664 158.091C76.6267 156.802 73.0776 157.208 71.5262 157.492C70.4623 157.688 70.0719 158.107 69.9074 158.189C69.0421 158.619 72.805 158.681 74.0156 158.885C75.0093 159.052 75.9187 159.13 76.5958 159.009C77.5946 158.831 77.1084 156.677 77.3939 156.371C77.7025 156.04 78.1312 155.98 78.4578 156C78.7893 156.021 79.1134 156.265 79.3792 156.591C79.6046 156.868 79.5652 157.774 79.4842 158.878C79.4411 159.466 76.9672 159.54 74.9051 159.866C73.0913 160.152 72.5693 161.011 71.9554 161.462C71.4017 161.869 70.6465 161.75 70.2364 161.69C69.3037 161.551 73.0113 161.625 73.8327 161.771C74.278 161.85 74.7339 161.954 76.4589 162.077C77.9814 162.119 80.8176 162.119 82.3597 162.078C83.9018 162.038 84.0639 161.957 84.2309 161.873" stroke="#FFFDF4" stroke-width="2" stroke-linecap="round"/>
<path d="M113.207 158.804C113.655 158.844 114.228 158.926 114.454 158.825C115.429 158.386 113.086 156.272 112.595 155.511C112.203 154.905 111.94 154.385 111.775 154.18C111.723 154.116 111.935 154.057 112.12 154.137C113.827 154.881 116.19 156.061 117.212 156.57C119.385 157.653 121.3 158.718 122.453 159.049C123.503 159.35 124.822 159.702 126.094 160.03C127.164 160.306 128.22 160.643 129.53 160.87C130.732 161.078 131.663 160.85 131.909 160.708C132.023 160.642 131.992 160.444 131.931 160.3C131.559 159.417 129.5 160.071 128.68 160.276C127.869 160.48 125.991 160.523 124.832 160.93C124.658 160.991 124.748 161.296 124.89 161.461C125.534 162.212 126.585 161.996 127.324 162.2C127.488 162.245 127.651 162.242 127.673 162.302C128.175 163.644 123.483 162.691 122.746 162.855C121.843 163.055 120.866 163.305 119.416 163.448C115.805 163.806 114.97 163.143 114.09 162.857C113.282 162.594 112.556 162.325 111.757 162.079C111.012 161.85 110.631 161.058 110.139 160.524C110.021 160.396 109.894 160.28 109.852 160.116C109.601 159.146 110.869 157.421 111.282 156.351C111.362 156.145 111.485 155.943 111.548 155.94C112.25 155.905 112.711 157.328 114.917 158.696C116.258 159.528 117.705 159.744 118.667 159.908C119.48 160.047 120.446 160.277 121.266 160.46C122.653 160.769 123.884 161.34 124.319 161.505C126.637 162.381 119.348 158.929 118.266 158.417C117.146 157.887 116.362 157.495 115.604 157.249C114.648 156.94 113.784 157.453 113.188 157.33C112.65 157.22 113.737 158.514 113.74 159.211C113.742 159.836 112.392 159.172 111.921 159.253C111.755 159.281 111.814 159.496 111.856 159.377C112.233 158.284 112.183 157.659 112.306 157.515C112.69 157.064 112.021 158.841 111.449 160.068C111.23 160.538 111.202 160.93 111.221 161.196C111.282 162.01 113.163 161.463 114.264 161.647C117.291 162.151 117.951 162.895 118.729 163.1C118.932 163.154 119.137 163.182 119.16 163.102C119.653 161.402 115.461 160.361 114.011 159.951C113.312 159.754 112.759 159.745 112.452 159.785C112.321 159.802 112.347 160.068 112.428 160.233C112.773 160.936 114.626 161.5 118.025 162.362C119.124 162.641 120.036 162.814 121.202 162.957C121.668 163.015 122.401 162.978 122.675 162.917C124.167 162.587 118.693 161.301 118.609 161.178C119.832 161.339 121.143 161.75 121.799 161.974C121.963 162.036 122.125 162.077 122.415 161.996" stroke="#FFFDF4" stroke-width="2" stroke-linecap="round"/>
<path d="M80.302 158.681C80.9539 158.721 81.8539 158.885 82.5095 158.947C82.8403 158.978 83.3678 159.049 83.8392 159.009C84.3281 158.967 82.679 158.6 81.779 158.518C80.8476 158.432 80.2234 158.028 79.5272 157.802C78.658 157.52 77.4461 157.249 76.1723 157.594C75.1942 157.859 74.4552 158.678 73.5319 158.864C72.5874 159.055 71.754 159.661 70.8712 159.847C70.6803 159.887 70.5238 160.029 70.5011 160.152C70.4532 160.412 73.3993 160.523 77.5928 160.543C79.9355 160.554 80.992 160.849 81.8134 160.952C82.2935 161.012 84.3758 161.259 87.4023 161.219C88.9748 161.198 89.8739 161.014 90.5092 161.014C90.981 161.014 88.0936 160.525 83.8564 160.38C82.9231 160.347 82.555 160.196 82.1872 160.012C82.0133 159.926 81.9005 159.788 81.8987 159.645C81.8969 159.501 82.0184 159.339 82.2634 159.215C82.8372 158.924 85.3961 158.926 88.3459 158.926C89.3076 158.926 83.8061 158.681 82.1455 159.088C81.7173 159.193 81.6538 159.785 81.5911 159.908C80.942 161.187 85.8148 158.887 87.867 158.478C88.8088 158.29 89.5473 158.232 90.4687 158.047C90.9121 157.959 91.2686 157.74 91.4332 157.557C91.5016 157.48 91.2736 157.333 91.028 157.331C90.4459 157.327 89.9217 157.576 89.0476 157.677C87.2283 157.888 84.8976 158.19 83.3807 158.149C81.7495 158.106 87.6196 157.782 88.7701 157.678C89.7147 157.593 90.5295 157.495 91.8181 156.964C92.7192 156.594 92.9458 155.41 93.3559 154.775C93.5672 154.447 93.9293 154.222 94.2147 154.016C94.8453 153.564 96.0104 154.912 96.8748 155.263C97.697 155.597 98.714 156.184 99.5956 156.551C100.677 157.002 101.948 157.208 102.808 157.452C103.936 157.772 105.018 157.78 105.735 158.025C106.576 158.313 107.677 158.394 109.455 158.456C110.054 158.476 110.503 158.558 110.77 158.599C110.984 158.631 108.195 158.601 104.799 158.274C103.425 158.142 101.438 158.026 98.4936 157.925C96.418 157.853 95.4505 157.537 93.3246 157.473C92.1524 157.438 91.1115 158.106 90.3926 158.577C89.7376 159.005 89.3484 159.416 89.1838 159.641C88.7892 160.18 90.7333 160.154 91.839 160.358C92.851 160.545 93.8421 160.604 95.6224 160.666C96.6753 160.702 97.5672 160.93 98.5722 161.156C98.8012 161.208 99.0013 161.299 99.0246 161.381C99.048 161.463 98.8859 161.544 98.7214 161.566C96.9973 161.791 94.3455 159.135 93.5444 158.478C93.2054 158.2 92.6241 158.19 92.0722 158.271C91.6512 158.333 91.5167 158.843 91.4749 159.129C91.4561 159.258 91.6763 159.334 91.861 159.356C92.6668 159.449 93.4762 158.887 94.235 158.193C94.9181 157.568 94.9938 156.557 94.9545 155.676C94.9454 155.473 94.7114 155.368 94.5469 155.306C94.3823 155.243 94.2203 155.243 94.1165 155.324C94.0128 155.405 93.9723 155.567 94.0122 155.772C94.2373 156.929 95.8901 157.492 97.0166 158.248C97.2608 158.412 97.3659 158.556 97.2664 158.416C96.3552 157.133 95.7329 156.269 95.5469 155.756C95.2827 155.026 97.2799 156.876 98.0817 157.472C99.2781 158.36 100.639 158.801 101.295 159.069C102.673 159.631 105.018 160.071 105.715 160.175C106.427 160.28 107.147 160.604 107.903 160.706C109.15 160.875 109.726 161.136 109.952 161.076C110.54 160.918 108.915 160.196 107.625 159.747C107.323 159.641 107.073 159.663 107.069 159.683C106.886 160.689 109.722 159.624 110.544 159.133C110.721 159.028 110.71 158.767 110.67 158.581C110.506 157.82 109.811 157.537 109.607 157.392C108.887 156.883 108.298 158.556 107.583 159.088C106.07 160.214 102.503 160.154 100.912 160.012C99.4794 159.884 96.0079 159.663 94.9919 159.744C94.6172 159.774 95.5254 160.397 95.7096 160.928C96.0729 161.974 95.5266 162.567 95.5064 162.752C95.4252 163.496 95.0355 161.303 95.1368 160.893C95.3207 160.149 96.4647 161.748 97.1203 162.342C97.8032 162.96 98.6747 163.386 99.2284 163.795C99.3618 163.894 99.5342 163.919 99.5974 163.838C100.003 163.322 99.3746 162.531 99.4138 161.162C99.4231 160.841 99.6569 160.69 99.9025 160.606C100.148 160.523 100.472 160.523 100.74 160.624C101.265 160.822 101.42 161.704 101.501 162.502C101.596 163.435 103.831 162.649 104.305 162.937C104.986 163.351 103.306 161.753 102.71 161.159C102.238 160.687 104.404 161.79 105.142 162.117C105.971 162.486 106.898 162.487 107.822 162.589C108.047 162.614 108.291 162.61 108.335 162.569C108.768 162.173 106.302 161.591 103.905 161.076C103.396 160.967 103.024 161.014 102.917 161.054C102.972 161.176 103.666 161.259 104.545 161.239C104.897 161.219 105.059 161.178 105.472 161.136" stroke="#FFFDF4" stroke-width="2" stroke-linecap="round"/>
<path d="M95.4038 158.558H98.5961" stroke="#FFFDF4" stroke-width="2" stroke-linecap="round"/>
<path d="M75.8817 42.961C75.4753 42.6356 74.2512 41.495 73.245 40.5287C72.4726 39.787 71.5869 39.0345 70.647 38.3592C69.9088 37.8289 69.0109 37.8043 67.3804 37.7024C64.3855 37.5152 62.538 37.6815 62.9254 37.722C64.8848 37.9269 67.5695 38.5802 68.3479 38.8467C69.507 39.2434 70.3124 39.5207 70.968 39.6865C71.3059 39.7719 71.6237 39.8915 71.7274 39.7902C72.5968 38.9414 69.9097 38.094 68.9489 37.2143C67.8851 36.2402 67.0845 36.2499 66.8383 36.0663C66.1896 35.5826 70.6635 35.3929 72.7662 35.1037C73.8824 34.9502 74.7718 34.7348 75.9572 34.6329C77.3379 34.612 78.5792 34.693 79.2127 34.8361C79.4816 34.8981 79.6437 34.9386 79.8106 34.9803" stroke="#FFFDF4" stroke-width="2" stroke-linecap="round"/>
<path d="M76.864 42.7154C76.9856 42.7154 77.1071 42.7154 83.7538 42.7154C90.4005 42.7154 103.569 42.7154 110.433 42.6952C117.298 42.6749 117.46 42.6344 117.665 42.6135C117.87 42.5926 118.113 42.5926 118.364 42.2243" stroke="#FFFDF4" stroke-width="2" stroke-linecap="round"/>
<path d="M118.364 42.2243C118.08 42.2243 117.796 42.2243 116.05 41.9609C114.303 41.6976 111.102 41.1709 109.048 40.8995C106.196 40.5227 104.701 40.7497 102.726 40.9542C99.4291 41.2954 97.4898 40.9572 97.7753 40.6509C98.4193 39.9597 99.4923 39.9332 100.311 39.5661C101.855 38.874 102.564 38.051 102.709 37.9074C103.195 37.4225 101.219 37.9688 100.563 38.0081C99.7535 38.0566 99.7428 39.0713 99.7011 39.2561C99.5453 39.9456 100.723 37.8902 101.762 36.5015C102.788 35.1307 103.954 34.2461 104.526 33.8575C104.899 33.6045 105.306 33.5487 107.679 33.4259C109.848 33.3137 113.983 33.3842 116.294 33.4247C119.601 33.4827 120.731 33.8753 121.879 34.2013C122.741 34.4458 123.638 34.612 124.519 34.8766C125.961 35.3097 126.953 35.5918 127.916 36.124C128.676 36.8208 129.085 37.1891 129.391 37.4341C129.535 37.5575 129.657 37.679 129.905 37.6815" stroke="#FFFDF4" stroke-width="2" stroke-linecap="round"/>
<path d="M129.905 37.6815C129.905 37.7625 130.067 38.0068 130.393 38.4151C130.558 38.6207 130.72 38.8233 130.885 39.0087C131.049 39.1941 131.211 39.3562 131.378 39.2776" stroke="#FFFDF4" stroke-width="2" stroke-linecap="round"/>
<path d="M131.378 39.2776C131.216 39.2776 128.418 39.2776 124.163 39.2979C121.716 39.3095 120.579 39.808 118.678 40.6859C117.336 41.3056 116.36 41.6092 116.175 41.8542C116.1 41.9543 116.274 42.0991 116.438 42.182C117.177 42.5555 118.155 41.9812 118.893 41.5914C119.747 41.1399 120.854 41.08 123.469 40.956C124.928 40.8869 126.133 40.4661 128.015 40.0364C128.68 39.8846 129.085 39.7282 129.351 39.5655C129.487 39.4819 129.495 39.2408 129.516 39.0351C129.537 38.8295 129.537 38.6269 128.828 38.5023C126.726 38.1329 123.902 38.0523 121.654 37.6029C118.863 37.0452 116.284 36.4132 116.212 36.3518C114.141 34.582 121.835 36.493 123.082 36.7791C124.079 37.0077 124.623 37.5145 125.46 37.8239C127.561 38.601 129.571 38.1309 130.456 38.2137C131.331 38.2957 127.909 36.6624 126.005 36.3518C122.508 35.7809 120.741 35.9233 119.658 35.636C119.318 35.5459 118.904 35.5942 118.837 35.6347C118.16 36.0445 120.569 36.0436 121.146 36.0043C121.984 35.9472 118.459 35.0638 116.305 34.7765C113.602 34.4159 110.975 34.693 109.384 34.8569C108.258 34.9729 107.112 34.8183 105.172 34.8361C104.212 34.8449 104.205 36.3677 103.511 37.0848C102.132 38.5103 101.299 39.1941 101.195 39.4194C101.12 39.5848 102.07 39.1168 103.779 38.3224C106.728 36.9521 109.434 36.1283 110.843 35.8214C111.477 35.6835 111.969 35.717 112.058 35.7778C112.303 35.9466 109.908 36.1259 107.088 36.2683C104.984 36.3746 103.919 36.7803 104.057 36.8828C105.049 37.6155 107.1 37.1056 108.653 37.5759C110.649 38.1804 111.896 38.622 111.918 38.8663C111.984 39.5756 110.347 39.6042 108.577 39.727C103.194 40.1003 102.568 39.9726 102.403 40.1358C102.147 40.3891 105.002 40.4637 108.476 40.4852C110.91 40.5002 112.099 39.9738 112.468 39.8314C112.618 39.7731 112.593 39.5674 112.431 39.4231C111.298 38.4144 107.905 38.8258 106.11 39.215C105.842 39.2733 105.599 39.2776 105.96 39.1561C106.321 39.0345 107.294 38.7914 108.808 38.2407C112.385 36.9393 114.84 35.7195 115.515 35.2701C115.797 35.082 115.906 34.9017 115.968 34.8993C116.848 34.8648 113.703 36.493 112.088 37.3702C111.059 37.9293 110.507 38.5802 110.303 38.9068C110.205 39.063 110.179 39.2334 110.158 39.3979C109.952 41.0241 115.535 37.1511 116.375 36.8638C116.63 36.7767 117.006 36.822 117.254 36.9031C117.503 36.9841 117.625 37.1462 117.1 37.5538C115.519 38.7812 114.027 39.3992 113.761 39.6644C113.522 39.9031 113.575 40.3397 113.656 40.6669C113.812 41.2946 116.058 40.3065 117.664 39.6883C117.908 39.5944 118.074 39.5649 118.178 39.6453C118.281 39.7258 118.322 39.9284 118.241 40.1543C118.058 40.6703 117.588 41.0763 117.383 41.282C116.703 41.9641 119.054 39.037 120.242 38.3789C120.471 38.2521 120.652 38.2954 120.655 38.2954C122.657 38.2954 115.173 39.1536 115.313 39.3378C116.971 39.2383 117.298 38.8688 118.334 38.7871C119.207 38.746 120.787 38.7055 122.415 38.6637" stroke="#FFFDF4" stroke-width="2" stroke-linecap="round"/>
<path d="M86.9319 43.9432C87.3383 44.1458 88.1572 44.8813 88.7711 45.3736C89.5701 46.0144 89.8761 46.8458 90.1843 47.4406C90.4613 47.9754 91.7547 47.3811 93.3097 47.1981C94.4327 47.066 96.8586 46.7672 99.763 46.8077C101.835 46.8366 103.134 47.0938 104.117 47.3596C105.053 47.6126 105.958 47.9925 106.798 48.2197C108.047 48.5572 111.095 47.8722 113.284 47.6481C114.272 47.547 114.8 46.7696 115.211 46.1152C115.492 45.6653 115.703 45.2545 115.764 44.8672C115.8 44.6437 115.785 44.3582 115.522 44.2324C115.258 44.1065 114.732 44.1471 112.961 44.6339C111.191 45.1207 108.192 46.0526 106.547 46.5327C104.901 47.0127 104.698 47.0127 105.161 47.0127C108.13 47.0127 110.081 47.1355 111.484 46.8912C112.816 46.6593 113.612 46.3988 114.33 46.1748C115.207 45.9009 116.028 45.257 116.907 44.2539C117.101 44.0328 117.175 43.8647 116.204 43.8825C115.233 43.9003 113.207 44.1029 111.414 44.4301C106.242 45.3738 105.435 46.1926 104.251 46.378C102.766 46.6103 101.505 46.4394 100.913 46.5007C100.606 46.5326 100.28 46.5216 100.883 46.4811C103.024 46.3372 104.855 46.2355 105.75 45.9513C108.885 44.9558 109.44 44.3128 109.766 44.0679C110.093 43.8229 107.586 43.6977 103.433 43.7179C101.292 43.7284 100.401 44.1471 99.011 44.4945C97.73 44.8148 96.7985 44.8027 95.7984 44.9046C95.2917 44.9562 94.4386 44.9255 94.2839 44.966C93.8679 45.075 96.78 45.171 99.5579 45.2318C101.856 45.2821 104.068 45.5394 105.93 45.5191C107.107 45.4166 107.76 45.3356 108.356 45.2736C108.379 45.2533 108.217 45.2128 107.804 44.9255" stroke="#FFFDF4" stroke-width="2" stroke-linecap="round"/>
<path d="M107.804 44.9255C107.602 44.9255 107.399 44.9255 105.087 45.047C102.774 45.1686 98.3578 45.4117 95.8801 45.5977C92.989 45.8147 91.9315 46.0305 90.8885 45.9089C89.8067 45.7829 89.7976 44.6406 89.7761 44.4153C89.6135 42.7097 94.6192 45.3749 95.7844 45.4976C97.0871 45.6349 89.6773 44.3116 89.2672 44.2913C89.1699 44.2865 91.5767 44.1483 95.2546 43.9856C97.9768 43.8652 99.4518 43.3306 99.903 43.0451C100.228 42.8396 97.1877 41.9026 92.5731 40.9824C90.3646 40.542 88.3636 40.5079 86.6723 40.3237C81.9618 39.8108 81.0827 39.4839 79.8979 39.2985C79.5322 39.2413 79.1232 39.2776 79.8666 39.8854C82.3555 41.9201 84.6384 42.961 84.965 42.9813C86.3106 43.0647 90.3059 42.3888 91.9635 42.4895C92.1387 42.5002 92.29 42.632 92.0899 42.6332C91.3184 42.6379 89.9683 42.1863 88.0726 41.5945C83.5726 40.1897 81.8219 40.7092 81.1011 40.832C80.3479 40.9603 82.2651 41.7725 82.348 42.0383C82.6644 43.0531 79.489 41.8977 78.586 41.6522C77.7476 41.4242 76.6651 41.3649 75.4766 41.0186C74.605 40.7647 73.5956 39.8964 72.4286 39.0971C70.6289 37.8645 69.9515 37.1118 69.539 36.2327C69.4074 35.9522 69.4972 35.5206 69.5985 35.2713C69.7675 34.8555 71.4887 34.8575 73.7988 34.7968C76.4002 34.7283 78.4135 34.0398 80.947 34.0183C82.075 34.0088 82.9563 34.3664 84.4266 34.6507C88.3124 35.4019 89.5447 36.1246 90.7136 36.636C92.2392 37.3035 94.2545 38.1701 95.378 38.8246C97.0093 39.7748 98.0607 40.2156 98.4118 40.77C98.5739 41.0259 96.7249 40.0622 94.7021 38.897C93.2636 38.0684 91.972 37.6029 90.3016 36.8687C87.817 35.7766 84.9797 35.2689 83.0368 34.9619C81.461 34.713 80.1827 34.612 79.7518 34.6525C79.6744 34.6598 79.9286 34.7741 81.6745 35.1399C83.4204 35.5058 86.6618 36.1541 88.6355 36.5893C92.1354 37.3612 92.9039 38.1284 93.6001 38.7226C93.8097 38.9016 94.0483 39.1499 94.0722 39.2954C94.1141 39.5499 92.6314 38.8749 90.4072 37.7103C86.644 35.7399 85.38 36.2499 83.2977 35.9024C82.8429 35.8265 82.6789 35.8398 82.5143 35.8195C82.3498 35.7993 82.1877 35.7587 84.0896 36.6495C85.9915 37.5403 89.9621 39.3636 92.6357 40.5257C97.9879 42.8521 98.6758 42.9193 98.8815 43.0015C99.081 43.0813 96.6905 41.6227 92.5104 39.1935C90.1873 37.8434 87.1554 36.8048 85.5507 36.1995C83.9459 35.5942 83.7839 35.5942 83.8422 35.6753C83.9005 35.7563 84.1841 35.9184 85.9104 36.7514C87.6367 37.5845 90.7971 39.0836 92.5061 39.8964C94.2152 40.7092 94.3773 40.7903 94.3595 40.8117C94.3417 40.8332 94.1391 40.7927 92.4951 40.1438C90.8511 39.4949 87.7718 38.2389 86.0639 37.5716C83.7544 36.6692 81.3455 36.4979 79.7929 36.0866C78.8341 35.8325 77.1194 35.6777 75.8241 35.5126C74.6265 35.3599 72.5741 35.4321 71.385 35.2468C70.9811 35.1838 70.369 35.2259 70.1369 35.1448C69.9049 35.0638 70.0669 34.9017 70.3935 34.8183C71.8712 34.4405 72.8884 34.4082 74.3212 34.1626C75.2964 33.9955 76.2035 33.836 78.1262 33.8336C78.4698 33.8331 78.4601 34.0767 78.3994 34.302C78.1061 35.389 76.8296 36.0411 75.9051 36.4524C75.7197 36.5347 75.5576 36.6157 75.3526 36.6575C75.1475 36.6992 74.9044 36.6992 74.654 36.6992" stroke="#FFFDF4" stroke-width="2" stroke-linecap="round"/>
<path d="M74.1629 38.4182C73.8375 38.0523 73.0211 37.3156 72.3237 36.9258C71.6391 36.5431 71.0959 36.0068 70.563 35.717C70.4819 35.6729 70.4795 35.9184 70.5605 36.0626C71.0345 36.9063 72.2353 37.4752 73.6251 38.2309C74.8911 38.9193 78.1066 40.2893 79.8507 40.9965C80.5534 41.2815 78.1803 39.8964 76.6652 39.0757C75.4381 38.4109 74.4944 38.0105 73.6951 37.5606C73.5011 37.4513 73.3477 37.3156 73.3249 37.1922C73.3022 37.0688 73.4238 36.9473 73.5877 36.9049C73.7516 36.8625 73.9542 36.9031 75.4361 37.3291C76.9181 37.7552 79.6733 38.5655 81.2141 39.0235C82.755 39.4814 82.9981 39.5625 83.2044 39.6042C83.4107 39.646 83.5727 39.646 83.17 39.4231C80.2459 37.805 78.2196 37.6005 77.2349 37.5385C77.1467 37.5329 77.311 37.4777 78.8531 37.7809C80.3952 38.0842 83.3125 38.7325 85.0179 39.1475C87.9301 39.8561 88.9751 40.2574 89.8345 40.7086C90.0408 40.7915 90.2029 40.832 90.1851 40.7719C90.1672 40.7117 89.9647 40.5496 89.7559 40.3826" stroke="#FFFDF4" stroke-width="2" stroke-linecap="round"/>
</svg>
