<svg width="198" height="180" viewBox="0 0 198 180" fill="none" xmlns="http://www.w3.org/2000/svg">
<path d="M93.9312 96.0728C94.8077 96.6581 101.425 97.2493 105.884 96.517C107.567 96.2405 109.313 95.0023 110.935 93.7243C112.382 92.5849 113.531 90.3965 115.053 88.2377C115.68 87.3484 116.378 86.6642 117.791 86.223C120.349 85.4246 122.457 86.3642 122.995 86.9995C124.062 88.2585 123.831 90.2788 123.882 95.9037C123.932 101.34 123.831 108.614 124.272 110.184C124.835 112.188 126.96 115.173 128.338 117.195C128.826 117.91 129.516 118.52 129.957 119.302C130.164 119.669 130.107 120.084 129.525 120.284C126.369 121.368 124.237 119.608 122.222 118.674C120.431 117.844 119.037 116.567 117.076 115.049C114.902 113.365 112.272 114.696 110.213 115.384C108.605 115.922 105.037 116.073 101.296 114.902C98.1902 113.93 96.49 112.155 95.0636 111.029C93.3759 109.696 91.9783 108.331 90.1151 107.643C89.193 107.303 87.9578 107.155 86.6857 106.373C84.4386 104.991 84.2255 101.967 83.7373 98.3949C82.9321 92.5041 84.3196 90.1082 84.9093 87.9921C85.6064 85.4906 87.449 82.6613 88.9269 80.2951C89.9586 78.6435 91.7666 77.2555 95.1915 75.6864C97.7529 74.5129 100.29 74.7026 102.306 74.3585C104.89 73.9175 107.06 73.232 109.069 72.0115C112.038 70.2076 112.454 68.138 113.828 66.1792C115.163 64.2759 116.084 61.7675 116.772 57.8131C118.313 48.9567 116.384 46.6736 115.699 44.6589C115.035 42.7094 112.272 41.8619 110.165 40.784C108.17 39.7636 105.808 39.0208 103.449 38.184C99.0266 36.6153 91.096 38.2267 88.549 39.3531C86.4013 40.3029 84.3373 42.9207 81.3432 46.6486C79.1038 49.4368 77.2727 55.2617 74.3345 62.4204C72.9013 65.9122 72.461 67.7321 71.6316 70.9615C71.2032 72.6295 70.9904 77.4055 70.8934 84.0172C70.7913 90.9719 70.9845 97.0317 72.3095 99.7904C73.2877 101.827 74.6139 104.59 75.6918 106.312C76.6395 107.826 77.7491 109.496 79.3667 112.043C80.5805 113.954 81.2785 117.037 82.4549 119.737C84.3022 123.977 85.9843 125.084 87.7475 127.68C89.2902 129.951 91.2783 130.772 93.2857 131.902C95.0671 132.904 96.6665 133.619 99.6061 134.744C100.784 135.09 101.769 135.287 103.135 135.434C104.016 135.484 105.278 135.484 106.578 135.484" stroke="#FFFDF4" stroke-width="2.4" stroke-linecap="round"/>
<path d="M107.461 82.8378C108.143 82.3496 109.902 80.9849 111.28 79.3628C112.653 77.7471 114.414 75.2026 115.203 73.1879C115.94 71.3087 116.673 69.4145 117.361 67.063C117.461 65.9851 117.558 64.9028 117.705 62.8557C117.755 61.391 117.755 59.0617 117.755 56.6617" stroke="#FFFDF4" stroke-width="2.4" stroke-linecap="round"/>
<path d="M60.4023 118.131C60.3052 116.378 59.7199 112.267 58.8861 108.001C57.9629 103.277 56.4847 98.0493 55.5038 95.6405C54.3821 92.8857 54.2259 90.3965 53.2495 83.3289C52.6422 78.9339 53.0495 71.1321 53.1465 66.7924C53.2857 60.5703 54.0259 58.8264 54.5671 57.2558C55.1743 55.4937 56.5729 53.8264 58.7273 50.2059C60.2573 47.6347 61.4729 45.0089 63.1905 42.6502C64.3465 41.0626 65.3963 39.609 66.6713 37.6517C68.4278 34.9552 69.708 33.1444 71.4242 30.74C73.2816 28.1377 75.6844 27.5504 78.1373 26.5195C80.9926 25.3195 83.4255 24.3151 86.3725 23.2343C88.1245 22.5917 89.9018 22.0564 93.2239 21.7122C102.113 20.7914 104.119 21.9564 105.982 22.4931C107.939 23.0567 110.29 23.8151 112.697 24.746C115.03 25.648 115.884 27.8327 117.894 29.743C119.259 31.0401 121.272 31.7562 123.091 32.3459C125.1 32.9972 126.472 34.7914 128.042 36.5561C130.259 39.0468 130.595 42.2384 131.232 44.5457C131.776 46.5147 132.16 48.3207 133.094 50.575C133.813 52.3118 134.907 53.9088 135.595 57.0808C137.75 67.0104 135.107 69.985 134.619 72.3879C134.216 74.3688 134.225 82.1848 134.761 87.4848C135.05 90.3359 136.183 93.8023 137.161 98.017C137.977 101.533 139.025 103.22 140.005 105.134C140.849 106.781 141.672 109.002 142.213 110.773C142.788 112.655 143.242 114.79 143.83 117.043C144.222 119.987 144.813 122.337 145.057 126.147C145.107 128.099 145.107 131.302 144.519 134.602" stroke="#FFFDF4" stroke-width="2.4" stroke-linecap="round"/>
<path d="M144.519 134.602C144.519 137.519 144.131 143.219 143.492 145.328C142.621 148.206 141.19 149.79 139.526 151.36C137.881 152.914 135.707 153.419 134.035 154.597C132.966 155.35 131.778 155.678 129.685 156.409C125.041 158.031 119.155 158.719 114.794 158.622C111.548 158.55 108.849 157.743 106.39 156.957C104.341 156.303 101.496 154.707 98.9887 153.429C96.8355 152.332 94.7255 151.272 92.9579 150.194C91.0075 149.005 88.555 148.043 86.8286 146.713C85.3737 145.593 83.9374 144.119 82.5154 142.353C81.2733 140.81 79.8199 139.119 77.6655 136.865C76.2243 135.357 74.6258 134.408 73.0067 133.137C71.1669 131.693 69.6259 130.49 67.8597 128.824C66.5414 127.58 65.3142 125.69 63.9848 124.264C62.8584 122.84 61.4848 121.472 61.1393 119.462C60.9937 119.017 60.7025 118.725 60.1084 118.425" stroke="#FFFDF4" stroke-width="2.4" stroke-linecap="round"/>
</svg>
