<svg width="198" height="180" viewBox="0 0 198 180" fill="none" xmlns="http://www.w3.org/2000/svg">
<path d="M110.038 98.1371C110.481 98.1371 114.269 97.3812 117 96.9602C120.106 96.4817 124.222 96.5489 125.432 96.3561C127.172 96.0789 128.925 95.5944 130.807 95.1477C132.659 94.7083 134.595 94.1933 136.152 93.7485C137.905 93.2479 139.81 92.731 140.959 92.5382C142.622 92.2593 144.712 91.2039 145.953 90.8527C146.304 90.7572 146.682 90.6312 147.286 90.5663C147.89 90.5014 148.709 90.5014 149.171 89.9287" stroke="#FFFDF4" stroke-width="2" stroke-linecap="round"/>
<path d="M44.9441 77.3299C46.2708 77.1409 49.3232 76.7572 50.73 76.3773C52.074 76.0144 53.0837 75.7416 54.6414 75.4219C56.0817 75.1262 57.0925 74.7223 58.3648 74.4359C59.8963 74.0913 61.0363 73.8327 62.342 73.513C63.8281 73.149 65.4879 72.9393 67.4302 72.4325C69.2263 71.9639 71.1498 71.542 73.1255 71.3807C75.2225 71.2095 77.5179 71.0953 79.2656 70.9044C81.0615 70.7083 82.0993 70.0149 83.4356 69.8221C83.7563 69.7591 84.0083 69.6331 84.4845 69.5682C84.9608 69.5033 85.6538 69.5033 86.1768 69.3124" stroke="#FFFDF4" stroke-width="2" stroke-linecap="round"/>
<path d="M47.1846 122.429C47.0536 123.261 46.6131 125.287 46.4133 126.592C46.2419 127.713 45.994 129.216 45.8623 130.011C45.4322 132.609 45.8167 136.889 46.1686 137.662C46.5928 138.594 47.4015 139.095 48.3494 139.625C49.2325 140.119 49.9151 140.595 50.7313 141.037C51.4991 141.452 52.4286 141.786 53.2885 142.249C54.2238 142.753 55.1618 143.064 56.0448 143.396C57.1809 143.823 58.5114 144.519 59.6379 144.917C60.6997 145.293 61.4245 145.578 62.2844 145.866C63.2649 146.195 64.1576 146.416 65.1716 146.725C66.8962 147.25 68.518 148.001 70.9667 148.709C72.1042 149.038 73.5027 149.501 75.0922 149.966C76.5087 150.381 77.3868 150.737 78.1601 150.915C79.4141 151.205 81.3079 151.973 82.3491 152.194C83.1349 152.361 83.9141 152.679 84.6424 152.965C85.6419 153.358 87.0865 153.78 88.1031 154.2C89.2508 154.707 89.9572 155.06 90.3091 155.236C90.4864 155.325 90.661 155.412 91.1055 155.502" stroke="#FFFDF4" stroke-width="2" stroke-linecap="round"/>
<path d="M91.1055 155.502C91.677 155.722 93.2539 156.248 94.7375 156.822C97.1367 157.751 97.9793 158.278 98.7757 158.764C99.6688 159.309 101.067 159.69 102.104 159.845C103.175 160.005 103.89 159.648 105.014 158.989C105.969 158.428 106.581 157.05 107.221 155.333C107.889 153.539 107.949 152.51 108.082 151.427C108.197 150.502 108.653 148.856 108.898 147.063C109.273 145.759 109.405 145.097 109.472 144.636C109.494 144.392 109.494 144.13 109.494 143.86" stroke="#FFFDF4" stroke-width="2" stroke-linecap="round"/>
<path d="M109.494 143.86C109.538 143.245 109.801 142.365 110.087 140.981C110.907 137.02 111.301 136.193 111.39 135.134C111.521 133.571 111.83 132.446 112.117 131.318C112.332 130.47 113.058 126.697 113.748 123.935C114.264 121.87 114.389 121.154 114.564 120.097C114.81 118.617 115.267 116.537 115.513 114.519C115.675 113.183 115.931 112.335 117.404 106.645C118.248 103.384 117.916 102.501 118.026 101.707C118.401 100.515 118.577 99.7225 118.732 98.8633C118.755 98.5332 118.755 98.053 119.151 97.5582" stroke="#FFFDF4" stroke-width="2" stroke-linecap="round"/>
<path d="M75.4951 72.2905C75.5824 72.8593 76.0216 74.3569 76.3319 75.527C76.6919 76.8849 77.1673 78.1907 77.369 79.2107C77.553 80.1409 77.7441 80.8418 78.0073 81.5483C78.1833 81.9001 78.3606 82.2983 78.4929 82.7164C78.5378 82.9161 78.5378 83.0908 78.6701 83.1384" stroke="#FFFDF4" stroke-width="2" stroke-linecap="round"/>
<path d="M87.7981 115.947C87.8418 116.297 88.0177 117.264 88.3041 118.214C88.5994 119.193 89.0734 120.437 89.5384 121.346C89.8947 122.043 90.5736 122.646 91.2569 123.243C92.1373 124.011 93.2617 124.456 94.166 124.765C96.2748 125.485 98.1565 126.527 99.1276 126.948C99.9885 127.32 100.935 127.631 101.796 127.874C102.535 128.083 103.229 128.292 103.935 128.536C104.786 128.829 106.004 129.306 106.845 129.594C107.605 129.854 108.388 130.057 109.446 130.563C110.33 130.894 110.859 131.204 111.233 131.27C111.432 131.293 111.65 131.293 112.008 131.425" stroke="#FFFDF4" stroke-width="2" stroke-linecap="round"/>
<path d="M112.107 131.69C112.458 131.69 113.337 131.777 114.768 132.239C116.805 132.896 117.79 133.187 118.587 133.518C119.404 133.858 120.394 134.158 121.144 134.313C122.233 134.538 123.391 134.732 124.604 135.083C125.511 135.346 126.651 135.701 127.78 136.054C128.925 136.412 130.003 136.582 130.933 136.848C131.891 137.123 132.784 137.333 133.755 137.488C135.153 137.711 138.756 137.775 141.229 137.248C141.733 137.141 141.828 136.542 141.982 136.168C142.546 134.8 142.05 132.663 141.983 131.627C141.932 130.83 141.608 129.888 141.257 127.707C141.001 126.121 140.462 124.461 140.154 123.711C139.978 123.228 139.888 122.784 139.866 122.432C139.845 122.254 139.801 122.08 139.756 121.768" stroke="#FFFDF4" stroke-width="2" stroke-linecap="round"/>
<path d="M139.756 121.768C139.669 121.33 139.142 119.05 138.918 117.318C138.8 116.402 138.565 115.555 138.126 113.509C137.638 111.235 137.467 108.298 137.199 106.205C137.065 105.165 136.758 104.046 136.603 103.052C136.416 101.851 136.361 100.871 136.206 99.8773C136.019 98.6724 135.919 97.7831 135.7 97.0317C135.568 96.2816 135.303 95.4018 134.929 94.5188C134.861 94.2972 134.861 94.0789 134.861 93.854" stroke="#FFFDF4" stroke-width="2" stroke-linecap="round"/>
<path d="M44.5056 97.0291C44.5056 98.6893 44.6366 101.923 44.9442 102.165C45.7114 102.769 46.707 103.025 47.6105 103.333C49.0117 103.812 49.9693 104.567 50.8741 104.834C51.8198 105.112 52.9644 105.713 54.5538 106.375C56.3204 107.112 58.1714 107.477 59.6471 107.919C60.8635 108.284 61.8729 108.668 63.2831 109.109C66.6563 110.165 68.2176 110.74 69.9004 111.161C71.2259 111.404 72.1943 111.712 73.0086 111.911C73.3863 111.978 73.6918 111.978 74.0067 111.978" stroke="#FFFDF4" stroke-width="2" stroke-linecap="round"/>
<path d="M74.0068 111.978C74.4011 112.065 76.6791 112.592 78.4776 113.035C80.0386 113.42 81.1003 113.653 82.1818 113.983C84.2852 114.625 85.6432 114.843 87.031 115.107C89.2223 115.524 90.3158 115.902 92.0144 116.408C93.1818 116.756 94.1549 117.18 95.1034 117.423C96.4561 117.77 97.5072 118.151 98.3452 118.327C99.3606 118.541 100.68 118.9 102.311 119.253C102.754 119.341 103.19 119.429 103.524 119.517C103.858 119.606 104.077 119.693 104.434 119.519" stroke="#FFFDF4" stroke-width="2" stroke-linecap="round"/>
<path d="M104.566 118.989C104.873 118.902 105.751 118.55 107.733 117.692C109.25 117.036 110.337 116.479 111.332 115.971C112.308 115.472 113.379 114.891 114.33 114.537C115.644 114.048 116.205 113.568 117.196 113.28C118.308 112.956 119.6 112.42 120.415 112.068C121.707 111.511 122.685 111.187 123.634 110.811C125.186 110.197 125.905 109.599 126.876 108.982C127.959 108.293 130.088 107.176 131.396 106.446C132.525 105.816 133.842 105.101 135.384 104.242C136.383 103.686 137.15 103.117 138.143 102.697C139.064 102.307 139.708 101.662 140.415 100.957C141.247 100.126 141.605 99.1933 142.179 98.3553C142.802 97.4437 143.193 96.5925 143.547 95.7974C143.636 94.8264 143.812 94.1649 143.944 93.7032C143.989 93.4598 143.989 93.1979 143.989 92.928" stroke="#FFFDF4" stroke-width="2" stroke-linecap="round"/>
<path d="M45.2993 96.103C46.1764 96.0157 47.5007 95.6638 48.3824 95.4204C49.6928 95.0586 50.808 94.4282 51.6242 94.0981C52.3847 93.7906 53.2315 93.3725 54.3792 93.0173C55.3436 92.7188 56.2743 92.2692 57.7513 91.8928C58.7032 91.6503 59.4942 91.3855 61.7829 90.4621C62.8506 90.0313 64.2964 89.6233 65.4255 89.2251C67.2397 88.5853 68.9743 88.3428 70.0339 88.1443C71.125 87.94 72.3239 87.3744 73.4953 87.086C74.84 86.7549 76.2503 86.4034 77.1565 86.1599C78.0238 85.927 79.2031 85.2577 80.1992 84.7715C80.9333 84.4133 81.7643 84.1544 82.4707 83.6914C82.8226 83.4929 83.1771 83.3593 83.529 83.2495C83.7063 83.1834 83.8809 83.0961 84.1931 82.7415" stroke="#FFFDF4" stroke-width="2" stroke-linecap="round"/>
<path d="M84.1934 82.7415C84.1934 82.5669 84.499 80.5561 85.0056 77.3619C85.2976 75.5216 85.384 73.6703 85.4058 71.5992C85.4246 69.818 85.8232 68.3296 86.023 67.0034C86.2078 65.7761 86.3973 64.7101 86.5521 63.8714C86.7688 62.6974 86.7069 61.3632 86.9265 59.9926C87.0152 58.3138 87.1474 57.6524 87.2354 57.2343C87.2797 57.0346 87.3234 56.8599 87.5007 56.2831" stroke="#FFFDF4" stroke-width="2" stroke-linecap="round"/>
<path d="M87.5005 56.2831C87.5005 56.1085 87.5005 53.1372 87.5223 48.6625C87.5312 46.8496 87.6328 44.8796 87.6546 42.1464C87.6675 40.5393 87.9397 39.4874 88.0515 38.0103C88.1303 36.9683 88.3366 35.9155 88.4484 35.1191C88.5478 34.411 88.7334 33.5342 88.9332 32.6062C89.1479 31.6091 89.3949 30.0973 89.5067 29.166C89.6092 28.3116 89.9691 27.3588 90.2555 26.5208C90.5381 25.6939 90.7628 24.9776 91.0711 24.0516C91.3394 23.2453 91.9085 22.5963 92.5031 21.9997C93.0984 21.4024 93.8902 20.9639 94.7514 20.4777C95.4988 20.0558 98.1077 20.0352 99.756 20.2548C100.941 20.4126 103.749 20.432 106.232 20.3222C108.506 20.2998 110.339 20.3871 110.999 20.563C111.31 20.6517 111.572 20.739 112.239 20.8289" stroke="#FFFDF4" stroke-width="2" stroke-linecap="round"/>
<path d="M112.239 20.8289C112.721 20.8289 113.735 20.8726 115.704 20.9387C117.367 20.9946 120.38 20.9612 122.019 20.983C124.28 21.0131 125.68 21.4004 126.766 21.6002C127.614 21.7562 128.596 21.8423 129.675 21.9309C130.776 22.0213 132.075 22.3265 133.116 22.5262C133.878 22.6723 135.641 22.681 136.996 22.8126C137.994 22.9096 139.393 23.1202 140.415 23.232C141.176 23.3153 142.132 23.5621 143.103 23.7605C144.505 24.0467 146.1 24.1785 146.897 24.4001C147.598 24.5953 148.394 24.84 149.189 25.0834C149.41 25.1496 149.672 25.2369 149.895 25.3037C150.117 25.3705 150.291 25.4142 150.471 25.4591" stroke="#FFFDF4" stroke-width="2" stroke-linecap="round"/>
<path d="M150.471 25.4591C150.646 25.6787 151.524 26.3799 152.299 27.3959C152.871 28.1465 153.16 29.0707 153.293 29.9319C153.354 30.3239 153.514 33.4112 153.492 38.0394C153.479 40.8066 153.25 42.6438 153.14 43.8669C153.062 44.731 152.853 45.5199 152.743 46.4459C152.602 47.6307 152.456 49.2241 152.017 51.3136C151.654 53.0401 151.397 54.648 151.288 55.3981C151.222 56.3691 151.046 57.4235 150.891 59.6864C150.868 60.9358 150.868 63.075 150.736 65.279" stroke="#FFFDF4" stroke-width="2" stroke-linecap="round"/>
<path d="M150.868 65.6759C150.868 66.1574 150.606 67.4777 150.406 68.6921C150.229 69.7677 149.987 70.6104 149.921 76.3247C149.898 78.2944 149.545 79.4289 149.436 80.357C149.336 81.1976 149.149 82.0748 148.885 83.1344C148.488 84.1504 148.135 84.9429 148.068 85.6493C148.047 85.8266 148.003 86.0012 147.826 86.1811" stroke="#FFFDF4" stroke-width="2" stroke-linecap="round"/>
<path d="M47.1213 122.213C47.1213 121.77 47.3104 120.691 47.4393 119.671C47.542 118.857 47.7572 118.174 47.8689 117.458C47.9795 116.748 48.1066 115.79 48.2346 113.709C48.3645 111.597 48.6165 110.855 48.7282 110.186C48.85 109.456 49.1569 108.375 49.2376 107.703C49.2848 107.449 49.3488 107.161 49.3965 106.718C49.4128 106.432 49.4128 106.022 49.5082 105.6" stroke="#FFFDF4" stroke-width="2" stroke-linecap="round"/>
<path d="M50.845 93.6659C50.845 92.4992 50.908 89.8832 50.9877 88.0405C51.0619 86.3254 51.6069 84.7618 51.815 83.5178C51.9612 82.6442 52.1492 81.8937 52.2924 81.1772C52.4191 80.5434 52.5941 80.0472 52.754 79.2682C52.9156 78.4807 53.3254 77.5362 53.5336 76.7691C53.5813 76.6092 53.6443 76.4516 53.6768 76.2917C53.7092 76.1318 53.7092 75.9743 53.7092 75.812" stroke="#FFFDF4" stroke-width="2" stroke-linecap="round"/>
</svg>
