<svg width="198" height="180" viewBox="0 0 198 180" fill="none" xmlns="http://www.w3.org/2000/svg">
<path d="M59.0378 79.3736C59.238 79.3736 61.343 79.3736 64.7264 79.4737C66.108 79.5738 66.8087 79.7739 68.721 79.8771C70.6334 79.9802 73.7363 79.9802 76.9332 79.9802" stroke="#FFFDF4" stroke-width="1.8" stroke-linecap="round"/>
<path d="M81.4826 77.2504C81.4826 78.3575 81.6828 80.3745 82.0877 82.6509C82.2767 83.7133 82.5927 84.6269 83.1463 85.4838C84.6669 87.8376 87.9432 88.0665 91.1765 88.0695C92.3323 88.0706 93.0054 87.2627 93.5605 86.5575C95.2675 84.3887 94.8283 79.6951 94.3764 77.0578C94.0831 75.3466 92.7112 73.92 91.4009 72.9601C88.4324 70.7852 83.7211 72.998 82.0438 74.2628C81.191 74.9059 80.6758 75.8309 80.3725 76.8379C79.9655 78.1891 80.8699 79.9711 81.9801 81.5362C83.8712 84.2024 88.1433 84.8332 90.1133 84.683C91.2702 84.5949 91.8923 83.5229 92.649 82.666C93.4173 81.7961 93.6151 80.2926 93.4649 78.7275C93.3999 78.0496 93.0145 77.6629 92.5095 77.3566C91.3914 76.6783 89.7812 76.6438 88.3178 76.844C87.0207 77.0214 86.3386 78.3575 85.8837 79.6162C85.2834 81.2771 86.0293 82.707 86.7345 83.4622C87.6835 84.4786 88.6559 85.3367 89.6144 85.64C90.062 85.7816 90.4728 85.7431 90.9293 85.4929C91.3858 85.2427 91.8862 84.7422 92.144 83.8838C92.7411 81.896 92.1016 79.9863 91.4464 78.9262C91.1412 78.4323 90.6912 78.1664 90.2847 78.2119C89.8783 78.2574 89.4779 78.6578 89.2717 79.1142C89.0654 79.5707 89.0654 80.0712 89.3687 80.5868" stroke="#FFFDF4" stroke-width="1.8" stroke-linecap="round"/>
<path d="M84.7837 77.8081C84.7373 79.9919 84.6895 84.3723 84.7598 84.6079C85.0285 85.508 83.8972 81.7114 83.4477 80.8109C83.1217 80.1578 84.3109 82.7273 84.7823 83.808C85.1437 84.6365 85.8588 85.3558 86.563 85.944C87.4935 86.7211 88.7659 86.3436 90.3376 86.4147C91.8953 86.4851 86.5229 86.2986 85.5379 86.0875C83.6238 85.6773 92.9422 85.4571 93.5761 84.7993C94.2606 84.0889 94.1635 82.7386 94.3282 81.3097C94.6214 78.7648 93.8399 77.628 93.1117 76.3116C92.5248 75.2507 91.7292 74.4338 90.7442 73.7999C90.0246 73.3368 89.0107 73.1196 86.6221 73.0471C84.9767 72.9972 83.4273 74.1946 82.6991 74.8503C82.3405 75.1733 82.1581 75.6482 82.0173 76.1392C81.6603 77.3854 83.0896 79.3925 83.9338 80.6617C85.0691 82.3685 83.613 75.7959 83.6102 75.0656C83.6066 74.1243 84.9216 77.2368 85.4852 78.4138C85.6215 78.6985 85.7659 79.021 85.5358 78.608C84.6691 77.0521 84.0337 75.606 84.0563 75.2077C84.0972 74.4844 85.7152 74.7603 88.8988 74.7589C89.9459 74.7584 90.5036 75.0403 90.6697 75.1803C92.108 76.3931 86.43 76.2124 85.8165 76.4474C85.6256 76.5206 87.5839 76.2603 89.3695 76.2603C90.5299 76.2603 87.46 76.4474 87.1308 76.4713C86.4917 76.5178 88.673 76.3531 90.0316 76.4474C90.3654 76.4706 90.5951 76.5867 90.7147 76.7506C90.8343 76.9146 90.8343 77.1467 90.7182 77.3592C90.0956 78.4987 88.6322 78.7452 88.4429 78.9091C87.7653 79.4961 90.0801 78.8409 90.8329 78.8859C91.8423 78.9463 87.2912 80.1945 85.863 80.9016C84.8881 81.3843 90.6626 81.4666 92.2421 81.9802C93.5238 82.3969 88.87 82.4966 88.1608 82.5923C86.2565 82.8492 91.6293 83.0608 91.54 83.1312C90.594 83.8761 89.1486 83.2015 88.6336 83.3415C88.3882 83.4082 88.2115 83.5744 88.3479 83.5765C88.9642 83.5861 89.7522 83.2958 90.1054 83.1101C91.3695 82.4453 88.3522 81.188 87.764 80.3915C87.3564 79.8396 87.4572 78.4272 87.5733 77.0433C87.6126 76.5752 87.9216 76.6345 88.1805 76.8442C89.343 77.7856 90.3109 79.2518 91.7208 80.8517C92.2295 81.429 92.0106 81.9337 92.4032 84.176C92.6701 85.7003 92.4764 86.7179 92.3364 87.0922C92.2626 87.2894 92.1035 87.4665 91.9389 87.5157C91.7743 87.565 91.5885 87.4721 91.4464 87.3314C91.3043 87.1907 91.2114 87.005 91.1157 86.6729" stroke="#FFFDF4" stroke-width="1.8" stroke-linecap="round"/>
<path d="M95.5696 80.4402C95.6457 80.4402 95.7218 80.4402 96.1795 80.3641C96.6372 80.288 97.4742 80.1359 98.8185 80.0575C100.163 79.9791 101.989 79.9791 103.871 79.8638" stroke="#FFFDF4" stroke-width="1.8" stroke-linecap="round"/>
<path d="M110.212 70.1793C109.754 70.5228 108.754 71.1385 107.545 72.288C106.646 73.1433 105.835 74.0923 105.026 75.9565C104.674 76.7666 104.717 77.7447 104.697 79.2625C104.684 80.2122 105.021 80.8991 105.598 81.9731C106.133 82.9704 106.942 83.7422 107.653 84.3388C108.328 84.9049 109.132 85.2433 109.978 85.6267C110.953 86.0692 111.976 86.2417 113.164 86.4158C116.059 86.8401 117.314 85.7483 118.164 85.1499C118.822 84.6874 119.391 83.7122 120.316 82.3858C120.912 81.5302 121.049 78.6209 120.629 76.4673C120.335 74.9625 119.131 74.678 118.132 73.4507C117.563 72.7512 116.903 72.1807 115.98 71.3737C115.064 70.5733 114.058 70.2185 113.308 70.1222C112.443 69.8334 111.828 69.7953 111.216 69.7377C110.832 69.7181 110.299 69.7181 109.52 69.9487" stroke="#FFFDF4" stroke-width="1.8" stroke-linecap="round"/>
<path d="M105.715 77.4426C106.021 77.6721 107.016 78.1321 107.845 78.6129C108.732 79.1268 109.591 79.4764 113.042 80.8386C114.441 81.3908 115.204 81.63 116.299 81.9188C117.379 82.2038 118.241 82.361 118.742 82.5155C119.233 82.6667 117.749 81.5194 116.672 80.827C115.644 80.1663 114.065 79.4072 112.829 78.9622C111.136 78.352 110.253 77.943 109.217 77.5597C107.677 76.9895 106.488 76.714 105.929 76.3295C105.8 76.2413 105.642 76.2136 105.506 76.137C105.371 76.0603 105.256 75.9462 105.464 75.8874C106.997 75.453 108.512 76.1352 109.65 76.4039C111.356 76.8065 112.667 77.1729 113.379 77.4225C114.482 77.8091 116.198 78.4757 117.127 79.036C117.802 79.4433 118.471 80.092 119.049 80.5728C119.314 80.7939 119.434 81.1308 119.588 81.2087C120.203 81.5198 118.441 79.4856 117.421 78.6175C116.694 77.9989 115.713 77.4449 113.775 76.5243C111.4 75.3962 110.408 75.0999 109.351 74.7154C108.508 74.4088 107.793 74.2537 107.314 74.1384C106.271 73.8873 112.704 74.2906 113.457 74.5402C114.31 74.8234 115.319 75.0976 116.146 75.4809C117.193 75.9667 118.199 76.7071 119.105 77.4594C119.545 77.8242 119.895 78.2093 120.106 78.5927C120.309 78.9611 120.357 79.3623 120.262 79.5934C119.921 80.4227 118.746 78.1759 118.246 77.6369C117.54 76.8754 116.29 76.3704 114.829 75.6769C113.49 75.0418 111.561 74.7148 109.566 73.8911C108.662 73.5178 107.987 73.0247 107.503 72.5641C107.384 72.4504 107.445 72.2199 107.521 72.1029C108.093 71.2226 110.703 72.0608 111.669 72.3877C112.753 72.7544 113.703 73.5193 114.397 73.981C115.292 74.5769 112.407 73.7925 111.694 73.7153C111.315 73.6742 110.906 73.4086 110.522 73.1595C110.349 73.0475 110.29 72.8725 110.327 72.756C110.52 72.1472 111.554 72.1023 112.055 71.6608C112.161 71.5677 112.019 71.3737 111.98 71.3904C110.852 71.8715 115.049 73.4443 115.648 73.8669C116.469 74.4469 117.549 75.1345 118.203 75.5962C118.963 76.1333 119.434 76.4039 119.531 76.4246C120.796 76.6957 117.521 73.6841 116.747 72.8142C116.069 72.0524 114.717 71.489 113.178 71.2365C111.842 71.2169 110.905 71.1027 110.618 70.9298C110.445 70.871 110.216 70.871 109.981 70.871" stroke="#FFFDF4" stroke-width="1.8" stroke-linecap="round"/>
<path d="M105.485 78.7109C105.789 79.7024 106.635 81.4756 106.887 82.052C107.172 82.7078 107.864 83.281 108.384 83.8396C108.883 84.3751 110.052 84.5884 110.977 84.9164C111.168 84.9841 111.323 85.0127 111.401 84.9372C111.959 84.4001 110.675 83.3248 109.965 82.4042C109.207 81.4213 108.6 80.8668 107.66 80.212C107.112 79.8299 106.601 79.7104 106.351 79.7479C106.229 79.7662 106.216 80.0137 106.272 80.1878C106.524 80.9637 107.518 81.3211 109.091 82.4919C109.919 83.108 110.516 83.6661 111.132 83.9174C111.284 83.9798 111.438 84.0512 111.498 83.9762C111.934 83.4252 110.906 82.3679 110.253 81.2127C110.115 80.9691 109.983 80.8276 110.001 80.7873C110.196 80.3313 111.738 81.9321 112.746 82.4186C113.42 82.744 114.47 83.3963 115.378 83.6869C115.552 83.7428 115.704 83.8206 115.649 83.8978C114.918 84.9288 112.637 84.2818 111.808 84.4363C111.183 84.5528 113.089 85.0519 114.47 85.2433C116.721 85.5552 117.433 85.015 118.26 84.7648C118.483 84.6972 118.662 84.517 118.799 84.3625C118.935 84.208 119.011 84.0558 118.917 83.9013C118.432 83.1041 117.288 83.3225 116.443 83.4177C116.119 83.4542 116.055 83.703 116.091 83.839C116.269 84.4931 117.397 84.1676 117.646 84.1492C117.758 84.1409 117.782 83.9405 117.725 83.767C117.669 83.5935 117.516 83.4032 117.343 83.2482C117.169 83.0931 116.979 82.979 116.668 82.7461" stroke="#FFFDF4" stroke-width="1.8" stroke-linecap="round"/>
<path d="M98.448 58.0751C98.448 57.8125 98.7106 57.4147 99.2725 56.7215C100.027 55.7903 102.732 52.2689 106.709 47.8283C108.512 45.8145 110.172 44.6248 112.29 42.9371C113.928 41.632 114.953 40.7063 116.436 39.4552C121.735 34.9847 123.367 33.1558 125.328 31.6908C126.476 30.8327 127.417 29.6351 129.14 28.0458C129.525 27.6905 129.804 27.5783 130.005 27.642C130.206 27.7056 130.337 27.9682 130.339 28.3332C130.344 29.1677 128.959 32.5192 127.202 37.1906C125.93 40.5742 125.305 43.6661 124.772 45.5398C124.479 46.5695 124.374 47.7915 123.646 50.44C123.111 52.3873 122.52 54.9482 121.954 57.1392C121.854 57.6076 121.788 57.9358 121.656 58.2034C121.523 58.4709 121.327 58.6678 121.124 58.8707" stroke="#FFFDF4" stroke-width="1.8" stroke-linecap="round"/>
<path d="M121.124 58.8707C122.11 58.5425 124.366 57.351 127.84 55.8921C129.733 55.0968 131.527 54.7613 132.92 54.3306C133.755 54.0725 135.368 53.6374 137.846 52.7443C143.385 50.7483 146.707 50.3852 148.534 50.4817C149.149 50.5142 147.986 53.0188 146.396 55.8344C145.53 57.3684 144.34 59.7797 142.618 62.9593C140.887 66.2224 139.427 68.6093 138.631 69.6088C138.431 69.8087 138.234 70.0056 137.832 70.0096" stroke="#FFFDF4" stroke-width="1.8" stroke-linecap="round"/>
<path d="M137.832 70.0096C139.282 70.0096 146.003 70.7973 149.926 71.5333C150.742 71.6864 154.572 72.2573 160.138 73.4159C164.575 74.3397 166.336 75.1793 167.1 75.4776C167.441 75.6104 162.994 76.2355 157.726 77.3613C153.953 78.1676 151.966 79.6846 149.71 80.515C145.897 81.918 143.012 82.9347 140.23 83.8308C138.234 84.3291 137.04 84.7945 136.312 84.9268C135.978 84.9934 135.716 85.0591 135.445 85.1267" stroke="#FFFDF4" stroke-width="1.8" stroke-linecap="round"/>
<path d="M135.445 85.1267C136.63 85.9164 140.987 88.6912 143.363 90.3928C144.43 91.1571 145.78 92.4784 149.829 95.9364C153.034 98.6738 158.801 103.136 162.53 106.191C169.834 112.174 170.779 113.233 171.48 114.231C171.575 114.366 170.926 114.366 168.458 113.94C165.989 113.513 161.526 112.66 157.553 111.597C153.58 110.533 150.232 109.286 147.523 108.381C140.146 105.917 137.971 105.415 135.818 104.855C134.19 104.421 132.929 104.355 132.3 104.256C132 104.222 131.737 104.222 131.467 104.222" stroke="#FFFDF4" stroke-width="1.8" stroke-linecap="round"/>
<path d="M131.467 104.222C131.533 105.278 132.191 107.655 132.856 109.815C133.466 111.795 134.184 113.499 134.646 114.984C135.384 117.361 136.239 119.596 136.898 121.939C137.922 125.578 138.892 128.087 139.287 129.865C140.123 133.632 140.947 137.295 141.212 139.48C141.52 142.024 141.743 143.598 142.008 144.961C142.067 145.263 142.14 145.523 142.043 145.724C141.945 145.925 141.683 146.057 141.449 146.026C140.311 145.876 137.589 142.898 133.683 138.993C131.942 137.253 130.958 135.745 129.465 134.017C126.183 130.217 123.713 128.027 122.887 127.367C121.03 125.883 119.875 124.121 118.609 122.727C116.556 120.464 115.033 119.216 112.348 116.63C111.182 115.297 109.201 113.583 107.28 111.727C106.54 111.053 106.277 110.921 106.007 110.786" stroke="#FFFDF4" stroke-width="1.8" stroke-linecap="round"/>
<path d="M106.007 110.786C106.007 110.917 106.007 114.136 105.547 121.01C105.297 124.753 104.169 128.934 103.597 131.361C102.66 135.338 101.901 138.347 100.675 141.8C98.5342 147.828 97.9867 149.764 97.3561 150.797C97.2547 151.292 97.0578 152.219 96.6609 153.377C96.461 153.88 96.2641 154.208 95.8623 154.546" stroke="#FFFDF4" stroke-width="1.8" stroke-linecap="round"/>
<path d="M95.8625 154.546C95.5999 153.89 94.7426 151.845 92.9922 146.732C91.8397 143.365 90.651 138.271 89.8763 135.077C88.8198 130.72 88.5048 129.024 88.1736 128.164C87.153 125.512 85.5908 120.417 85.0895 118.383C84.8588 117.688 84.5923 117.087 84.3605 116.558C84.2601 116.292 84.1945 116.029 83.729 115.361" stroke="#FFFDF4" stroke-width="1.8" stroke-linecap="round"/>
<path d="M83.7289 115.361C83.532 115.888 82.6071 117.079 79.9706 119.915C78.1017 121.925 74.2569 125.302 71.9028 127.423C68.7506 130.262 67.4224 131.27 66.6944 131.965C64.383 134.11 61.0573 137.567 60.0627 138.366C59.7962 138.5 59.5336 138.566 59.0642 138.633" stroke="#FFFDF4" stroke-width="1.8" stroke-linecap="round"/>
<path d="M59.0642 138.633C59.0642 138.239 59.1955 134.426 59.46 128.727C59.635 124.957 60.3213 122.86 60.9489 119.333C61.4412 116.801 62.4258 112.075 62.933 109.443C63.4402 106.812 63.4402 106.418 63.4402 106.012" stroke="#FFFDF4" stroke-width="1.8" stroke-linecap="round"/>
<path d="M63.44 106.012C62.5191 106.012 59.609 106.275 57.5791 106.476C56.4778 106.585 52.9933 106.742 48.3876 106.61C46.67 106.543 46.2105 106.478 43.5451 106.444C40.8797 106.41 36.0224 106.41 31.0178 106.41" stroke="#FFFDF4" stroke-width="1.8" stroke-linecap="round"/>
<path d="M31.0178 106.41C31.0835 105.949 33.0547 102.921 35.6514 100.316C37.6052 98.3566 40.3586 96.3372 41.3909 95.473C42.4193 94.6763 43.2806 94.2109 43.9091 94.0458C44.2095 93.9463 44.472 93.8151 45.3393 93.6798" stroke="#FFFDF4" stroke-width="1.8" stroke-linecap="round"/>
<path d="M45.3395 93.6798C45.0769 93.4172 44.4822 92.7569 42.4732 90.9438C38.5119 87.3688 35.1991 85.1307 34.3726 84.4027C32.0885 82.3907 29.2995 80.158 28.0394 79.0311C27.4369 78.4924 26.7773 78.1012 26.5107 77.7034C26.7693 77.5682 30.7813 77.043 37.8615 76.2474C41.2002 75.9769 44.0227 75.9769 46.9308 75.9769" stroke="#FFFDF4" stroke-width="1.8" stroke-linecap="round"/>
<path d="M46.9309 75.9769C46.8652 75.7143 46.7996 75.4518 46.1094 72.6909C45.4192 69.9301 44.1064 64.6789 43.3316 60.9563C41.6454 52.8543 41.9582 51.3201 41.6946 49.5319C41.0013 44.8281 40.3709 41.6452 39.7721 40.0121C39.3623 38.8942 39.1734 38.0549 39.3047 37.6889C39.6778 36.6488 42.7976 40.3562 45.2014 41.7615C46.4408 42.4861 47.8538 43.4831 51.9862 45.8988C54.5302 47.3861 57.127 49.1799 58.9907 50.3465C61.8158 52.1147 63.496 53.3609 64.7293 54.3256C66.0898 55.2227 66.8854 55.6205 67.3817 55.9179C67.6154 56.084 67.8124 56.2809 68.4131 56.6827" stroke="#FFFDF4" stroke-width="1.8" stroke-linecap="round"/>
<path d="M68.4128 56.6827C68.4128 56.6171 68.4128 56.5514 68.4785 53.6951C68.5441 50.8388 68.6754 45.1937 68.8743 41.8262C69.0732 38.4587 69.3358 37.5397 69.471 35.2284C69.6063 32.917 69.6063 29.2412 69.6063 25.454" stroke="#FFFDF4" stroke-width="1.8" stroke-linecap="round"/>
<path d="M69.6062 25.454C69.7375 25.454 71.643 27.817 75.3139 32.3492C80.8352 39.1659 82.3324 40.3682 83.3916 41.5925C85.4654 43.9895 86.5095 45.0744 87.3061 46.0371C88.2979 47.2357 89.2266 48.2569 90.2888 49.517C91.3252 50.7465 92.079 51.9686 93.1391 53.0646C94.6353 54.6112 95.2615 55.6842 95.9915 56.7444C97.1869 58.1387 97.5848 58.9344 97.8821 59.4635C98.0482 59.73 98.2451 59.9926 97.8513 60.0642" stroke="#FFFDF4" stroke-width="1.8" stroke-linecap="round"/>
<path d="M100.238 93.4809C101.358 94.2706 104.268 96.3889 105.969 97.6212C106.269 97.8549 106.532 98.0518 106.798 98.2189C107.065 98.386 107.327 98.5173 107.598 98.6525" stroke="#FFFDF4" stroke-width="1.8" stroke-linecap="round"/>
<path d="M107.598 98.6525C106.874 98.6525 104.757 98.9151 102.897 99.3805C101.537 99.7207 100.179 99.7784 97.0348 100.374C96.3296 100.508 96.0014 100.574 95.6683 100.641C95.3351 100.707 95.0069 100.773 94.072 100.841" stroke="#FFFDF4" stroke-width="1.8" stroke-linecap="round"/>
</svg>
