<svg width="198" height="180" viewBox="0 0 198 180" fill="none" xmlns="http://www.w3.org/2000/svg">
<path d="M47.9609 54.6336C48.2591 55.2328 50.0568 56.8318 52.2657 58.9895C56.7032 63.3243 59.5908 63.9627 62.0059 65.3194C64.0229 66.4523 68.3117 68.0763 71.1905 68.7854C73.4398 69.3395 75.2559 69.8891 77.3638 70.3408C79.1219 70.7175 83.0613 71.6899 86.1465 72.1988C89.4201 72.7388 91.719 73.1022 96.6983 73.2528C100.98 73.3823 108.833 73.304 113.125 73.2543C119.04 73.1858 122.221 72.0031 125.291 70.8C128.893 69.3886 130.562 67.8896 134.772 64.9836C137.119 63.3636 140.193 60.8731 142.609 59.0557C145.18 57.1227 146.727 54.6456 147.384 52.7831C148.144 50.6278 148.54 45.0394 148.141 41.4408C147.903 39.2929 146.035 37.3785 144.681 35.668C143.415 34.0674 141.626 32.4579 139.565 31.0501C136.81 29.1685 134.104 27.7421 131.735 26.2319C128.78 24.3473 126.663 24.3212 122.283 24.0201C118.407 23.7537 111.145 23.9177 107.11 23.9674C101.06 24.0419 98.6601 24.7187 97.0521 24.8708C95.236 25.0425 90.4572 25.9172 86.8662 26.8764C84.6392 27.4712 81.8026 27.9288 78.8876 28.4829C76.9945 28.8428 75.4727 29.3381 73.0681 30.1362C68.1453 31.7699 66.0351 33.2469 64.4301 33.9531C61.6802 35.1629 58.1152 37.4568 56.2979 38.9203C53.8875 40.8614 51.2795 44.684 50.623 46.7468C49.9695 48.5055 49.4696 50.2099 48.9682 51.5123C48.765 52.1191 48.6656 52.6159 48.5632 54.0313" stroke="#FFFDF4" stroke-width="2.2" stroke-linecap="round"/>
<path d="M47.6597 55.537C47.8584 56.5367 49.2557 59.9275 50.9164 64.2549C52.6308 68.7217 53.3752 73.8882 54.0317 76.3078C54.6034 78.4149 55.4892 80.1217 56.1381 82.8786C56.8807 86.0331 57.7959 88.951 58.6481 91.2637C59.2459 92.8861 59.1028 96.9612 59.6027 100.697C59.9928 103.612 60.6085 106.218 61.5074 109.177C62.4658 112.331 62.6141 114.15 63.3654 116.357C64.2432 118.936 65.6194 122.865 66.9263 125.991C70.1045 133.592 74.5571 140.349 75.6111 141.707C76.5657 143.463 77.4691 145.071 78.0699 145.872C78.3725 146.275 78.6706 146.673 78.9778 147.082" stroke="#FFFDF4" stroke-width="2.2" stroke-linecap="round"/>
<path d="M78.978 147.082C79.776 147.182 81.7786 148.178 83.9874 149.386C87.046 151.058 88.5059 152.298 90.8638 153.253C92.696 153.994 96.6186 153.707 100.842 153.457C107.469 153.065 112.663 153.707 116.611 153.957C119.255 154.125 121.631 155.412 123.239 156.014C124.84 156.614 126.949 154.719 128.709 153.411C130.406 152.149 132.171 151.804 133.779 151.25C134.182 151.099 134.58 150.901 135.281 150.798C135.983 150.696 136.977 150.696 138.001 149.792" stroke="#FFFDF4" stroke-width="2.2" stroke-linecap="round"/>
<path d="M138 149.792C138.1 148.994 138.699 146.396 139.803 143.779C140.768 141.49 141.307 138.47 142.213 136.148C143.035 134.044 144.216 130.448 144.725 127.316C145.318 123.665 147.534 117.987 148.186 115.522C148.707 113.551 149.54 111.56 149.894 109.549C150.718 104.86 150.25 98.4127 149.696 95.9479C149.058 93.1092 148.745 89.475 148.29 83.4884C147.966 79.2182 148.239 71.2563 148.338 66.9124C148.438 62.5685 148.636 62.0716 148.739 59.8779C148.841 57.6841 148.841 53.8085 148.841 49.8154" stroke="#FFFDF4" stroke-width="2.2" stroke-linecap="round"/>
<path d="M60.6084 97.696C61.4064 97.7954 63.2102 98.3946 64.618 99.4983C66.3104 100.825 67.7273 102.207 69.1351 103.612C71.1136 105.586 72.0455 107.224 73.2516 109.332C74.5376 111.58 77.3576 116.035 79.0229 119.069C80.4024 121.582 81.983 124.883 82.6892 127.399C83.6765 130.916 84.2957 134.32 84.9974 136.783C85.9345 140.073 85.8014 142.156 86.2034 144.063C86.5061 145.974 86.9036 147.974 87.9079 150.536C88.1111 151.093 88.2105 151.491 88.0118 152.202" stroke="#FFFDF4" stroke-width="2.2" stroke-linecap="round"/>
<path d="M92.2278 151.9C91.6316 149.714 90.6288 146.104 89.5251 142.041C88.9398 139.887 88.7166 134.88 88.3161 127.808C87.9804 121.88 87.512 118.282 87.509 112.325C87.5072 108.712 88.4094 104.941 89.3128 101.123C90.1007 97.7928 91.7219 95.4013 93.5754 92.137C94.3412 90.7883 95.1338 89.7701 96.1848 89.0188C98.637 87.2657 102.057 88.4571 104.714 89.2612C106.997 89.9517 109.477 92.2635 111.543 94.6214C113.875 97.2839 114.608 100.897 115.558 104.491C117.219 110.773 117.523 116.948 117.573 120.408C117.601 122.382 117.824 125.376 117.874 129.238C117.9 131.218 118.126 136.494 118.175 143.97C118.625 148.181 119.029 149.985 119.329 152.093C119.429 152.599 119.529 152.997 119.932 154.008" stroke="#FFFDF4" stroke-width="2.2" stroke-linecap="round"/>
<path d="M128.364 152.804C128.364 150.904 128.165 148.299 127.763 136.488C127.68 134.036 127.563 133.64 127.512 128.218C127.461 122.796 127.461 112.361 127.56 106.638C127.698 98.6862 128.364 95.7025 129.013 93.0389C129.841 89.64 131.671 87.367 133.226 85.8553C134.577 84.5421 136.687 85.3494 138.296 85.9984C140.057 86.7094 141.006 89.3485 141.662 91.6161C141.918 92.5007 142.316 93.2753 142.466 96.5607C142.844 104.806 142.617 110.741 142.767 111.791C143.19 114.736 143.421 117.553 143.721 119.972C144.123 121.983 144.324 124.383 144.624 126.298C144.725 126.701 144.824 127.099 144.927 127.81" stroke="#FFFDF4" stroke-width="2.2" stroke-linecap="round"/>
<path d="M55.9968 60.6948C56.2538 60.0523 56.5108 59.4098 58.2172 56.5411C59.9237 53.6724 63.0718 48.5969 64.8863 45.7895C67.7637 41.3375 70.5283 40.7082 72.5696 39.9635C74.1352 39.3924 75.9756 39.0845 78.3119 38.6649C80.3279 38.3029 81.4308 37.9164 84.0863 37.2057C85.7574 36.7586 87.3999 36.3589 90.9491 36.1651C93.3935 36.0317 97.8936 36.0357 100.564 35.9383C103.946 35.815 105.118 35.5801 105.993 35.548C106.808 35.518 109.256 35.3854 112.884 35.3212C117.839 35.2335 121.595 35.253 124.093 36.0941C128.888 37.7089 130.874 39.1429 132.795 40.3782C134.032 41.1735 135.293 41.8724 136.916 42.8118C138.606 43.7904 139.514 45.4391 140.422 46.3814C141.778 47.7883 142.886 48.8773 143.96 49.6278C144.381 49.9831 144.772 50.4386 145.129 50.9565C145.292 51.2174 145.421 51.4744 145.942 52.1285" stroke="#FFFDF4" stroke-width="2.2" stroke-linecap="round"/>
<path d="M57.3599 60.5001C57.6811 61.2107 58.8473 62.3769 59.919 63.1586C60.4399 63.5384 61.4424 63.4204 62.2222 63.2598C63.6084 62.9742 60.1556 60.9557 58.9865 59.8236C58.7031 59.5492 58.5319 59.3359 58.5611 59.2045C59.0603 56.9581 62.9357 54.5972 63.8459 53.8837C65.0109 52.9703 66.1792 51.8093 69.3857 47.9905C70.093 47.1481 70.3338 46.8136 70.5305 46.8087C71.7783 46.7778 70.8595 49.656 71.9867 54.2166C72.7193 57.1803 75.0024 59.258 77.7144 61.1027C79.4047 62.2523 82.2253 63.0116 85.4464 63.6686C88.6675 64.3257 92.3296 64.6469 92.4815 63.6239C92.6333 62.6008 89.164 60.2236 86.3809 58.1317C83.5979 56.0398 81.6062 54.3051 80.4839 53.2509C79.3615 52.1967 79.1687 51.8755 81.7357 52.5131C84.3026 53.1507 89.6351 54.7568 94.2132 55.9055C98.7913 57.0541 102.453 57.6966 105.271 58.0597C108.09 58.4228 109.953 58.487 110.399 58.2631C111.238 57.8414 105.545 55.9678 99.2644 54.2175C93.4862 52.6073 89.8785 52.7126 90.6407 53.1302C91.872 53.8048 95.2577 54.383 99.8046 54.9097C104.352 55.4363 110.07 55.629 113.176 55.6962C116.282 55.7634 116.603 55.6991 115.323 55.0878C114.043 54.4765 111.152 53.32 105.744 52.1461C100.335 50.9721 92.497 49.8157 90.9327 49.5733C89.3684 49.3309 94.3154 50.0376 99.607 50.9604" stroke="#FFFDF4" stroke-width="2.2" stroke-linecap="round"/>
<path d="M86.1248 37.3323C86.5745 37.6535 87.0242 37.9748 89.119 39.5858C91.2139 41.1968 94.9402 44.0879 98.6909 47.1835C102.442 50.279 106.104 53.4913 108.279 55.2747C110.93 57.4474 112.143 58.0295 113.692 59.1606C117.977 62.2881 119.475 63.1556 120.548 64.3247C121.374 65.2235 122.01 66.2706 122.723 67.3424C123.439 68.5446 124.085 69.7088 124.736 70.3639C124.803 70.3026 124.739 69.9814 124.673 69.6504" stroke="#FFFDF4" stroke-width="2.2" stroke-linecap="round"/>
<path d="M124.673 69.6504C123.898 68.747 122.345 67.061 120.656 64.9536C119.489 63.4978 117.29 61.6838 114.784 59.6298C112.94 58.1188 110.92 55.8315 110.14 54.7938C109.563 54.0272 108.841 53.3648 108.58 52.8459C107.969 51.631 112.079 53.2947 112.921 53.6189C113.611 53.8847 109.853 52.146 103.142 49.1965C100.514 48.0419 99.5778 47.3392 101.555 47.4259C103.532 47.5125 108.479 48.3477 111.188 48.8422C113.897 49.3367 114.218 49.4652 114.03 49.2744C113.231 48.4629 109.709 46.7552 104.85 44.5834C99.3946 42.1454 97.8762 42.3319 97.6114 42.0067C94.7222 38.4588 106.888 43.8855 107.214 44.048C107.499 44.1898 106.182 43.6947 105.019 43.0483C103.154 42.0112 99.5174 40.9087 95.7551 39.7737C93.3845 39.0585 90.6883 38.1188 88.6928 37.5279C88.4041 37.4424 88.1418 37.3985 88.1701 37.3654C89.0819 36.2963 92.02 38.7535 93.6476 40.1504C94.9541 41.2717 98.4914 45.3495 100.337 47.2604C101.664 48.6343 96.7743 45.4469 94.182 43.5379C93.5631 43.0822 93.2699 42.7251 93.3293 42.5275C93.3887 42.3299 93.8384 42.2657 96.7363 43.3569C99.6342 44.4481 104.967 46.6967 106.236 47.1805C111.376 49.1397 100.469 44.6019 100.369 44.4072C99.4952 42.7101 103.709 44.5357 103.713 44.2787C103.78 39.8875 94.9559 40.9029 93.8841 40.4814C93.5911 40.383 93.2699 40.3188 92.9438 40.2214C92.6177 40.1241 92.2965 39.9956 91.3814 39.6685" stroke="#FFFDF4" stroke-width="2.2" stroke-linecap="round"/>
<path d="M91.3813 39.6685C91.5741 39.6685 91.7668 39.6685 94.3717 39.8292C96.9767 39.9898 101.988 40.311 105.405 40.6371C110.492 41.2844 113.498 42.0651 115.637 42.7787C116.492 43.0425 116.878 43.1067 117.859 43.3676" stroke="#FFFDF4" stroke-width="2.2" stroke-linecap="round"/>
<path d="M145.31 53.2967C144.924 53.1682 141.835 52.2025 135.238 50.5827C131.532 49.8624 127.099 49.3484 124.494 49.0836C121.889 48.8188 121.246 48.8188 120.584 48.8188" stroke="#FFFDF4" stroke-width="2.2" stroke-linecap="round"/>
<path d="M134.407 63.6151C132.48 62.7156 129.238 61.0958 125.703 59.3115C123.108 58.0019 119.307 55.6485 116.342 53.9498C115.076 53.2242 113.907 52.7165 112.77 51.8083C110.848 50.2729 109.622 50.1817 109.101 50.2138C108.833 50.2303 109.939 50.3764 113.091 50.6012C115.987 50.8078 121.511 51.2758 123.298 51.2184C125.084 51.1609 122.964 50.5827 120.201 50.0921C117.438 49.6015 114.098 49.216 111.156 49.0174C108.214 48.8189 105.773 48.8189 104.804 48.8831C103.836 48.9473 104.414 49.0758 107.667 49.1099C110.92 49.144 116.831 49.0797 119.041 48.5327C121.25 47.9856 119.58 46.9576 118.238 46.2354C113.324 43.5914 108.841 43.2391 108.323 43.0444C106.961 42.5323 115.569 46.2139 116.5 46.9041C119.57 49.1809 110.471 45.4469 108.721 45.0575C107.944 44.8844 107.357 44.9251 108.923 45.7282C118.094 50.4336 119.089 50.5048 119.382 50.571C119.453 50.5869 119.226 50.2518 116.846 48.7381C114.466 47.2244 109.904 44.4618 107.265 42.9422C104.626 41.4227 104.048 41.2299 103.621 41.0985C103.195 40.9671 102.938 40.9029 102.284 40.642" stroke="#FFFDF4" stroke-width="2.2" stroke-linecap="round"/>
<path d="M93.3282 37.527C94.615 37.6555 97.732 38.1733 100.166 38.661C102.264 39.0816 104.741 39.5362 106.269 39.8301C106.685 39.9102 107.205 39.8632 106.153 39.5099C99.4418 37.2562 97.6191 37.5932 96.0917 37.4949C93.4105 37.3223 89.7615 37.2681 90.2716 37.1707C92.7923 36.6897 95.0764 37.2019 98.4552 37.3956C101.446 37.5671 107.038 37.7178 110.046 37.8492C114.941 38.0631 117.921 38.7594 118.021 38.6961C120.785 36.952 109.187 36.2304 106.765 36.8427C106.515 36.9061 111.455 37.1376 118.524 37.0734C124.285 37.021 126.74 37.0052 128.496 37.4608C128.881 37.5607 129.209 37.527 129.214 37.5591C129.725 40.9307 120.452 37.4608 120.97 37.6555C123.127 38.4666 127.001 39.2753 130.112 40.3461C130.77 40.5758 131.027 40.7043 131.128 40.642C131.228 40.5797 131.164 40.3227 131.098 40.0579" stroke="#FFFDF4" stroke-width="2.2" stroke-linecap="round"/>
<path d="M133.629 41.4207C134.921 42.7797 137.121 44.7187 138.686 45.9599C140.093 47.0763 141.025 47.8435 141.124 48.1355C141.281 48.5986 138.834 47.3353 135.408 45.3622C133.431 44.2237 130.825 43.0678 128.441 42.0856C121.154 39.0831 118.774 39.0222 117.957 38.9219C117.915 38.9167 118.307 39.0183 121.331 40.0793C124.356 41.1404 130.074 43.1963 133.116 44.3518C136.158 45.5072 136.35 45.7 134.297 45.221C132.244 44.7421 127.94 43.5857 124.116 42.9578C120.292 42.3299 117.08 42.2657 115.554 42.2647C114.027 42.2637 114.284 42.328 117.34 42.7466C120.396 43.1651 126.242 43.9361 129.575 44.4296C132.908 44.9232 133.551 45.1159 133.625 45.2794C133.699 45.443 133.185 45.5715 130.671 44.8667C128.158 44.1619 123.661 42.62 119.705 41.4723C112.536 39.3918 108.712 38.8898 108.417 38.9219C108.322 38.9323 109.086 39.0183 111.504 39.5975C118.18 41.1966 122.724 42.5869 122.791 42.7505C124.128 46.0062 114.553 39.9937 113.841 39.8963C113.515 39.8518 113.256 39.8632 115.822 40.8269C118.388 41.7906 123.785 43.718 126.951 44.9037C130.92 46.3903 132.131 47.0647 132.62 47.3889C132.952 47.6089 128.022 46.944 121.153 45.8411C118.152 45.3592 116.083 45.3807 118.654 46.3434C121.225 47.3061 128.485 49.2978 132.385 50.388C136.286 51.4783 136.607 51.6068 135.648 51.416C134.69 51.2252 132.441 50.7112 129.034 49.7076C125.627 48.704 121.13 47.2263 118.684 46.4008C116.239 45.5754 115.982 45.4469 116.139 45.3807C116.296 45.3145 116.874 45.3145 119.452 45.5072C122.031 45.7 126.593 46.0854 129.167 46.3483C131.742 46.6111 132.192 46.7396 132.68 46.8058C133.169 46.872 133.683 46.872 132.342 46.2938C131 45.7155 127.788 44.5591 124.559 43.5457C118.224 41.5576 114.682 40.8367 114.389 40.933C114.291 40.9652 114.545 41.2222 118.724 42.0282C122.903 42.8342 131.063 44.2476 135.555 45.1042C140.655 46.0766 141.478 46.5469 141.675 46.3872C143.195 45.1532 139.278 43.9556 136.27 42.4974C134.683 41.7277 132.41 41.6154 130.461 41.776C127.856 41.9908 136.413 46.0231 138.067 47.6118C139.529 49.0146 140.696 49.9169 141.963 51.086C142.252 51.3529 142.514 51.5406 142.454 51.6399C142.216 52.0302 138.463 50.4542 133.339 48.411C130.696 47.3569 128.58 47.0686 126.311 46.7123C124.928 46.4951 128.976 47.7013 136.079 49.875C139.224 50.8375 140.18 50.8942 139.896 50.7998C134.401 48.9746 130.586 46.4865 129.708 45.8703C127.635 44.4156 137.378 48.7488 139.237 49.7242C140.499 50.3866 141.541 51.0227 142.58 51.3488C142.837 51.4293 143.098 51.4783 143.231 51.3829C143.363 51.2875 143.363 51.0305 143.234 50.7696C142.949 50.1905 139.693 47.9953 134.799 44.6886C131.837 42.6878 129.873 41.8782 128.351 41.3915C126.396 40.7666 125.004 42.4526 122.416 43.5263C116.704 44.1464 113.708 44.2106 113.126 44.3079C112.801 44.341 112.415 44.341 112.018 44.341" stroke="#FFFDF4" stroke-width="2.2" stroke-linecap="round"/>
<path d="M62.957 64.3938C68.0968 64.3938 73.2365 64.3938 78.4863 64.3296C83.736 64.2654 88.94 64.1369 94.6405 63.8779C100.341 63.619 106.38 63.2335 103.677 62.1997C100.974 61.1659 89.345 59.4955 83.0332 58.635C76.7214 57.7745 76.079 57.7745 75.8444 57.8708C75.6098 57.9672 75.8025 58.16 79.1784 58.1629C82.5543 58.1658 89.1074 57.9731 94.3786 57.6168C99.6498 57.2605 103.44 56.7465 105.586 56.4818C107.731 56.217 108.117 56.217 107.512 56.1849C106.908 56.1527 105.302 56.0885 99.238 56.6336C93.1745 57.1787 82.7022 58.3352 77.1468 58.9309C71.5914 59.5267 71.2702 59.5267 71.5544 59.5909C71.8387 59.6552 72.7381 59.7836 74.647 59.8498C76.5559 59.916 79.4471 59.916 84.8233 59.7554C90.1996 59.5948 97.9735 59.2736 105.399 58.5532" stroke="#FFFDF4" stroke-width="2.2" stroke-linecap="round"/>
<path d="M68.0191 66.9248C69.3137 67.1837 70.4799 67.5711 71.8748 68.0588C73.0915 68.4842 74.179 68.4161 75.1232 68.418C75.4157 68.4186 74.0602 67.9002 71.9634 67.4154C68.0492 66.5104 64.6529 66.0837 63.2911 65.598C62.7503 65.4051 62.5717 65.1765 66.6485 65.3021C70.7252 65.4276 79.0773 65.8773 83.6047 66.1733C88.1322 66.4692 88.5819 66.5977 88.9421 66.696C89.5578 66.8641 86.8687 65.9611 80.2707 64.2439C76.6709 63.3071 72.3878 62.9765 70.0107 62.7117C66.5357 62.3247 65.6205 62.2523 65.5524 62.3165C65.4072 62.4534 66.3837 62.5093 66.6183 62.6718C66.8529 62.8344 66.6601 63.0271 66.3681 63.0943C64.9329 63.4244 63.2259 62.3847 61.9876 61.8658C60.1114 61.0796 61.0765 57.9107 61.0746 56.1586C61.0741 55.7601 61.2673 55.5083 61.3335 55.6008C62.1137 56.6908 60.2355 58.3507 59.7468 59.5228C59.6287 59.806 59.3282 60.0406 59.0673 60.173C58.8064 60.3054 58.5495 60.3054 58.4171 60.1448C58.2847 59.9842 58.2847 59.6629 58.3811 59.3689C58.7664 58.1934 60.4146 56.618 62.4627 54.3762C64.8003 51.8175 65.6789 49.9909 66.1033 48.8237C66.6549 47.3068 67.3688 46.0309 67.4671 45.8022C67.9097 44.7725 66.3331 47.7753 65.5251 49.0067C63.2835 52.4232 61.791 54.7218 61.3705 55.1433C61.172 55.3422 60.8857 55.372 60.7212 55.2445C58.8978 53.8311 63.405 49.3445 64.6403 48.0771C65.6222 47.0696 66.9716 45.1977 68.1777 43.6314C68.9242 42.662 70.4137 42.4604 73.7808 42.3299C76.2757 42.2333 77.8118 41.8763 79.822 41.4227C81.6533 41.0094 83.3254 40.8367 84.9179 40.5787C86.0771 40.3909 87.0303 40.0579 87.6134 39.9615C87.8887 39.916 88.068 39.6724 88.1672 39.3804C88.2665 39.0884 88.2665 38.7029 88.138 38.4722C88.0096 38.2415 87.7526 38.1772 87.4917 38.2084C86.3243 38.3478 85.2878 39.4077 83.668 39.6023C79.584 40.0932 77.5665 40.9652 75.9438 41.3545C73.4707 41.9479 72.3723 41.8101 71.6256 41.9707C71.3492 42.0302 71.4572 42.4526 71.6509 42.6823C72.0553 43.1619 73.0108 43.1729 74.0466 43.1408C75.0863 43.1085 78.9527 43.1067 84.2394 43.3978C86.1892 43.5051 86.6351 43.7531 83.9435 43.8845C81.252 44.0159 75.4055 44.0801 74.3853 44.6272C73.3652 45.1743 77.3485 46.2022 84.9257 48.5949C92.5029 50.9877 103.553 54.714 101.665 55.4771C99.7765 56.2403 84.6142 53.9274 76.5785 52.6396C68.5428 51.3517 68.093 51.159 72.6156 52.441C77.1382 53.723 86.6467 56.4856 88.4291 57.0736C90.2115 57.6615 83.9795 55.9911 80.8655 55.2912C77.7515 54.5913 77.9442 54.9126 82.9263 56.7806C87.9083 58.6486 97.6738 62.0537 102.062 63.7115C106.45 65.3692 105.165 65.1765 103.219 64.6596C101.272 64.1427 98.7018 63.3075 95.47 62.447" stroke="#FFFDF4" stroke-width="2.2" stroke-linecap="round"/>
<path d="M76.9745 68.4823C77.103 68.4823 81.024 69.1247 87.0895 70.1945C89.3068 70.5856 89.7499 70.8146 90.11 70.9139C91.4396 71.2804 81.7404 68.3577 79.0898 68.0608C77.4979 67.8825 76.4605 67.7697 74.8719 67.5098C74.4481 67.4405 74.062 67.3803 74.6022 67.2187C75.1425 67.0572 76.6201 66.8002 81.5574 66.8284C86.4947 66.8566 94.8468 67.1779 95.3588 66.6045C95.8708 66.0312 88.2897 64.5535 83.7739 63.7601C79.2582 62.9668 78.0375 62.9025 78.1475 62.8052C78.2575 62.7078 79.7351 62.5793 84.2869 62.5453C88.8387 62.5112 96.4199 62.5754 100.968 62.4801C105.516 62.3847 106.801 62.1277 107.077 61.9953C107.353 61.8629 106.583 61.8629 101.367 61.1883C96.1512 60.5137 86.5142 59.1645 83.8946 58.6301C81.2751 58.0957 85.9651 58.4169 87.4496 58.486C90.3581 58.6215 81.4075 57.7745 78.2292 57.8387C77.0411 57.8627 76.7214 58.0314 78.7403 58.5795C80.7592 59.1275 85.128 60.0912 87.6356 60.7162C90.6898 61.4774 91.5079 61.8629 91.7055 61.8629C91.8291 61.8629 91.0037 61.8629 88.5214 61.5417C86.0391 61.2204 81.6703 60.578 78.2633 60.247C72.5607 59.693 69.8392 59.9803 69.7058 60.2061C69.5798 60.4195 70.6004 60.6247 73.2452 61.0141C75.8901 61.4034 80.4516 61.9174 82.3839 62.1501C84.3161 62.3827 83.4809 62.3185 80.6093 61.6429C77.7377 60.9673 72.8549 59.6824 69.9219 59.0205C66.989 58.3585 66.1538 58.3585 65.9805 58.5513C64.8639 59.7933 67.8865 60.4339 68.051 60.6928C69.109 62.3582 63.3542 59.2697 61.6312 58.5221C60.1587 57.8832 64.9584 61.8512 65.9737 63.2228C66.0548 63.3323 65.6242 63.2919 65.266 63.0339C63.2203 61.5608 62.8285 58.1755 62.8587 56.1586C62.8647 55.7537 63.1478 55.5083 63.4077 55.408C63.9509 55.1985 68.2389 57.0444 74.4017 59.5422C76.6393 60.4492 77.0952 60.5624 77.4875 60.6286C79.9675 61.0471 67.5088 57.2566 65.8121 57.5759C63.3941 58.0309 69.9638 59.7194 69.9988 60.1078C70.0685 60.8805 67.1914 60.0523 65.047 59.0146C64.5742 58.7858 67.096 58.3585 70.4262 58.23C74.7341 58.0638 79.2893 57.5798 82.1804 57.2585C85.821 56.854 74.3871 52.7145 72.6076 52.4225C71.6707 52.2687 70.6355 52.3232 73.4467 52.3553C76.258 52.3875 82.9397 52.4517 87.5061 52.3563C94.3287 52.2138 96.8949 51.7391 97.22 51.6107C97.5829 51.4672 96.5133 50.5749 95.6061 49.8945C95.2128 49.5995 94.9558 49.4068 96.9114 49.693C98.8671 49.9792 103.043 50.7501 107.735 51.3498" stroke="#FFFDF4" stroke-width="2.2" stroke-linecap="round"/>
<path d="M143.168 58.1638C142.526 58.1638 138.854 57.7141 133.503 57.0327C131.496 56.7771 130.915 56.801 128.304 56.6083C125.693 56.4155 121.067 56.0301 118.556 55.7994C116.044 55.5686 115.787 55.5044 118.739 55.4392C121.69 55.374 127.858 55.3097 130.489 55.0839C133.12 54.858 132.028 54.4726 130.47 54.1134C126.947 53.3015 122.169 53.102 120.072 53.3911C119.411 53.4822 124.657 54.2584 126.581 54.3957C128.504 54.5329 128.247 54.2117 127.697 53.9177C124.158 52.0256 119.49 53.0358 117.736 53.2636C117.22 53.3306 116.574 53.2967 117.881 53.7143C119.189 54.1319 122.465 54.9671 124.988 55.5258C129.182 56.3416 131.16 56.6063 131.421 56.5421C131.425 56.4778 131.168 56.3493 130.903 56.217" stroke="#FFFDF4" stroke-width="2.2" stroke-linecap="round"/>
<path d="M130.903 56.217C129.811 56.217 128.718 56.217 125.811 56.0242C122.903 55.8315 118.213 55.446 115.508 55.151C110.878 54.6462 109.166 54.0112 108.904 53.8174C108.789 53.7327 109.413 53.4952 113.082 53.1711C116.751 52.8469 123.625 52.3972 127.424 52.1976C131.222 51.9981 131.736 52.0623 132.29 52.0954C132.844 52.1285 133.422 52.1285 132.114 51.4218C130.805 50.7151 127.593 49.3017 124.782 48.3808C116.929 45.8087 115.201 46.613 114.586 46.5157C114.294 46.4695 114.035 46.4826 114.352 46.6432C114.67 46.8038 115.569 47.1251 118.859 47.8045C122.15 48.484 127.803 49.5119 131.198 50.0415C137.281 50.9906 139.206 50.9604 139.436 50.9283C140.043 50.8434 135.859 50.1875 131.486 49.2793C125.65 48.0675 122.664 49.7903 122.371 50.1787C122.251 50.3376 122.527 50.5671 122.851 50.7307C123.59 51.1032 127.879 51.3478 133.783 51.672C135.897 51.7881 136.218 51.8676 135.709 51.5474C132.196 49.3376 128.399 49.0174 125.037 48.9795C124.695 48.9756 124.992 49.4613 125.381 49.691C127.333 50.8427 132.04 51.7314 136.018 53.0007C137.301 53.4099 138.168 53.6198 138.076 53.8145C136.894 56.3038 133.508 53.686 131.946 53.9119C130.633 54.1018 129.672 54.788 129.379 55.079C129.261 55.1964 129.536 55.4343 129.764 55.5657C130.991 56.2736 133.488 55.9561 138.541 56.0544C139.92 56.0812 140.954 56.217 141.961 56.0885C142.285 56.0472 142.132 55.703 141.938 55.41C141.516 54.775 141.093 54.1435 140.673 53.6247C139.586 52.2797 137.654 53.8145 137.265 54.1698C137.071 54.3468 137.133 54.7179 137.325 54.9155C138.243 55.8563 139.722 55.7614 141.021 56.1508C142.072 56.4662 143.036 56.0885 143.457 55.7332C143.671 55.5526 143.686 55.1851 143.655 55.1481C143.624 55.1111 143.495 55.3681 143.268 55.5005C143.041 55.6329 142.72 55.6329 142.458 55.5044C141.42 54.9949 141.61 53.5614 141.45 52.6863C141.379 52.2975 140.968 52.1324 140.642 52.0653C139.055 51.7385 137.526 53.6821 136.68 54.236C136.598 54.2899 136.996 54.3986 137.29 54.4317C137.584 54.4648 137.841 54.4648 136.978 54.4648C136.114 54.4648 134.123 54.4648 132.071 54.4648" stroke="#FFFDF4" stroke-width="2.2" stroke-linecap="round"/>
<path d="M121.363 71.2079C120.721 71.2079 117.756 71.2721 113.507 71.4337C109.999 71.5672 107.677 71.9205 102.435 71.9224C99.0363 71.9237 95.9291 71.4688 94.5673 71.1767C92.0988 70.6474 89.5084 69.9775 87.3658 69.7808C86.3786 69.6902 85.6088 69.4557 85.6039 69.4236C85.1861 66.6664 90.0768 69.4557 91.2148 69.6494C91.8336 69.7548 92.417 70.0378 92.8385 70.4584C93.218 70.8369 93.1334 71.4649 93.0049 71.9185C92.9409 72.1445 92.6195 72.2436 92.3265 72.2777C91.1116 72.419 89.8315 71.535 88.2069 70.7893C87.8439 70.6227 87.6861 70.3046 87.5547 70.0437C87.4233 69.7828 87.359 69.5258 87.4544 69.3934C88.6097 67.7901 93.3164 69.1948 97.9208 69.1325C98.3985 69.1261 94.9791 67.9041 89.9892 67.028C86.4128 66.7301 84.6996 66.7943 84.1817 66.9238C83.9208 66.989 83.6638 67.0533 83.5938 67.1195" stroke="#FFFDF4" stroke-width="2.2" stroke-linecap="round"/>
<path d="M63.3464 57.1904C63.3464 57.0619 65.1453 54.0404 68.0637 49.1449C70.3564 45.2992 70.7426 44.1502 70.9704 43.7268C71.4577 42.8208 69.4499 45.441 69.1238 45.7992C68.4331 46.558 71.4493 45.186 74.9206 44.927C77.2315 44.7547 71.0093 42.9159 69.9035 42.363C69.8334 42.328 70.0904 42.4565 72.4072 43.2615C74.724 44.0665 79.0928 45.5442 81.7288 46.3697C85.1052 47.427 88.0503 47.456 91.0699 47.3275C94.8405 47.1671 80.1012 42.0729 81.6256 42.5499C84.2952 43.3852 90.8597 45.2755 94.364 46.3327C97.8684 47.3898 98.1254 47.5183 98.0972 47.5524C97.8734 47.8225 93.7547 45.8499 88.3667 43.352C86.6042 42.535 86.962 42.3319 88.3161 42.7796C89.6701 43.2274 92.0473 44.2554 92.9506 44.6564C93.6702 44.9759 88.6208 43.3092 85.8095 42.6551C85.052 42.4788 83.7497 42.5889 83.6338 42.5889C80.9509 42.5889 91.0855 42.1995 93.8111 43.0065C94.1681 43.1122 94.1693 43.6207 93.5288 43.2401C91.3561 41.949 89.7616 40.385 89.0189 39.9956C88.573 39.7619 87.8264 39.8632 87.4624 40.0238C87.0983 40.1845 87.0983 40.5057 87.2268 40.8318C87.7621 42.1904 88.4592 42.7816 88.3015 42.9451C88.0574 43.1983 87.0516 42.6589 86.7167 42.5587C86.3819 42.4584 86.6388 42.5227 87.6707 42.9412C88.7025 43.3598 90.5014 44.1308 91.7708 44.5357" stroke="#FFFDF4" stroke-width="2.2" stroke-linecap="round"/>
<path d="M91.7708 44.5357C91.8993 44.5357 92.4152 44.9212 93.3857 45.698C93.9065 46.0893 94.4847 46.4748 94.9111 46.7698C95.3374 47.0647 95.5944 47.2575 95.2751 47.2614" stroke="#FFFDF4" stroke-width="2.2" stroke-linecap="round"/>
<path d="M67.4346 53.4913C68.2717 54.0715 69.9616 55.2396 70.9993 56.0194C72.2116 56.9303 72.8839 57.3831 72.9832 57.6431C73.7981 59.7763 66.6052 55.5745 64.5921 54.5368C63.9538 54.2078 64.2495 54.0131 64.7995 53.9469C67.3513 53.6398 70.0745 52.9151 71.78 52.0351C73.5732 51.1098 72.8839 49.2102 73.0474 49.0466C73.3336 48.7604 72.2395 49.7261 71.6895 49.9529C70.5088 50.4398 69.5781 49.7942 69.1897 49.6628C68.9954 49.5971 68.8013 50.0454 68.7662 50.3394C68.5626 52.0474 69.8351 54.0715 69.836 54.5271C69.8367 54.8441 69.3814 52.7905 69.2529 51.0042C69.2224 50.5798 68.0887 52.0546 66.9839 53.0358C66.8361 53.167 66.722 52.7827 66.8817 52.5218C68.3032 50.1988 71.6476 48.3672 73.6889 47.3305C74.5193 46.9088 75.0897 46.4845 75.5433 46.064C75.764 45.8594 75.8684 45.5792 75.774 45.4147C75.5378 45.0033 74.3849 45.5053 72.7943 45.8976C72.4389 45.9852 72.1772 46.027 72.2375 46.1565C72.2979 46.286 72.6833 46.4787 76.1585 47.2205C79.6337 47.9622 86.1869 49.2472 89.7234 49.9733C93.2599 50.6995 93.5811 50.828 91.1767 50.2517C88.7723 49.6755 83.6326 48.3905 80.246 47.6322C75.4094 46.5492 73.4738 46.4826 72.8897 46.6111C72.6587 46.6619 72.6911 46.9966 72.9802 47.2253C73.7365 47.8237 77.9769 48.5521 84.0375 49.8478C86.5749 50.3902 87.978 50.8864 87.0678 50.7648C82.8375 50.1992 78.2203 49.144 76.177 49.143C75.4161 49.1426 75.226 49.399 75.2552 49.5626C75.327 49.9651 79.0827 50.6294 83.4048 51.5386C87.58 52.4169 73.4738 49.2082 73.0182 49.3367C71.9112 49.649 75.7321 50.4386 80.3939 51.2164C81.6466 51.4254 82.6007 51.7976 82.7117 52.0273C84.2385 55.1881 74.7061 50.9604 74.0909 51.0247C73.7916 51.0559 73.54 51.2174 73.7288 51.4442C75.5336 53.6118 79.622 54.2623 80.5127 55.2727C81.32 56.1885 77.5038 55.8295 75.5929 55.5375C74.7147 55.4033 74.0033 55.4382 75.3097 55.9201C76.616 56.4019 79.9569 57.3656 81.2603 57.7978C81.79 57.9735 77.3987 57.0697 75.5793 56.3172C74.0486 55.6841 84.1037 57.6849 87.8057 58.3459C91.5077 59.0068 91.8289 59.0711 91.8659 59.1042C91.9029 59.1373 91.6459 59.1373 87.4981 58.2057C83.3503 57.2741 75.3194 55.411 71.0538 54.3869C66.7882 53.3629 66.5312 53.2344 66.2664 53.102" stroke="#FFFDF4" stroke-width="2.2" stroke-linecap="round"/>
<path d="M85.5405 46.2879C87.211 46.6734 91.5408 47.7714 96.9258 49.1343C99.0795 49.6793 99.8131 49.7903 100.623 50.0824C101.211 50.2944 98.5495 49.218 93.3329 47.5972C89.6421 46.4505 85.5658 46.1594 82.8938 46.2217C77.1702 46.3552 91.6304 49.1381 94.0007 50.7589C94.5944 51.1649 95.0062 51.6652 95.1094 52.0575C95.2126 52.4498 94.9556 52.771 94.6947 52.9686C93.7896 53.6542 92.3624 53.943 90.9645 54.237C90.236 54.3902 89.5024 54.4628 89.2084 54.8834C88.4168 56.0158 91.0541 56.0865 91.1543 56.1518C92.5559 57.0634 88.5932 55.5687 88.3645 55.5034C88.3373 55.4957 88.7139 55.5667 92.6379 55.6319C96.5618 55.6972 104.079 55.7614 107.887 55.6339C111.695 55.5064 111.566 55.1851 111.372 54.9554C111.177 54.7257 110.92 54.5972 110.655 54.4648" stroke="#FFFDF4" stroke-width="2.2" stroke-linecap="round"/>
<path d="M97.4165 69.8451C98.2537 69.9093 104.569 70.9392 108.216 71.7258C109.973 72.1048 115.795 72.1813 119.927 71.7939C122.227 71.5782 123.368 71.1456 124.668 70.7874C126.122 70.3864 128.037 69.5258 129.761 68.6478C131.411 67.8076 133.033 66.2862 135.179 64.8523C136.989 63.6431 139.399 61.7383 140.6 60.7308C141.552 59.9324 142.253 58.6895 143.617 57.5515C144.416 56.8848 145.049 56.3494 145.211 55.8315C145.29 55.5805 145.181 55.3136 145.02 55.0849C144.349 54.135 140.988 54.2701 138.308 54.5281C137.835 54.5735 137.401 54.8503 137.684 54.9495C140.647 55.992 142.711 54.4005 143.005 54.3032C144.149 53.9241 139.87 55.7536 138.083 57.4415C133.068 62.1779 128.894 64.3276 129.339 64.4902C133.855 66.1367 136.86 63.619 138.297 63.0008C139.965 62.2834 141.93 60.7649 142.841 59.7905C142.973 59.4663 142.973 59.0166 142.652 58.7849C142.331 58.5532 141.688 58.5532 141.026 58.5532" stroke="#FFFDF4" stroke-width="2.2" stroke-linecap="round"/>
<path d="M139.08 59.916C137.594 60.3677 135.517 61.2749 134.088 61.9904C133.773 62.1482 133.504 62.1861 133.307 62.3798C133.111 62.5735 132.982 62.8947 132.98 63.1887C132.978 63.4827 133.107 63.7397 133.302 63.8721C134.478 64.6723 137.059 63.2296 138.459 62.7088C139.816 62.204 140.116 60.6364 140.797 59.4984C141.146 58.9149 141.286 58.2962 141.254 57.8747C141.24 57.6851 140.902 57.646 140.481 57.8377C138.353 58.8059 137.592 60.43 136.811 61.4696C136.129 62.3766 135.772 63.2238 135.609 63.3873C134.635 64.3607 137.647 60.7649 138.106 59.66C138.531 58.6385 133.652 60.43 130.911 60.7269C130.389 60.759 129.875 60.8233 129.321 60.8564C128.767 60.8895 128.189 60.8895 127.593 60.8895" stroke="#FFFDF4" stroke-width="2.2" stroke-linecap="round"/>
<path d="M127.593 60.8895C126.822 60.8895 122.634 61.018 116.409 61.1163C110.931 61.2028 108.646 59.4624 108.128 59.3651C107.87 59.3165 107.61 59.332 111.943 58.9786C116.276 58.6253 125.206 57.9185 126.273 57.426C127.34 56.9334 120.273 56.6764 119.041 56.6083C122.628 56.6686 128.557 57.2508 130.145 57.9964C130.77 58.2923 131.027 58.4208 131.097 58.9426" stroke="#FFFDF4" stroke-width="2.2" stroke-linecap="round"/>
<path d="M131.097 58.9426C128.528 59.1996 125.533 59.5247 122.521 59.8167C120.214 59.916 118.965 59.8518 118.35 59.7544C117.993 59.7213 117.543 59.7213 117.275 59.916" stroke="#FFFDF4" stroke-width="2.2" stroke-linecap="round"/>
<path d="M122.337 68.6769C115.398 67.7775 109.318 66.9929 105.2 66.5062C101.718 66.0945 100.275 65.9513 99.6926 65.9192C99.3663 65.9012 98.9819 65.8228 102.381 65.5649C105.78 65.3069 112.976 64.8572 117.55 64.6898C122.124 64.5223 123.859 64.6508 124.56 64.717C125.261 64.7832 124.875 64.7832 122.3 64.205C119.724 63.6268 114.97 62.4703 111.974 61.8746C107.923 61.0688 106.505 61.3431 105.923 61.4725C105.599 61.5445 105.212 61.602 107.872 61.9563C110.533 62.3107 116.251 62.9531 119.421 63.3484C122.592 63.7436 123.041 63.8721 123.434 63.9383C123.826 64.0045 124.147 64.0045 123.478 63.9081C122.808 63.8117 121.137 63.619 117.996 63.5197C110.296 63.2763 106.3 63.4204 107.146 63.324C108.593 63.1591 104.044 61.8668 102.904 61.4102C102.411 61.213 101.963 60.6325 101.315 60.1788C100.722 59.7631 104.449 59.6571 111.225 59.4634C113.889 59.3339 114.981 59.1412 115.769 58.9134C116.556 58.6856 117.006 58.4286 117.664 57.7745" stroke="#FFFDF4" stroke-width="2.2" stroke-linecap="round"/>
<path d="M117.664 57.7745C117.536 57.7745 115.863 57.7102 113.88 57.6129C113.357 57.5873 117.962 57.387 121.793 56.9986C122.999 56.8763 122.668 56.6102 121.41 56.1255C120.152 55.6407 117.968 54.8697 114.851 54.1835C111.734 53.4972 107.751 52.919 105.57 52.589C101.791 52.017 99.2371 52.1928 98.8788 52.2901C97.2094 52.7438 104.476 53.6159 106.011 54.1066C107.206 54.4884 108.185 54.6575 108.577 54.9496C110.082 56.0699 103.857 54.2078 102.738 53.6228C102.56 53.5299 103.569 53.6198 106.566 54.3275C109.563 55.0352 114.896 56.3844 119.795 57.1758C124.694 57.9672 128.999 58.16 131.345 58.2914C134.535 58.4701 135.443 58.3585 135.832 58.5192C136.025 58.5985 135.965 59.001 135.836 59.2307C135.08 60.5837 128.867 60.2392 125.684 60.5312C124.97 60.5968 123.966 61.0822 122.735 61.4064C121.895 61.6274 127.854 62.8247 130.588 63.324C137.361 64.5615 120.592 63.6112 119.548 63.9714C118.386 64.3722 123.489 64.1992 128.355 64.8776C129.733 65.0698 130.638 65.1726 131.288 65.2368C132.24 65.3309 127.033 65.9474 125.066 66.5013C124.544 66.6485 123.77 66.9228 122.862 67.247C121.545 67.7177 129.406 66.5354 129.798 66.5354C131.352 66.5354 126.694 67.2441 124.777 68.9622C124.329 69.3637 124.031 69.7088 123.994 69.9064C123.957 70.104 124.214 70.1683 124.474 70.0729C125.75 69.6064 126.935 67.7775 128.335 66.5393C128.901 66.0383 129.729 65.4354 130.444 64.9166C133.152 62.9531 120.721 65.3011 119.453 65.7226C118.908 65.9039 118.124 65.9513 117.377 65.8228C117.115 65.7778 117.209 65.4374 117.37 65.2407C118.418 63.9662 120.904 63.2958 121.523 62.0615C121.658 61.7927 122.134 61.8629 122.493 61.9593C122.853 62.0556 123.174 62.2484 123.147 62.4762C123.119 62.704 122.734 62.9609 119.644 63.1897C116.555 63.4185 110.772 63.6112 107.633 63.6784C103.388 63.7692 100.423 63.2257 97.9103 63.7747C97.1271 63.9459 96.5115 64.2634 96.1211 64.4571C93.7669 65.6254 103.382 66.4692 104.941 66.5997C106.899 66.7634 99.901 67.1818 96.0968 67.3784C95.8978 67.3887 99.7199 68.2175 104.845 69.0605C107.033 69.4204 109.594 69.6504 112.327 69.4577C115.256 69.2511 107.486 68.3538 104.727 67.6412C103.927 67.4346 107.759 67.5731 114.213 67.6062C118.198 67.6266 119.997 66.7963 120.709 66.5695C122.257 66.0768 113.841 65.4958 112.446 65.7557C111.765 65.8826 111.113 66.1441 110.883 66.3719C109.203 68.0381 116.36 66.2745 117.659 66.3728C118.307 66.4692 119.023 66.5354 119.479 66.4712C119.549 66.4069 119.292 66.2784 119.027 66.146" stroke="#FFFDF4" stroke-width="2.2" stroke-linecap="round"/>
<path d="M112.018 71.0132C112.986 70.949 116.986 70.8185 120.948 70.69C122.09 70.653 121.441 70.3046 120.789 70.1079C117.411 69.0894 113.646 69.7147 112.706 69.812C111.507 69.9363 119.599 68.8717 121.873 68.7101C122.523 68.6639 123.294 68.677 123.531 68.8055C123.446 69.1909 122.858 69.6485 122.437 70.069C122.272 70.2968 122.208 70.5538 122.337 70.8185" stroke="#FFFDF4" stroke-width="2.2" stroke-linecap="round"/>
</svg>
