<svg width="50" height="50" viewBox="0 0 50 50" fill="none" xmlns="http://www.w3.org/2000/svg">
<path d="M42.5462 23.6305C41.8683 23.6305 38.9205 23.6305 34.8704 23.6588C33.1907 23.6705 30.1355 23.8017 25.7147 23.83C22.525 23.8503 19.7858 24.1989 15.2033 24.287C13.2179 24.3252 11.3979 24.2571 10.055 24.4856C9.45669 24.5994 8.93972 24.7141 8.48437 24.8562C8.25499 24.9418 8.02902 25.0548 7.45386 25.1712C7.96226 26.4739 9.33343 28.8756 9.84783 29.9874C10.8045 32.0552 11.5588 32.8709 11.9602 33.6986C12.2435 34.0692 12.5876 34.5263 12.9291 35.1237C13.1011 35.4387 13.2706 35.7776 13.6164 36.4692M7.4539 24.3153C7.79455 23.9746 8.92948 22.6137 10.3024 21.0962C11.8024 19.4381 14.4621 16.9647 16.2355 15.1057C16.8073 14.6743 17.2096 14.3884 17.5511 14.0469C17.7231 13.8749 17.8926 13.7054 18.2384 13.5308" stroke="#051DB5" stroke-width="2.4" stroke-linecap="round"/>
</svg>
