<svg width="198" height="182" viewBox="0 0 198 182" fill="none" xmlns="http://www.w3.org/2000/svg">
<path d="M74.8459 72.7773C74.7907 72.7806 74.6203 72.7948 74.2952 72.8594C73.8898 72.9401 73.3465 73.0772 72.6545 73.2812C71.1599 73.7222 69.6404 74.0781 68.1077 74.3359C66.6703 74.5778 65.2397 74.8708 63.8186 75.2148C62.5421 75.5241 61.3518 76.0511 60.2444 76.8086C58.8372 77.771 57.3035 78.4483 55.6506 78.8359C54.1861 79.1794 52.7363 79.5254 51.303 79.8789C49.8441 80.2387 48.3657 80.5814 46.8733 80.8867C45.2274 81.2233 43.5602 81.2606 41.8928 81.0156C40.4435 80.8028 38.9997 80.6674 37.5686 80.5938C36.0702 80.5166 34.5689 80.4013 33.0686 80.2656C31.4084 80.1152 29.9297 79.6742 28.7092 78.8594C27.2975 77.9164 26.5439 76.4063 26.2717 74.6289C25.9892 72.7832 26.3427 71.0307 27.3147 69.4375C28.1176 68.1217 28.9465 66.8462 29.8108 65.6172C30.753 64.2776 31.9051 63.117 33.2444 62.1367C34.3446 61.3315 35.3318 60.3811 36.2092 59.2891C37.4083 57.7954 38.9977 56.8904 40.8967 56.6289C42.3104 56.435 43.6637 56.0945 44.9514 55.6094C46.3712 55.0744 47.8073 54.5816 49.2522 54.1211C50.6909 53.6625 52.1445 53.2249 53.5999 52.8203C55.1334 52.3944 56.7043 52.1244 58.3108 52.0117C59.6933 51.9149 61.0294 51.6505 62.3186 51.2148C63.7156 50.7424 65.1272 50.2348 66.5491 49.7031C67.5318 49.3356 68.0871 48.722 68.3303 47.7461C68.6964 46.274 69.0697 44.8074 69.4553 43.3516C69.8193 41.9777 70.0739 40.5837 70.217 39.1797C70.3611 37.7658 70.4078 36.341 70.3577 34.9141C70.3036 33.372 70.3299 31.8332 70.428 30.2969C70.5269 28.7497 70.7145 27.2071 70.9905 25.6797C71.2473 24.2583 71.4292 22.8312 71.5413 21.4023C71.6579 19.9153 71.7848 18.4191 71.928 16.9141C72.0884 15.2282 72.5542 13.621 73.3225 12.1094C73.9508 10.873 74.7138 8.9067 75.6077 6.15625L75.6194 6.14453L75.6428 6.03906C75.9066 5.25609 76.757 4.84026 77.5413 5.10156C78.3271 5.36385 78.7528 6.21419 78.4905 7L78.4553 7.07031C77.5479 9.86284 76.7319 12.0176 75.9944 13.4688C75.3965 14.6451 75.041 15.8854 74.9163 17.1953C74.7745 18.6848 74.6449 20.1657 74.5295 21.6367C74.4095 23.167 74.2066 24.6987 73.9319 26.2188C73.6769 27.6312 73.5077 29.0541 73.4163 30.4844C73.3243 31.9228 73.3071 33.3641 73.3577 34.8086C73.4126 36.3717 73.3633 37.9338 73.2053 39.4844C73.0462 41.0455 72.7537 42.5886 72.3499 44.1133C71.9678 45.5554 71.5993 47.0141 71.2366 48.4727C70.7495 50.4244 69.4936 51.8089 67.6038 52.5156C66.1522 53.0585 64.7083 53.5676 63.2795 54.0508C61.7434 54.5701 60.157 54.8972 58.5217 55.0117C57.111 55.1106 55.7354 55.3427 54.3967 55.7148C52.978 56.1093 51.5687 56.5335 50.1663 56.9805C48.7714 57.425 47.3886 57.9054 46.0178 58.4219C44.5135 58.9887 42.9368 59.3819 41.3069 59.6055C40.1649 59.7627 39.2706 60.2701 38.553 61.1641C37.5138 62.4582 36.3319 63.5861 35.0139 64.5508C33.9331 65.3418 33.0224 66.2729 32.2717 67.3398C31.4449 68.5154 30.6402 69.7329 29.8694 70.9961C29.2666 71.984 29.0617 73.0252 29.2366 74.1719C29.4228 75.3881 29.8621 76.0215 30.3733 76.3633C31.0745 76.8317 32.0377 77.1593 33.3381 77.2773C34.7993 77.4095 36.2621 77.5186 37.7209 77.5938C39.2476 77.6723 40.7862 77.8247 42.3264 78.0508C43.6495 78.2451 44.9622 78.2111 46.2639 77.9453C47.7174 77.648 49.1572 77.3226 50.5764 76.9727C52.0225 76.616 53.4939 76.2644 54.9709 75.918C56.2592 75.6152 57.4547 75.0898 58.5569 74.3359C59.9594 73.3769 61.4807 72.6927 63.1155 72.2969C64.6056 71.9361 66.1077 71.6248 67.6155 71.3711C69.0267 71.1335 70.4219 70.8163 71.7991 70.4102C72.5398 70.1916 73.19 70.0234 73.7209 69.918C73.9624 69.8701 74.2174 69.8253 74.4709 69.8008H75.2561L75.303 69.8125L75.7834 69.8945C76.4464 69.9333 77.0279 70.3851 77.1663 71.0664C77.3307 71.8783 76.8063 72.6715 75.9944 72.8359L75.9006 72.8594L75.6194 72.9062L74.8459 72.7773Z" fill="#FFFDF4"/>
<path d="M134.261 117.287C134.961 117.021 135.522 117.367 135.655 117.463C135.843 117.597 135.959 117.743 135.995 117.791C136.084 117.909 136.145 118.022 136.171 118.072C136.235 118.194 136.3 118.342 136.358 118.482C136.481 118.776 136.64 119.207 136.839 119.748C137.233 120.817 137.696 122.049 138.222 123.439C138.755 124.85 139.267 126.27 139.745 127.693C140.185 129.001 140.746 130.256 141.444 131.455C142.258 132.853 142.892 134.35 143.343 135.931C143.728 137.282 144.265 138.548 144.937 139.74C145.669 141.038 146.404 142.339 147.14 143.642C147.841 144.884 148.625 146.074 149.495 147.205C150.402 148.383 151.317 149.559 152.249 150.72C153.248 151.965 154.129 153.3 154.886 154.728C155.767 156.393 155.962 158.139 155.167 159.791C154.771 160.613 154.166 161.282 153.339 161.701C152.53 162.11 151.62 162.221 150.702 162.146C148.816 161.99 147.252 161.112 146.097 159.591C145.18 158.384 144.28 157.165 143.401 155.947C142.518 154.721 141.662 153.473 140.835 152.209C140.013 150.951 139.216 149.675 138.433 148.388C137.713 147.207 136.873 146.111 135.913 145.107C134.812 143.956 133.823 142.713 132.96 141.369C132.196 140.18 131.337 139.07 130.382 138.041C129.38 136.961 128.356 135.902 127.312 134.865C126.26 133.821 125.2 132.783 124.124 131.759C124.043 131.683 123.958 131.629 123.89 131.572C123.87 131.88 123.912 132.343 124.124 133.025C124.563 134.433 125.028 135.848 125.507 137.267C126.026 138.807 126.357 140.384 126.503 141.99C126.637 143.46 126.797 144.925 126.983 146.384C127.168 147.831 127.398 149.275 127.675 150.709C127.964 152.207 128.194 153.719 128.378 155.232C128.557 156.709 128.747 158.185 128.929 159.662C129.112 161.15 129.277 162.645 129.433 164.138C129.59 165.648 129.701 167.164 129.772 168.685C129.841 170.136 129.979 171.58 130.171 173.009C130.37 174.495 130.544 175.998 130.71 177.498C130.814 178.44 130.718 179.421 130.171 180.252C129.602 181.111 128.716 181.569 127.78 181.752C126.843 181.934 125.898 181.841 125.038 181.377C124.197 180.922 123.578 180.192 123.14 179.338C122.439 177.97 121.792 176.589 121.183 175.213C120.579 173.849 119.995 172.471 119.437 171.076C118.892 169.716 118.315 168.36 117.714 167.021C117.103 165.661 116.483 164.293 115.874 162.931C115.254 161.546 114.678 160.143 114.14 158.724C113.61 157.328 113.08 155.928 112.558 154.529C112.037 153.134 111.515 151.737 110.987 150.345C110.475 148.996 109.901 147.672 109.265 146.373C108.595 145.005 107.966 143.614 107.378 142.213C106.812 140.863 106.214 139.526 105.585 138.205C105.577 138.188 105.558 138.174 105.55 138.158C105.514 139.543 105.385 140.917 105.081 142.271C104.775 143.632 104.586 145.022 104.53 146.443C104.465 148.101 104.165 149.715 103.628 151.271C103.146 152.669 102.697 154.073 102.269 155.478C101.835 156.898 101.396 158.318 100.968 159.744C100.536 161.181 100.102 162.618 99.6436 164.045C99.146 165.594 98.4317 167.059 97.5225 168.439C96.9858 169.253 96.2125 169.993 95.1318 170.174C94.0483 170.353 93.0751 169.896 92.3076 169.295C91.0332 168.296 89.9135 167.192 88.9561 165.978C88.0561 164.837 87.1611 163.64 86.2842 162.381C85.3174 160.992 84.6373 159.458 84.2334 157.81C83.8256 156.144 83.7555 154.452 84.0342 152.748C84.2483 151.438 84.1968 150.138 83.8818 148.845C83.6972 148.086 83.5834 147.323 83.542 146.56C83.2603 147.767 82.8154 148.917 82.1943 150.006C81.4811 151.255 80.8699 152.543 80.3545 153.861C79.8457 155.163 79.4598 156.505 79.1943 157.881C78.8882 159.469 78.3835 161.008 77.6943 162.486C77.078 163.808 76.543 165.146 76.0771 166.494C75.5314 168.073 74.7133 169.45 73.6279 170.607C73.0046 171.272 72.19 171.809 71.1787 171.849C70.1659 171.888 69.2988 171.421 68.624 170.806C67.6292 169.901 66.5572 168.954 65.4131 167.97C64.0501 166.798 63.0911 165.344 62.5537 163.634C62.1036 162.202 61.6461 160.792 61.1826 159.404C60.6516 157.814 60.4527 156.167 60.585 154.482C60.6899 153.15 60.5909 151.807 60.2803 150.463C59.885 148.749 59.8844 147.028 60.292 145.318C60.6124 143.975 60.7329 142.635 60.6436 141.299C60.5417 139.775 60.482 138.249 60.4795 136.728C60.4771 135.196 60.5499 133.665 60.6904 132.134C60.8382 130.527 61.1784 128.949 61.71 127.412C62.1687 126.085 62.4857 124.732 62.6592 123.357C62.8586 121.779 63.214 120.235 63.7256 118.728C64.1583 117.453 64.4024 116.127 64.4639 114.744C64.5392 113.042 64.9208 111.41 65.5889 109.857C66.1644 108.52 66.6609 107.161 67.0889 105.791C67.5178 104.417 67.8833 103.022 68.1787 101.607C68.4955 100.09 68.8984 98.5979 69.3857 97.1306C69.8629 95.6942 70.3814 94.264 70.9326 92.8415C71.4317 91.5537 71.7656 90.2152 71.9404 88.8454C72.1204 87.4336 72.1972 86.0157 72.1631 84.5915C72.1238 82.9631 72.2855 81.3495 72.6553 79.7634C72.9578 78.4671 73.1392 76.4068 73.1592 73.5173V73.4001L73.1709 73.2946C73.2417 72.4725 73.9656 71.8571 74.7881 71.9235C75.6073 71.9919 76.2172 72.7113 76.1592 73.529L76.0068 77.4782C75.9115 78.6335 75.7638 79.6268 75.5732 80.4431C75.2613 81.781 75.1303 83.1358 75.1631 84.5095C75.2012 86.0882 75.1168 87.6667 74.917 89.2321C74.7113 90.8426 74.3084 92.4057 73.7217 93.9196C73.1884 95.2958 72.6948 96.6796 72.2334 98.0681C71.7822 99.4261 71.4019 100.812 71.1084 102.216C70.7935 103.725 70.4059 105.216 69.9482 106.681C69.489 108.152 68.9587 109.609 68.3428 111.041C67.8198 112.256 67.5235 113.53 67.4639 114.873C67.3904 116.532 67.0982 118.141 66.5732 119.689C66.1266 121.005 65.8099 122.355 65.6357 123.732C65.4359 125.315 65.0719 126.875 64.5459 128.396C64.0931 129.706 63.8042 131.041 63.6787 132.404C63.5464 133.844 63.4771 135.287 63.4795 136.728C63.4819 138.183 63.5343 139.641 63.6318 141.099C63.7416 142.743 63.5984 144.38 63.21 146.009C62.909 147.271 62.9062 148.531 63.1982 149.795C63.5757 151.429 63.7027 153.073 63.5732 154.716C63.472 156.006 63.6283 157.251 64.0303 158.455C64.4991 159.858 64.9582 161.285 65.4131 162.732C65.7816 163.904 66.4276 164.887 67.3701 165.697C68.5333 166.696 69.6215 167.665 70.6396 168.591C70.9665 168.889 71.1009 168.86 71.0615 168.861C71.0151 168.863 71.1442 168.88 71.4482 168.556C72.218 167.735 72.8214 166.725 73.2412 165.509C73.7411 164.063 74.3172 162.632 74.9756 161.22C75.5618 159.963 75.9821 158.663 76.2412 157.318C76.5411 155.762 76.9778 154.245 77.5537 152.771C78.1234 151.314 78.8074 149.893 79.5928 148.517C80.2416 147.379 80.6453 146.161 80.8115 144.849C81.0168 143.223 81.418 141.645 81.9951 140.138C82.5127 138.786 82.9786 137.412 83.3896 136.013C83.4999 135.638 83.6024 135.306 83.7061 135.041C83.7579 134.909 83.8233 134.763 83.8936 134.631C83.9488 134.526 84.0697 134.302 84.2803 134.103C84.3896 134 84.604 133.823 84.9248 133.728C85.2952 133.619 85.7203 133.644 86.0967 133.845C86.4223 134.02 86.6042 134.273 86.6943 134.42C86.7881 134.574 86.8406 134.724 86.8701 134.818C86.9707 135.139 86.9923 135.504 86.999 135.756C87.0263 136.781 87.0428 138.046 87.0576 139.541C87.0732 141.123 86.9477 142.707 86.6709 144.287C86.4461 145.571 86.4859 146.853 86.7998 148.142C87.2091 149.824 87.2773 151.523 86.999 153.228C86.7845 154.54 86.828 155.836 87.1396 157.107C87.4563 158.397 88.0024 159.574 88.7568 160.658C89.6011 161.871 90.4512 163.024 91.3115 164.115C92.1134 165.132 93.0592 166.078 94.1592 166.939C94.436 167.156 94.5892 167.2 94.6396 167.209C94.684 167.186 94.824 167.094 95.0264 166.787C95.7871 165.632 96.372 164.413 96.7842 163.131C97.2359 161.724 97.671 160.306 98.0967 158.888C98.5262 157.458 98.9626 156.024 99.3975 154.599C99.8368 153.16 100.298 151.719 100.792 150.287C101.231 149.013 101.488 147.693 101.542 146.326C101.605 144.727 101.805 143.156 102.151 141.615C102.453 140.272 102.603 138.904 102.597 137.525C102.593 136.73 102.659 135.915 102.948 135.263C103.101 134.918 103.362 134.527 103.792 134.244C104.251 133.943 104.767 133.864 105.233 133.927L105.808 134.068C106.343 134.274 106.767 134.647 107.097 135.017C107.545 135.522 107.941 136.178 108.292 136.916C108.942 138.28 109.559 139.659 110.144 141.052C110.708 142.399 111.316 143.734 111.96 145.049C112.637 146.431 113.255 147.842 113.8 149.279C114.329 150.675 114.848 152.076 115.37 153.474C115.891 154.869 116.413 156.266 116.94 157.658C117.459 159.025 118.019 160.378 118.616 161.713C119.224 163.072 119.834 164.433 120.444 165.791C121.063 167.167 121.654 168.553 122.214 169.951C122.76 171.315 123.335 172.672 123.925 174.006C124.51 175.327 125.137 176.65 125.812 177.966C126.058 178.448 126.294 178.651 126.456 178.74C126.6 178.818 126.823 178.873 127.206 178.799C127.587 178.724 127.655 178.612 127.663 178.599C127.691 178.557 127.793 178.362 127.733 177.826C127.57 176.349 127.39 174.871 127.194 173.408C126.991 171.892 126.857 170.362 126.784 168.826C126.715 167.36 126.596 165.897 126.444 164.443C126.291 162.97 126.133 161.494 125.952 160.025C125.771 158.546 125.581 157.063 125.401 155.584C125.226 154.14 124.998 152.7 124.722 151.271C124.433 149.776 124.199 148.268 124.007 146.759C123.816 145.265 123.652 143.764 123.515 142.259C123.39 140.89 123.104 139.547 122.659 138.228C122.173 136.787 121.71 135.347 121.265 133.916C120.776 132.347 120.647 130.7 121.534 129.392C121.775 129.038 122.121 128.692 122.589 128.478C123.065 128.262 123.562 128.23 124.019 128.314C124.855 128.469 125.588 129.023 126.187 129.591C127.277 130.628 128.356 131.675 129.421 132.732C130.494 133.798 131.555 134.892 132.585 136.002C133.66 137.161 134.633 138.404 135.491 139.74C136.251 140.923 137.113 142.021 138.081 143.033C139.19 144.193 140.155 145.463 140.987 146.83C141.755 148.09 142.549 149.335 143.354 150.568C144.156 151.793 144.982 153.001 145.839 154.189C146.703 155.387 147.585 156.587 148.487 157.775C149.148 158.645 149.944 159.074 150.948 159.158C151.473 159.201 151.792 159.122 151.979 159.029C152.148 158.944 152.314 158.793 152.46 158.49C152.75 157.888 152.781 157.162 152.237 156.134C151.568 154.871 150.795 153.69 149.917 152.595C148.971 151.417 148.036 150.228 147.116 149.033C146.16 147.79 145.297 146.484 144.526 145.119C143.79 143.815 143.055 142.515 142.323 141.216C141.532 139.814 140.909 138.326 140.46 136.752C140.077 135.406 139.539 134.144 138.854 132.966C138.054 131.591 137.402 130.145 136.897 128.642C136.431 127.254 135.93 125.871 135.409 124.494C135.299 124.201 135.186 123.917 135.081 123.638L135.011 123.966L133.335 119.314L133.3 119.22C133.148 118.799 133.194 118.354 133.394 117.99L133.487 117.65L134.108 117.334C134.127 117.324 134.148 117.319 134.167 117.31L134.202 117.299C134.221 117.292 134.242 117.293 134.261 117.287Z" fill="#FFFDF4"/>
<path d="M110.323 46.2264L110.416 46.2498L112.83 46.7654L112.432 47.2342C113.358 47.4108 114.405 47.5343 115.584 47.574C117.121 47.6258 118.653 47.7565 120.178 47.9725C121.732 48.1927 123.278 48.541 124.807 49.0154C126.011 49.3893 127.228 49.4415 128.475 49.1678C130.172 48.7959 131.871 48.7838 133.561 49.1209C134.959 49.4 136.358 49.5502 137.756 49.5779C139.202 49.6065 140.655 49.568 142.104 49.4725C143.67 49.3694 145.239 49.3929 146.803 49.5311C148.314 49.6646 149.82 49.8316 151.315 50.035C152.692 50.2221 154.094 50.2829 155.522 50.2108C157.319 50.1198 159.028 50.5068 160.608 51.3709C162.016 52.1415 163.341 53.0099 164.569 53.9842C165.714 54.8929 166.89 55.7918 168.096 56.6795C169.597 57.7854 170.583 59.2756 171.026 61.0858C171.409 62.6563 171.619 64.2338 171.658 65.8084C171.699 67.4415 171.469 69.0486 170.967 70.6131C170.49 72.1008 169.886 73.522 169.162 74.8787C168.346 76.4095 167.177 77.5977 165.67 78.3943C164.148 79.1985 162.47 79.4776 160.69 79.2733C159.281 79.1118 157.887 79.0918 156.506 79.2147C154.905 79.3573 153.299 79.3157 151.701 79.0858C150.368 78.8943 149.019 78.9037 147.647 79.1092C145.79 79.3877 144.027 79.0388 142.432 78.0662C141.188 77.3064 139.91 76.6185 138.612 76.0154C137.246 75.3809 135.889 74.7234 134.545 74.035C133.247 73.3701 131.93 72.7473 130.596 72.1717C129.238 71.5856 127.849 70.9893 126.436 70.4022C125.939 70.1956 125.583 70.1856 125.334 70.2381C125.09 70.2901 124.794 70.433 124.455 70.8006C123.723 71.5972 123.408 72.5087 123.483 73.6248C123.57 74.9268 123.925 76.1419 124.549 77.2811C125.346 78.7361 125.918 80.2691 126.26 81.8748C126.563 83.2979 126.924 84.6983 127.338 86.0701C127.765 87.4864 128.184 88.9146 128.604 90.3475C129.042 91.8434 129.377 93.3626 129.6 94.9061C129.815 96.3979 129.998 97.9039 130.162 99.4178C130.314 100.815 130.605 102.178 131.03 103.496C131.479 104.89 131.969 106.276 132.483 107.656C133.033 109.134 133.46 110.651 133.76 112.203C133.882 112.835 134.114 113.628 134.487 114.582L136.022 117.945L136.127 118.226C136.395 119.007 135.981 119.853 135.201 120.125C134.447 120.385 133.639 120.009 133.338 119.281V119.293C132.012 116.651 131.133 114.458 130.807 112.777C130.537 111.385 130.163 110.023 129.67 108.699C129.141 107.277 128.645 105.847 128.182 104.41C127.694 102.897 127.359 101.342 127.186 99.7459C127.025 98.2668 126.834 96.7961 126.623 95.3397C126.42 93.9353 126.12 92.5521 125.721 91.1912C125.303 89.7661 124.892 88.3458 124.467 86.9373C124.029 85.4853 123.639 84.0103 123.319 82.5076C123.038 81.1893 122.573 79.9272 121.912 78.7225C121.078 77.1996 120.599 75.5598 120.483 73.824C120.354 71.9031 120.955 70.1845 122.252 68.7733C122.926 68.0418 123.743 67.502 124.713 67.2967C125.682 67.0922 126.661 67.2529 127.584 67.6365C129.009 68.2283 130.409 68.8148 131.78 69.4061C133.176 70.0086 134.558 70.6673 135.916 71.3631C137.226 72.034 138.547 72.6784 139.877 73.2967C141.279 73.9481 142.652 74.6823 143.99 75.4998C144.978 76.1026 146.029 76.3201 147.201 76.1443C148.857 75.8962 150.505 75.8863 152.135 76.1209C153.502 76.3175 154.869 76.3481 156.237 76.2264C157.824 76.085 159.423 76.1125 161.03 76.2967C162.267 76.4387 163.337 76.2424 164.276 75.7459C165.229 75.2415 165.968 74.4947 166.514 73.4725C167.152 72.2755 167.684 71.0094 168.108 69.6873C168.507 68.4409 168.691 67.1721 168.658 65.8787C168.624 64.527 168.441 63.1682 168.108 61.8006C167.833 60.6754 167.249 59.7946 166.315 59.1053C165.08 58.1965 163.868 57.2714 162.694 56.3397C161.604 55.4753 160.429 54.6982 159.166 54.0076C158.072 53.4092 156.917 53.1361 155.674 53.199C154.064 53.2805 152.471 53.2247 150.905 53.0115C149.457 52.8146 147.998 52.6487 146.533 52.5193C145.124 52.395 143.714 52.3797 142.303 52.4725C140.77 52.5736 139.229 52.6082 137.698 52.5779C136.119 52.5467 134.544 52.3755 132.975 52.0623C131.698 51.8075 130.416 51.8135 129.119 52.0975C127.369 52.4818 125.621 52.4158 123.916 51.8865C122.537 51.4584 121.148 51.1463 119.756 50.949C118.337 50.7481 116.908 50.6222 115.479 50.574C113.922 50.5213 112.5 50.3516 111.225 50.0584C110.629 49.9213 110.109 49.7771 109.725 49.6248C109.55 49.5556 109.281 49.4371 109.045 49.2498C108.883 49.1195 108.127 48.445 108.506 47.4217L108.6 47.1873L108.658 47.1287C108.931 46.4743 109.604 46.0728 110.323 46.2264Z" fill="#FFFDF4"/>
<path d="M79.7627 0.53009C81.438 -0.106482 83.1799 -0.164846 84.9307 0.330872C86.3753 0.739904 87.7883 1.12499 89.1611 1.49103C90.7796 1.92314 92.2154 2.72633 93.4619 3.86993C94.5374 4.85668 95.636 5.85962 96.7432 6.89337C98.0162 8.08206 98.9573 9.50414 99.5674 11.1356C100.092 12.5387 100.635 13.923 101.185 15.284C101.728 16.6301 102.31 17.9661 102.931 19.2918C103.59 20.7007 104.165 22.1503 104.642 23.6277C105.11 25.0784 105.522 26.5478 105.884 28.034C106.223 29.4275 106.637 30.7989 107.138 32.1356C107.656 33.5202 108.201 34.9154 108.755 36.3074C109.362 37.8347 109.751 39.4141 109.915 41.0418C109.982 41.7072 110.136 42.547 110.384 43.5613L111.415 47.1356L111.462 47.3231C111.663 48.1264 111.175 48.9499 110.372 49.1512C109.767 49.3024 109.153 49.0591 108.802 48.5887L108.556 48.0496L107.466 44.2645C107.193 43.1465 107.01 42.1719 106.927 41.3465C106.791 39.9949 106.472 38.6815 105.966 37.409C105.405 35.9994 104.862 34.5931 104.337 33.1902C103.794 31.7398 103.333 30.2594 102.966 28.7488C102.622 27.3333 102.228 25.9344 101.782 24.5535C101.344 23.1959 100.818 21.8645 100.212 20.5692C99.5679 19.1933 98.9604 17.8071 98.3955 16.409C97.8356 15.0234 97.2882 13.6172 96.7549 12.1902C96.3072 10.9924 95.6269 9.95735 94.6924 9.08478C93.5921 8.05745 92.5027 7.05305 91.4346 6.07306C90.5394 5.25267 89.528 4.70211 88.3877 4.39728C86.9982 4.02678 85.5702 3.62702 84.1104 3.21368C82.957 2.88721 81.8787 2.93248 80.8291 3.33087C79.7151 3.7544 78.8777 4.40057 78.2627 5.24103C77.8606 5.79054 77.529 6.21449 77.29 6.50665C77.1764 6.64567 77.0587 6.79874 76.9385 6.91681C76.8898 6.96464 76.7691 7.07477 76.6104 7.17462C76.5405 7.21859 76.3505 7.33172 76.083 7.38556C75.786 7.44508 75.1936 7.45605 74.7119 6.9754L74.1963 6.44806L74.2549 6.07306C74.1459 5.42178 74.4483 4.78039 75.0635 4.49103C75.2474 4.25927 75.5024 3.91698 75.8369 3.45978C76.8208 2.11563 78.1508 1.14287 79.7627 0.53009Z" fill="#FFFDF4"/>
<path d="M82.719 29.6846C82.7554 29.7145 82.802 29.7328 82.8362 29.7667C83.3325 30.263 83.3801 31.0069 83.0354 31.5831C83.0211 31.6507 82.9977 31.7425 82.9768 31.8643C82.9946 31.9132 83.033 31.9591 83.0471 32.0167C83.1054 32.2559 83.1444 32.7225 82.8479 33.1885C82.5569 33.6446 82.1274 33.8062 81.9104 33.8565C81.6946 33.9057 81.5127 33.8986 81.4299 33.8917C80.9374 33.8495 80.606 33.5722 80.3752 33.294C80.3607 33.2831 80.3452 33.2712 80.3284 33.2589C80.1018 33.1893 79.8748 33.0865 79.6956 32.9073C79.115 32.3214 79.1123 31.3704 79.6956 30.7862L79.7776 30.7159L80.6565 29.837L80.7151 29.7667C80.7269 29.7548 80.7498 29.7546 80.762 29.7432C80.7805 29.7281 80.7888 29.6995 80.8088 29.6846L82.1331 28.712L82.719 29.6846Z" fill="#FFFDF4"/>
<path d="M93.811 27.8205C94.2436 27.7535 94.5775 27.8977 94.6899 27.9494C94.9342 28.062 95.1055 28.2156 95.147 28.2541C95.2191 28.3212 95.2837 28.3964 95.3345 28.4533C95.5292 28.6725 95.7948 29.0112 96.0962 29.426C96.1898 29.5548 96.2749 29.6984 96.354 29.8361C96.4211 29.953 96.5394 30.1623 96.6001 30.4221C96.6432 30.6071 96.7896 31.4271 96.0728 32.0158C95.4777 32.5012 94.8073 32.3543 94.7017 32.3322C94.331 32.2546 93.9715 32.056 93.7407 31.9221C93.6269 31.856 93.5075 31.7703 93.3774 31.6877L92.0181 32.1447L92.3228 30.9846C92.2182 30.852 92.1214 30.7086 92.0649 30.5392C91.8525 29.8972 92.1134 29.2461 92.6392 28.8752C92.6558 28.8224 92.6376 28.7552 92.6626 28.6994C92.8469 28.2892 93.2478 27.9092 93.811 27.8205Z" fill="#FFFDF4"/>
</svg>
